<svg width="50" height="50" viewBox="0 0 60 60" fill="none" xmlns="http://www.w3.org/2000/svg">
<circle cx="30" cy="30" r="30" fill="#FEDB1A"/>
<path d="M30.25 42C31.0241 42.001 31.7793 41.7607 32.4106 41.3127C33.0419 40.8647 33.5179 40.2311 33.7725 39.5H26.7275C26.9821 40.2311 27.4581 40.8647 28.0894 41.3127C28.7207 41.7607 29.4759 42.001 30.25 42ZM39 32.7325V27C39 22.9788 36.2687 19.5912 32.5687 18.5725C32.2025 17.65 31.3075 17 30.25 17C29.1925 17 28.2975 17.65 27.9313 18.5725C24.2313 19.5925 21.5 22.9788 21.5 27V32.7325L19.3662 34.8662C19.1318 35.1006 19.0001 35.4185 19 35.75V37C19 37.3315 19.1317 37.6495 19.3661 37.8839C19.6005 38.1183 19.9185 38.25 20.25 38.25H40.25C40.5815 38.25 40.8995 38.1183 41.1339 37.8839C41.3683 37.6495 41.5 37.3315 41.5 37V35.75C41.4999 35.4185 41.3682 35.1006 41.1338 34.8662L39 32.7325Z" fill="#D5661A"/>
</svg>