<svg width="100" height="100" viewBox="0 0 150 150" fill="none" xmlns="http://www.w3.org/2000/svg">
<path d="M150 114.72H0V114.795H150V114.72Z" fill="#EBEBEB"/>
<path d="M134.97 119.547H125.034V119.622H134.97V119.547Z" fill="#EBEBEB"/>
<path d="M99.366 120.363H96.759V120.438H99.366V120.363Z" fill="#EBEBEB"/>
<path d="M124.734 116.763H118.977V116.838H124.734V116.763Z" fill="#EBEBEB"/>
<path d="M28.695 117.267H15.738V117.342H28.695V117.267Z" fill="#EBEBEB"/>
<path d="M33.2669 117.267H31.3679V117.342H33.2669V117.267Z" fill="#EBEBEB"/>
<path d="M67.5449 118.533H39.4409V118.608H67.5449V118.533Z" fill="#EBEBEB"/>
<path d="M71.0999 101.34H13.1729C12.7191 101.339 12.2842 101.158 11.9636 100.837C11.643 100.516 11.4629 100.081 11.4629 99.627V18.198C11.4668 17.7468 11.6486 17.3154 11.9688 16.9975C12.289 16.6795 12.7217 16.5008 13.1729 16.5H71.0999C71.5542 16.5 71.9899 16.6805 72.3112 17.0017C72.6324 17.323 72.8129 17.7587 72.8129 18.213V99.627C72.8129 100.081 72.6324 100.517 72.3112 100.838C71.9899 101.16 71.5542 101.34 71.0999 101.34ZM13.1729 16.56C12.739 16.5608 12.3231 16.7337 12.0166 17.0408C11.7101 17.3479 11.5379 17.7641 11.5379 18.198V99.627C11.5379 100.061 11.7101 100.477 12.0166 100.784C12.3231 101.091 12.739 101.264 13.1729 101.265H71.0999C71.5341 101.264 71.9502 101.091 72.2573 100.784C72.5643 100.477 72.7371 100.061 72.7379 99.627V18.198C72.7371 17.7638 72.5643 17.3476 72.2573 17.0406C71.9502 16.7336 71.5341 16.5608 71.0999 16.56H13.1729Z" fill="#EBEBEB"/>
<path d="M135.993 101.34H78.0631C77.609 101.339 77.1738 101.158 76.8527 100.837C76.5316 100.516 76.3509 100.081 76.3501 99.627V18.198C76.3548 17.7465 76.5373 17.3151 76.858 16.9973C77.1786 16.6794 77.6116 16.5008 78.0631 16.5H135.993C136.444 16.5016 136.876 16.6807 137.195 16.9985C137.515 17.3164 137.696 17.7473 137.7 18.198V99.627C137.7 100.08 137.52 100.515 137.2 100.836C136.881 101.157 136.446 101.338 135.993 101.34ZM78.0631 16.56C77.6289 16.5608 77.2127 16.7336 76.9057 17.0406C76.5987 17.3476 76.4259 17.7638 76.4251 18.198V99.627C76.4259 100.061 76.5987 100.477 76.9057 100.784C77.2127 101.091 77.6289 101.264 78.0631 101.265H135.993C136.427 101.264 136.843 101.091 137.15 100.784C137.457 100.477 137.63 100.061 137.631 99.627V18.198C137.63 17.7638 137.457 17.3476 137.15 17.0406C136.843 16.7336 136.427 16.5608 135.993 16.56H78.0631Z" fill="#EBEBEB"/>
<path d="M126.387 34.116H124.815V67.167H126.387V34.116Z" fill="#E0E0E0"/>
<path d="M95.592 67.17H125.478V34.119L95.592 34.119V67.17Z" fill="#E0E0E0"/>
<path d="M94.638 67.17H125.634V34.119L94.638 34.119V67.17Z" fill="#F0F0F0"/>
<path d="M95.952 65.649H124.374V35.169H95.952V65.649Z" fill="white"/>
<path d="M95.949 65.649H96.771V35.169H95.949V65.649Z" fill="#E0E0E0"/>
<path d="M96.6841 57.09V57.912H124.446V57.09H96.6841Z" fill="#E0E0E0"/>
<path d="M95.9519 57.087H124.815V55.707H95.9519V57.087Z" fill="#F0F0F0"/>
<path d="M66.8819 54.921H19.9199V114.387H66.8819V54.921Z" fill="#F0F0F0"/>
<path d="M65.223 57.09H21.582V69.807H65.223V57.09Z" fill="#E0E0E0"/>
<path d="M24.06 59.148H21.582V69.804H24.06V59.148Z" fill="#EBEBEB"/>
<path d="M36.0449 59.148H33.5669V69.804H36.0449V59.148Z" fill="#EBEBEB"/>
<path d="M49.6549 58.8821L47.2129 59.303L49.023 69.8041L51.465 69.3832L49.6549 58.8821Z" fill="#EBEBEB"/>
<path d="M27.1289 60.552H24.6509V69.804H27.1289V60.552Z" fill="#EBEBEB"/>
<path d="M32.8291 60.552H30.3511V69.804H32.8291V60.552Z" fill="#EBEBEB"/>
<path d="M47.2109 60.552H44.7329V69.804H47.2109V60.552Z" fill="#EBEBEB"/>
<path d="M39.3037 60.2329L36.8848 60.7705L38.892 69.8021L41.311 69.2645L39.3037 60.2329Z" fill="#EBEBEB"/>
<path d="M29.2739 58.62H28.0349V69.807H29.2739V58.62Z" fill="#EBEBEB"/>
<path d="M44.019 58.62H42.78V69.807H44.019V58.62Z" fill="#EBEBEB"/>
<path d="M21.579 84.534H65.22V71.817H21.579V84.534Z" fill="#E0E0E0"/>
<path d="M62.7449 84.534H65.2229V73.878H62.7449V84.534Z" fill="#EBEBEB"/>
<path d="M50.7571 84.534H53.2351V73.878H50.7571V84.534Z" fill="#EBEBEB"/>
<path d="M35.1718 83.7709L37.625 84.1922L39.4365 73.6428L36.9833 73.2215L35.1718 83.7709Z" fill="#EBEBEB"/>
<path d="M59.6729 84.534H62.1509V75.282H59.6729V84.534Z" fill="#EBEBEB"/>
<path d="M53.9729 84.534H56.4509V75.282H53.9729V84.534Z" fill="#EBEBEB"/>
<path d="M39.5879 84.534H42.0659V75.282H39.5879V84.534Z" fill="#EBEBEB"/>
<path d="M45.4958 83.9966L47.9148 84.5342L49.922 75.5025L47.503 74.9649L45.4958 83.9966Z" fill="#EBEBEB"/>
<path d="M57.5281 84.534H58.7671V73.347H57.5281V84.534Z" fill="#EBEBEB"/>
<path d="M42.783 84.534H44.022V73.347H42.783V84.534Z" fill="#EBEBEB"/>
<path d="M24.06 73.878H21.582V84.534H24.06V73.878Z" fill="#EBEBEB"/>
<path d="M27.1289 75.282H24.6509V84.534H27.1289V75.282Z" fill="#EBEBEB"/>
<path d="M32.8291 75.282H30.3511V84.534H32.8291V75.282Z" fill="#EBEBEB"/>
<path d="M29.2739 73.35H28.0349V84.537H29.2739V73.35Z" fill="#EBEBEB"/>
<path d="M65.223 86.55H21.582V99.267H65.223V86.55Z" fill="#E0E0E0"/>
<path d="M49.1069 88.608H46.6289V99.264H49.1069V88.608Z" fill="#EBEBEB"/>
<path d="M62.7186 88.3382L60.2766 88.7591L62.0867 99.2602L64.5287 98.8393L62.7186 88.3382Z" fill="#EBEBEB"/>
<path d="M40.1909 90.012H37.7129V99.264H40.1909V90.012Z" fill="#EBEBEB"/>
<path d="M45.8911 90.012H43.4131V99.264H45.8911V90.012Z" fill="#EBEBEB"/>
<path d="M60.2729 90.012H57.7949V99.264H60.2729V90.012Z" fill="#EBEBEB"/>
<path d="M52.368 89.6914L49.949 90.229L51.9562 99.2606L54.3752 98.723L52.368 89.6914Z" fill="#EBEBEB"/>
<path d="M42.3359 88.077H41.0969V99.264H42.3359V88.077Z" fill="#EBEBEB"/>
<path d="M57.081 88.077H55.842V99.264H57.081V88.077Z" fill="#EBEBEB"/>
<path d="M34.1981 88.3379L31.7561 88.7589L33.5662 99.26L36.0082 98.8391L34.1981 88.3379Z" fill="#EBEBEB"/>
<path d="M31.7519 90.012H29.2739V99.264H31.7519V90.012Z" fill="#EBEBEB"/>
<path d="M23.8452 89.693L21.4263 90.2307L23.4335 99.2623L25.8525 98.7247L23.8452 89.693Z" fill="#EBEBEB"/>
<path d="M28.56 88.077H27.321V99.264H28.56V88.077Z" fill="#EBEBEB"/>
<path d="M95.565 78.9H122.028C122.711 78.8996 123.387 79.0337 124.017 79.2947C124.648 79.5556 125.221 79.9383 125.704 80.4208C126.187 80.9033 126.57 81.4763 126.831 82.1069C127.092 82.7375 127.227 83.4134 127.227 84.096V104.763H90.366V84.09C90.3676 82.7124 90.9161 81.3919 91.891 80.4187C92.8659 79.4455 94.1874 78.8992 95.565 78.9Z" fill="#E6E6E6"/>
<path d="M82.5421 94.2H87.2791C88.0981 94.2008 88.8833 94.5267 89.4621 95.1061C90.0409 95.6855 90.3661 96.471 90.3661 97.29V114.39H79.4551V97.29C79.4551 96.471 79.7802 95.6855 80.3591 95.1061C80.9379 94.5267 81.7231 94.2008 82.5421 94.2Z" fill="#E0E0E0"/>
<path d="M82.5421 94.2H82.6441C83.4631 94.2008 84.2483 94.5267 84.8271 95.1061C85.4059 95.6855 85.7311 96.471 85.7311 97.29V114.39H79.4551V97.29C79.4551 96.471 79.7802 95.6855 80.3591 95.1061C80.9379 94.5267 81.7231 94.2008 82.5421 94.2Z" fill="#EBEBEB"/>
<path d="M123.372 106.539H87.054V114.39H123.372V106.539Z" fill="#E6E6E6"/>
<path d="M122.028 99.357H87.0031C85.2683 99.357 83.8621 100.763 83.8621 102.498V104.451C83.8621 106.186 85.2683 107.592 87.0031 107.592H122.028C123.763 107.592 125.169 106.186 125.169 104.451V102.498C125.169 100.763 123.763 99.357 122.028 99.357Z" fill="#F5F5F5"/>
<path d="M121.968 99.357H117.627C115.892 99.357 114.486 100.763 114.486 102.498V104.451C114.486 106.186 115.892 107.592 117.627 107.592H121.968C123.703 107.592 125.109 106.186 125.109 104.451V102.498C125.109 100.763 123.703 99.357 121.968 99.357Z" fill="#E0E0E0"/>
<path d="M122.439 94.2H127.173C127.992 94.2 128.778 94.5256 129.358 95.1051C129.937 95.6845 130.263 96.4705 130.263 97.29V114.39H119.349V97.29C119.349 96.4705 119.674 95.6845 120.254 95.1051C120.833 94.5256 121.619 94.2 122.439 94.2Z" fill="#E0E0E0"/>
<path d="M122.439 94.2H122.538C123.357 94.2 124.143 94.5256 124.723 95.1051C125.302 95.6845 125.628 96.4705 125.628 97.29V114.39H119.349V97.29C119.349 96.4705 119.674 95.6845 120.254 95.1051C120.833 94.5256 121.619 94.2 122.439 94.2Z" fill="#F0F0F0"/>
<path d="M45.1549 47.9933C49.0064 47.3681 51.6219 43.739 50.9967 39.8876C50.3715 36.0361 46.7424 33.4206 42.891 34.0458C39.0395 34.671 36.424 38.3001 37.0492 42.1515C37.6744 46.003 41.3035 48.6185 45.1549 47.9933Z" fill="#E0E0E0"/>
<path d="M44.9859 46.9509C48.2617 46.4192 50.4862 43.3326 49.9544 40.0568C49.4227 36.781 46.3361 34.5565 43.0603 35.0882C39.7845 35.6199 37.56 38.7066 38.0917 41.9824C38.6234 45.2582 41.7101 47.4827 44.9859 46.9509Z" fill="#F0F0F0"/>
<path d="M43.7369 45.144V40.944L40.9529 42.519" fill="#F0F0F0"/>
<path d="M43.737 45.444C43.6575 45.444 43.5812 45.4124 43.5249 45.3561C43.4686 45.2999 43.437 45.2236 43.437 45.144V41.457L41.1 42.78C41.0656 42.7997 41.0276 42.8124 40.9883 42.8174C40.9489 42.8223 40.909 42.8194 40.8707 42.8088C40.8325 42.7982 40.7968 42.7801 40.7656 42.7556C40.7344 42.7311 40.7084 42.7006 40.689 42.666C40.6502 42.5968 40.6403 42.5149 40.6617 42.4385C40.6831 42.362 40.7339 42.2971 40.803 42.258L43.587 40.683C43.6326 40.6574 43.6842 40.6441 43.7365 40.6445C43.7888 40.645 43.8401 40.6591 43.8853 40.6855C43.9305 40.7118 43.968 40.7496 43.9941 40.7949C44.0202 40.8403 44.0339 40.8917 44.034 40.944V45.144C44.034 45.2231 44.0028 45.2989 43.9472 45.3551C43.8916 45.4113 43.8161 45.4432 43.737 45.444Z" fill="#E0E0E0"/>
<path d="M75 128.268C107.125 128.268 133.167 126.748 133.167 124.872C133.167 122.996 107.125 121.476 75 121.476C42.8753 121.476 16.833 122.996 16.833 124.872C16.833 126.748 42.8753 128.268 75 128.268Z" fill="#F5F5F5"/>
<path d="M115.251 37.593H72.5611C70.9556 37.593 69.6541 38.8945 69.6541 40.5V121.929C69.6541 123.535 70.9556 124.836 72.5611 124.836H115.251C116.857 124.836 118.158 123.535 118.158 121.929V40.5C118.158 38.8945 116.857 37.593 115.251 37.593Z" fill="#D3345D"/>
<path opacity="0.8" d="M115.251 37.593H72.5611C70.9556 37.593 69.6541 38.8945 69.6541 40.5V121.929C69.6541 123.535 70.9556 124.836 72.5611 124.836H115.251C116.857 124.836 118.158 123.535 118.158 121.929V40.5C118.158 38.8945 116.857 37.593 115.251 37.593Z" fill="white"/>
<path opacity="0.6" d="M93.9 39.528C93.9 39.651 93.8635 39.7711 93.7951 39.8733C93.7267 39.9755 93.6296 40.0551 93.5159 40.102C93.4023 40.1489 93.2772 40.1611 93.1567 40.1369C93.0362 40.1127 92.9255 40.0532 92.8388 39.9661C92.7521 39.8789 92.6931 39.768 92.6695 39.6473C92.6459 39.5267 92.6586 39.4017 92.7061 39.2883C92.7536 39.1749 92.8336 39.0781 92.9361 39.0102C93.0387 38.9423 93.159 38.9064 93.282 38.907C93.3634 38.907 93.444 38.9231 93.5192 38.9543C93.5943 38.9856 93.6626 39.0314 93.72 39.0891C93.7774 39.1468 93.8229 39.2153 93.8538 39.2906C93.8847 39.3659 93.9004 39.4466 93.9 39.528Z" fill="black"/>
<path opacity="0.6" d="M95.1539 39.528C95.1545 39.6072 95.1316 39.6847 95.088 39.7508C95.0443 39.8169 94.9821 39.8685 94.909 39.8991C94.836 39.9296 94.7555 39.9378 94.6779 39.9225C94.6002 39.9072 94.5288 39.8691 94.4728 39.8132C94.4168 39.7572 94.3788 39.6858 94.3635 39.6081C94.3482 39.5305 94.3563 39.45 94.3869 39.3769C94.4175 39.3039 94.4691 39.2416 94.5351 39.198C94.6012 39.1544 94.6788 39.1314 94.7579 39.132C94.8627 39.1328 94.963 39.1748 95.0371 39.2489C95.1112 39.323 95.1532 39.4232 95.1539 39.528Z" fill="black"/>
<path d="M116.523 40.518V121.758C116.523 122.076 116.397 122.381 116.172 122.607C115.947 122.832 115.641 122.958 115.323 122.958H72.366C72.2231 122.96 72.0813 122.933 71.9491 122.878C71.8169 122.824 71.697 122.744 71.5965 122.642C71.496 122.54 71.417 122.42 71.3642 122.287C71.3114 122.154 71.2858 122.012 71.289 121.869V40.419C71.2842 40.2929 71.3043 40.1671 71.3481 40.0488C71.392 39.9305 71.4587 39.822 71.5445 39.7294C71.6304 39.6369 71.7336 39.5623 71.8483 39.5097C71.963 39.4571 72.0869 39.4276 72.213 39.423H82.95C83.1001 39.4256 83.2459 39.473 83.3689 39.559C83.4918 39.6451 83.5862 39.7659 83.64 39.906L84.087 41.001C84.1414 41.1402 84.2362 41.26 84.3591 41.345C84.482 41.43 84.6276 41.4763 84.777 41.478H103.059C103.208 41.4768 103.353 41.4313 103.476 41.3475C103.599 41.2636 103.694 41.1451 103.749 41.007L104.193 39.906C104.248 39.7659 104.343 39.6452 104.466 39.5592C104.59 39.4732 104.736 39.4258 104.886 39.423H115.467C115.752 39.4301 116.022 39.5489 116.22 39.7539C116.417 39.9588 116.526 40.2333 116.523 40.518Z" fill="#263238"/>
<path opacity="0.3" d="M116.52 44.496H71.2891V117.558H116.52V44.496Z" fill="white"/>
<path d="M115.404 53.931H72.405V116.529H115.404V53.931Z" fill="#D3345D"/>
<path opacity="0.6" d="M115.404 53.931H72.405V116.529H115.404V53.931Z" fill="white"/>
<path d="M94.2632 120.96H93.5492C93.3691 120.96 93.1963 120.889 93.0687 120.762C92.9411 120.635 92.869 120.462 92.8682 120.282V119.568C92.8682 119.387 92.9399 119.214 93.0676 119.086C93.1953 118.959 93.3685 118.887 93.5492 118.887H94.2632C94.4438 118.887 94.617 118.959 94.7447 119.086C94.8724 119.214 94.9442 119.387 94.9442 119.568V120.282C94.9434 120.462 94.8713 120.635 94.7436 120.762C94.616 120.889 94.4433 120.96 94.2632 120.96ZM93.5492 119.16C93.4431 119.161 93.3416 119.204 93.2668 119.279C93.1921 119.354 93.1502 119.456 93.1502 119.562V120.276C93.1509 120.382 93.1932 120.483 93.2679 120.557C93.3426 120.632 93.4436 120.674 93.5492 120.675H94.2632C94.3687 120.674 94.4698 120.632 94.5444 120.557C94.6191 120.483 94.6614 120.382 94.6622 120.276V119.562C94.6622 119.456 94.6202 119.354 94.5455 119.279C94.4707 119.204 94.3693 119.161 94.2632 119.16H93.5492Z" fill="white"/>
<path d="M93.906 85.101C100.868 85.101 106.512 79.4571 106.512 72.495C106.512 65.5329 100.868 59.889 93.906 59.889C86.9439 59.889 81.3 65.5329 81.3 72.495C81.3 79.4571 86.9439 85.101 93.906 85.101Z" fill="#D3345D"/>
<path d="M93.9002 84.261C91.5722 84.2616 89.2964 83.5718 87.3605 82.2788C85.4247 80.9859 83.9158 79.1478 83.0246 76.9972C82.1335 74.8466 81.9002 72.48 82.3542 70.1967C82.8082 67.9135 83.9291 65.8162 85.5752 64.1701C87.2213 62.524 89.3187 61.403 91.6019 60.949C93.8851 60.495 96.2517 60.7283 98.4024 61.6195C100.553 62.5106 102.391 64.0195 103.684 65.9554C104.977 67.8913 105.667 70.1671 105.666 72.495C105.663 75.6146 104.422 78.6055 102.216 80.8113C100.011 83.0172 97.0197 84.2578 93.9002 84.261ZM93.9002 61.845C91.7938 61.845 89.7347 62.4696 87.9834 63.6399C86.232 64.8101 84.8669 66.4734 84.0609 68.4195C83.2548 70.3655 83.0439 72.5068 83.4548 74.5727C83.8658 76.6386 84.8801 78.5363 86.3695 80.0257C87.8589 81.5151 89.7566 82.5295 91.8225 82.9404C93.8884 83.3513 96.0297 83.1404 97.9758 82.3343C99.9218 81.5283 101.585 80.1632 102.755 78.4118C103.926 76.6605 104.55 74.6014 104.55 72.495C104.547 69.6714 103.424 66.9644 101.427 64.9678C99.4308 62.9713 96.7238 61.8482 93.9002 61.845Z" fill="white"/>
<path d="M92.5832 78.126C92.4151 78.126 92.249 78.0892 92.0966 78.0182C91.9443 77.9472 91.8093 77.8437 91.7012 77.715L86.7542 71.889C86.5553 71.6547 86.4576 71.351 86.4826 71.0446C86.5076 70.7383 86.6534 70.4544 86.8877 70.2555C87.122 70.0566 87.4257 69.9589 87.7321 69.984C88.0384 70.009 88.3223 70.1547 88.5212 70.389L92.5832 75.189L99.3002 67.272C99.4991 67.0377 99.7829 66.892 100.089 66.867C100.396 66.8419 100.699 66.9396 100.934 67.1385C101.168 67.3374 101.314 67.6213 101.339 67.9276C101.364 68.234 101.266 68.5377 101.067 68.772L93.4742 77.715C93.3651 77.8449 93.2286 77.9491 93.0746 78.0201C92.9206 78.0912 92.7528 78.1273 92.5832 78.126Z" fill="white"/>
<path d="M115.404 45.93H72.405V53.298H115.404V45.93Z" fill="#D3345D"/>
<path d="M113.331 48.357C113.331 48.4223 113.312 48.4861 113.276 48.5403C113.239 48.5946 113.188 48.6369 113.127 48.6619C113.067 48.6869 113.001 48.6934 112.937 48.6807C112.873 48.6679 112.814 48.6365 112.768 48.5904C112.722 48.5442 112.69 48.4854 112.677 48.4214C112.665 48.3574 112.671 48.291 112.696 48.2307C112.721 48.1704 112.764 48.1189 112.818 48.0826C112.872 48.0464 112.936 48.027 113.001 48.027C113.089 48.027 113.173 48.0618 113.234 48.1237C113.296 48.1856 113.331 48.2695 113.331 48.357Z" fill="white"/>
<path d="M113.331 49.614C113.331 49.6793 113.312 49.7431 113.276 49.7974C113.239 49.8516 113.188 49.8939 113.127 49.9189C113.067 49.9439 113.001 49.9504 112.937 49.9377C112.873 49.925 112.814 49.8935 112.768 49.8474C112.722 49.8012 112.69 49.7424 112.677 49.6784C112.665 49.6144 112.671 49.548 112.696 49.4877C112.721 49.4274 112.764 49.3759 112.818 49.3396C112.872 49.3034 112.936 49.284 113.001 49.284C113.089 49.284 113.173 49.3188 113.234 49.3807C113.296 49.4426 113.331 49.5265 113.331 49.614Z" fill="white"/>
<path d="M113.331 50.871C113.331 50.9363 113.312 51.0001 113.276 51.0544C113.239 51.1086 113.188 51.1509 113.127 51.1759C113.067 51.2009 113.001 51.2074 112.937 51.1947C112.873 51.1819 112.814 51.1505 112.768 51.1044C112.722 51.0582 112.69 50.9994 112.677 50.9354C112.665 50.8714 112.671 50.805 112.696 50.7447C112.721 50.6844 112.764 50.6329 112.818 50.5966C112.872 50.5604 112.936 50.541 113.001 50.541C113.089 50.541 113.173 50.5758 113.234 50.6377C113.296 50.6996 113.331 50.7835 113.331 50.871Z" fill="white"/>
<path d="M85.1431 50.529H84.1321L83.9341 50.997H83.5471L84.4471 48.978H84.8161L85.7161 50.997H85.3231L85.1431 50.529ZM85.0171 50.229L84.6361 49.347L84.2581 50.229H85.0171Z" fill="white"/>
<path d="M86.3011 49.293H85.6321V48.978H87.3451V49.293H86.6761V51H86.3011V49.293Z" fill="white"/>
<path d="M88.065 49.293H87.396V48.978H89.1V49.293H88.44V51H88.065V49.293Z" fill="white"/>
<path d="M90.9001 50.682V51H89.4001V48.981H90.8731V49.281H89.7751V49.806H90.7501V50.106H89.7751V50.664L90.9001 50.682Z" fill="white"/>
<path d="M93.117 48.978V51H92.817L91.704 49.632V51H91.332V48.981H91.632L92.745 50.346V48.981L93.117 48.978Z" fill="white"/>
<path d="M93.6602 48.978H94.5422C94.6827 48.9647 94.8245 48.9809 94.9585 49.0256C95.0924 49.0703 95.2156 49.1425 95.32 49.2375C95.4245 49.3326 95.5079 49.4484 95.565 49.5775C95.6221 49.7067 95.6516 49.8463 95.6516 49.9875C95.6516 50.1287 95.6221 50.2684 95.565 50.3975C95.5079 50.5267 95.4245 50.6425 95.32 50.7375C95.2156 50.8325 95.0924 50.9047 94.9585 50.9494C94.8245 50.9941 94.6827 51.0103 94.5422 50.997H93.6602V48.978ZM94.5241 50.679C94.6206 50.688 94.7178 50.6768 94.8096 50.646C94.9015 50.6153 94.9859 50.5657 95.0575 50.5005C95.1291 50.4352 95.1862 50.3558 95.2254 50.2672C95.2645 50.1786 95.2847 50.0829 95.2847 49.986C95.2847 49.8892 95.2645 49.7934 95.2254 49.7048C95.1862 49.6162 95.1291 49.5368 95.0575 49.4715C94.9859 49.4063 94.9015 49.3568 94.8096 49.326C94.7178 49.2953 94.6206 49.284 94.5241 49.293H94.0352V50.679H94.5241Z" fill="white"/>
<path d="M97.3231 50.529H96.3001L96.1021 50.997H95.7151L96.6151 48.978H96.9841L97.8841 50.997H97.4911L97.3231 50.529ZM97.1971 50.229L96.8161 49.347L96.4381 50.229H97.1971Z" fill="white"/>
<path d="M99.9662 48.978V51H99.6662L98.5532 49.632V51H98.1812V48.981H98.4812L99.5942 50.346V48.981L99.9662 48.978Z" fill="white"/>
<path d="M100.362 49.986C100.361 49.8455 100.388 49.7061 100.443 49.5765C100.497 49.447 100.578 49.33 100.679 49.2327C100.781 49.1355 100.901 49.06 101.033 49.011C101.164 48.9621 101.305 48.9406 101.445 48.948C101.595 48.9419 101.744 48.9688 101.882 49.0268C102.02 49.0849 102.143 49.1727 102.243 49.284L102.003 49.512C101.935 49.437 101.851 49.3774 101.758 49.3371C101.665 49.2967 101.565 49.2766 101.463 49.278C101.366 49.2717 101.269 49.2854 101.177 49.3182C101.086 49.351 101.002 49.4022 100.931 49.4687C100.86 49.5352 100.803 49.6156 100.765 49.7048C100.726 49.794 100.706 49.8903 100.706 49.9875C100.706 50.0848 100.726 50.181 100.765 50.2702C100.803 50.3595 100.86 50.4398 100.931 50.5063C101.002 50.5728 101.086 50.6241 101.177 50.6569C101.269 50.6897 101.366 50.7033 101.463 50.697C101.565 50.6987 101.666 50.678 101.76 50.6366C101.853 50.5952 101.936 50.5339 102.003 50.457L102.243 50.688C102.095 50.8413 101.905 50.9481 101.697 50.9952C101.49 51.0423 101.272 51.0277 101.073 50.9531C100.873 50.8786 100.699 50.7474 100.573 50.5756C100.447 50.4038 100.374 50.1989 100.362 49.986Z" fill="white"/>
<path d="M104.118 50.682V51H102.6V48.981H104.076V49.281H102.975V49.806H103.95V50.106H102.975V50.664L104.118 50.682Z" fill="white"/>
<path d="M83.1541 88.017C83.1661 87.7692 83.2505 87.5304 83.3969 87.3301C83.5432 87.1298 83.745 86.9768 83.9774 86.89C84.2098 86.8032 84.4625 86.7864 84.7043 86.8416C84.9462 86.8969 85.1665 87.0219 85.3381 87.201L85.0561 87.468C84.9777 87.3795 84.881 87.3089 84.7728 87.2613C84.6646 87.2137 84.5473 87.19 84.4291 87.192C84.2102 87.192 84.0004 87.2789 83.8457 87.4336C83.691 87.5884 83.6041 87.7982 83.6041 88.017C83.6041 88.2358 83.691 88.4456 83.8457 88.6004C84.0004 88.7551 84.2102 88.842 84.4291 88.842C84.5475 88.8434 84.6648 88.8192 84.7731 88.7711C84.8813 88.7229 84.9778 88.6519 85.0561 88.563L85.3381 88.83C85.1667 89.009 84.9466 89.1339 84.705 89.1893C84.4635 89.2447 84.211 89.2282 83.9787 89.1417C83.7464 89.0552 83.5446 88.9027 83.398 88.7028C83.2515 88.5029 83.1667 88.2645 83.1541 88.017Z" fill="#263238"/>
<path d="M85.5391 88.017C85.5259 87.7642 85.5888 87.5133 85.7196 87.2966C85.8505 87.0799 86.0433 86.9074 86.2731 86.8014C86.503 86.6954 86.7593 86.6607 87.0091 86.7019C87.2589 86.743 87.4906 86.8581 87.6743 87.0322C87.858 87.2063 87.9853 87.4315 88.0397 87.6788C88.0942 87.926 88.0733 88.1838 87.9797 88.419C87.8861 88.6542 87.7242 88.856 87.5148 88.9982C87.3054 89.1405 87.0582 89.2167 86.8051 89.217C86.642 89.226 86.4789 89.2016 86.3256 89.1453C86.1723 89.0891 86.0321 89.0021 85.9136 88.8898C85.795 88.7774 85.7007 88.6421 85.6363 88.492C85.5719 88.342 85.5388 88.1803 85.5391 88.017ZM87.6391 88.017C87.6391 87.8537 87.5906 87.6941 87.4998 87.5584C87.409 87.4226 87.28 87.3169 87.1291 87.2545C86.9782 87.1922 86.8121 87.176 86.652 87.2081C86.4919 87.2402 86.3449 87.3191 86.2296 87.4347C86.1144 87.5504 86.0361 87.6977 86.0046 87.8579C85.9731 88.0182 85.9898 88.1841 86.0527 88.3348C86.1156 88.4855 86.2218 88.6142 86.3579 88.7044C86.494 88.7947 86.6538 88.8426 86.8171 88.842C86.9252 88.8437 87.0325 88.8234 87.1325 88.7824C87.2326 88.7413 87.3232 88.6804 87.399 88.6032C87.4747 88.526 87.534 88.4343 87.5732 88.3335C87.6124 88.2328 87.6307 88.1251 87.6271 88.017H87.6391Z" fill="#263238"/>
<path d="M90.615 86.844V89.19H90.258L88.962 87.6V89.19H88.53V86.844H88.89L90.183 88.431V86.844H90.615Z" fill="#263238"/>
<path d="M91.683 87.21V87.924H92.814V88.29H91.683V89.19H91.248V86.844H92.958V87.21H91.683Z" fill="#263238"/>
<path d="M93.384 86.844H93.819V89.19H93.384V86.844Z" fill="#263238"/>
<path d="M96.0001 89.19L95.5201 88.503H94.8991V89.187H94.4641V86.841H95.4301C96.0451 86.841 96.4291 87.141 96.4291 87.675C96.4358 87.8358 96.3907 87.9946 96.3006 88.128C96.2104 88.2613 96.0799 88.3623 95.9281 88.416L96.4681 89.187L96.0001 89.19ZM95.4001 87.213H94.8901V88.146H95.4001C95.7811 88.146 95.9791 87.972 95.9791 87.678C95.9791 87.384 95.7781 87.213 95.4001 87.213Z" fill="#263238"/>
<path d="M99.0571 89.19V87.636L98.2861 88.92H98.1001L97.3321 87.654V89.19H96.9001V86.844H97.2602L98.1901 88.398L99.1051 86.844H99.4621V89.19H99.0571Z" fill="#263238"/>
<path d="M101.865 88.824V89.19H100.104V86.844H101.817V87.21H100.542V87.81H101.673V88.167H100.542V88.815L101.865 88.824Z" fill="#263238"/>
<path d="M102.351 86.844H103.377C104.136 86.844 104.658 87.312 104.658 88.017C104.658 88.722 104.136 89.19 103.377 89.19H102.351V86.844ZM103.356 88.821C103.467 88.8307 103.58 88.817 103.686 88.781C103.791 88.745 103.889 88.6873 103.971 88.6117C104.054 88.5361 104.119 88.4442 104.164 88.3419C104.209 88.2395 104.233 88.1289 104.233 88.017C104.233 87.9052 104.209 87.7946 104.164 87.6922C104.119 87.5898 104.054 87.4979 103.971 87.4223C103.889 87.3467 103.791 87.2891 103.686 87.253C103.58 87.217 103.467 87.2034 103.356 87.213H102.786V88.821H103.356Z" fill="#263238"/>
<path d="M74.4242 96.096H113.4C113.75 96.096 114.086 96.2351 114.334 96.4826C114.581 96.7302 114.72 97.0659 114.72 97.416V116.529H73.1072V97.413C73.108 97.064 73.247 96.7294 73.4938 96.4826C73.7406 96.2358 74.0751 96.0968 74.4242 96.096Z" fill="#D3345D"/>
<path opacity="0.2" d="M74.4242 96.096H113.4C113.75 96.096 114.086 96.2351 114.334 96.4826C114.581 96.7302 114.72 97.0659 114.72 97.416V116.529H73.1072V97.413C73.108 97.064 73.247 96.7294 73.4938 96.4826C73.7406 96.2358 74.0751 96.0968 74.4242 96.096Z" fill="white"/>
<path opacity="0.5" d="M86.325 104.331C86.3263 105.217 86.1266 106.092 85.7411 106.891C85.3555 107.689 84.7941 108.389 84.099 108.939C84.0671 108.969 84.033 108.998 83.997 109.023C83.6098 109.32 83.1864 109.566 82.737 109.755C81.6696 110.211 80.4906 110.34 79.35 110.124C79.2996 110.118 79.2496 110.11 79.2 110.1C79.0151 110.064 78.8327 110.016 78.654 109.956C78.0781 109.774 77.5344 109.503 77.043 109.152C76.989 109.116 76.941 109.08 76.89 109.041C76.09 108.436 75.4578 107.636 75.0532 106.718C74.6487 105.8 74.4853 104.794 74.5784 103.795C74.6716 102.796 75.0182 101.838 75.5855 101.01C76.1528 100.183 76.9219 99.5143 77.8201 99.0673C78.7182 98.6204 79.7155 98.4102 80.7177 98.4566C81.7198 98.5031 82.6934 98.8046 83.5464 99.3326C84.3993 99.8607 85.1034 100.598 85.5917 101.474C86.0801 102.35 86.3366 103.337 86.337 104.34L86.325 104.331Z" fill="white"/>
<path d="M80.4329 109.944C80.0878 109.945 79.7433 109.914 79.4039 109.851C79.3554 109.844 79.3074 109.834 79.2599 109.821C79.0807 109.784 78.9034 109.738 78.7289 109.683C78.1794 109.51 77.6609 109.251 77.1929 108.915C77.1389 108.879 77.0939 108.846 77.0489 108.81C76.353 108.29 75.7887 107.613 75.4011 106.836C75.0135 106.058 74.8134 105.2 74.8169 104.331C74.8158 103.38 75.056 102.445 75.5152 101.612C75.9745 100.779 76.6376 100.077 77.4424 99.5705C78.2472 99.0642 79.1675 98.7705 80.1168 98.717C81.0662 98.6635 82.0136 98.8519 82.8702 99.2645C83.7269 99.6772 84.4647 100.301 85.0146 101.076C85.5645 101.852 85.9084 102.755 86.0141 103.7C86.1198 104.645 85.9839 105.601 85.619 106.479C85.2541 107.357 84.6722 108.128 83.9279 108.72C83.9 108.747 83.8699 108.772 83.8379 108.795C82.8592 109.54 81.6631 109.944 80.4329 109.944Z" fill="white"/>
<path d="M78.642 109.947C78.0661 109.765 77.5224 109.494 77.031 109.143C77.4367 109.129 77.8387 109.225 78.195 109.419C78.2605 109.456 78.321 109.502 78.375 109.554C78.4965 109.66 78.5885 109.795 78.642 109.947Z" fill="#263238"/>
<path d="M84.0991 108.939C84.0672 108.969 84.0332 108.998 83.9971 109.023C83.61 109.32 83.1866 109.566 82.7371 109.755C81.6698 110.211 80.4907 110.34 79.3501 110.124C79.2998 110.118 79.2497 110.11 79.2001 110.1C79.0153 110.064 78.8329 110.016 78.6541 109.956C78.0782 109.774 77.5346 109.503 77.0431 109.152C76.9891 109.116 76.9411 109.08 76.8901 109.041C77.3071 108.951 77.8321 108.855 78.3691 108.795L78.5371 108.777C79.6477 108.706 80.7612 108.692 81.8731 108.735H82.0111C82.5781 108.759 83.1481 108.819 83.6071 108.879L84.0991 108.939Z" fill="#263238"/>
<path d="M84 109.023C83.6128 109.32 83.1894 109.566 82.74 109.755C82.8836 109.548 83.0709 109.375 83.2886 109.249C83.5063 109.122 83.7492 109.045 84 109.023Z" fill="#263238"/>
<path d="M82.011 108.726C82.011 108.726 81.768 109.641 79.806 109.71C79.6369 109.828 79.4836 109.967 79.35 110.124C79.2997 110.118 79.2496 110.11 79.2 110.1C79.1757 109.971 79.1587 109.841 79.149 109.71C78.8888 109.704 78.6314 109.656 78.387 109.566C78.3161 109.538 78.254 109.491 78.207 109.431C78.003 109.152 78.549 108.777 78.549 108.777C79.563 108.522 79.731 107.877 79.65 107.196C79.6424 107.11 79.6304 107.025 79.614 106.941C79.614 106.869 79.59 106.8 79.572 106.731C79.572 106.713 79.572 106.698 79.572 106.683L80.832 105.6L81.219 105.27L81.759 104.805C81.759 104.823 81.759 104.841 81.759 104.859C81.732 104.991 81.702 105.132 81.678 105.285C81.441 106.443 81.333 108.084 82.011 108.726Z" fill="#CE7A63"/>
<path opacity="0.2" d="M79.5481 106.671C79.5909 106.84 79.621 107.011 79.6381 107.184C80.1151 107.079 80.7421 106.563 80.7991 106.074C80.8167 105.912 80.8167 105.75 80.7991 105.588L79.5481 106.671Z" fill="black"/>
<path d="M78.6 100.908C77.844 101.265 77.46 103.413 78.435 103.854C79.41 104.295 80.013 100.233 78.6 100.908Z" fill="#263238"/>
<path d="M82.0921 103.164C81.7921 104.664 81.6931 105.564 80.8171 106.26C80.5359 106.491 80.197 106.64 79.837 106.692C79.477 106.743 79.1097 106.696 78.7749 106.553C78.4402 106.411 78.1507 106.18 77.938 105.885C77.7253 105.59 77.5973 105.243 77.5681 104.88C77.4271 103.488 77.9431 101.259 79.5121 100.809C79.8495 100.703 80.2089 100.687 80.5544 100.763C80.8998 100.839 81.2192 101.005 81.4805 101.243C81.7418 101.482 81.9358 101.785 82.0431 102.122C82.1505 102.459 82.1674 102.818 82.0921 103.164Z" fill="#CE7A63"/>
<path d="M80.6401 101.352L80.7151 100.038C81.0482 100.191 81.4207 100.235 81.7801 100.164C83.3251 99.786 84.5191 100.764 83.8051 101.646C84.5401 101.946 84.1441 102.963 83.6581 103.605C82.9861 104.505 82.2631 104.922 81.7621 104.526C81.3121 104.31 81.2281 102.762 81.3721 102.186C81.6001 101.322 80.6401 101.352 80.6401 101.352Z" fill="#263238"/>
<path d="M82.464 104.721C82.2268 105.018 81.8939 105.224 81.522 105.303C81.051 105.393 80.937 104.958 81.168 104.529C81.399 104.1 81.876 103.629 82.302 103.74C82.728 103.851 82.764 104.349 82.464 104.721Z" fill="#CE7A63"/>
<path d="M79.728 103.353C79.713 103.476 79.632 103.569 79.551 103.56C79.47 103.551 79.419 103.446 79.437 103.323C79.455 103.2 79.533 103.107 79.614 103.116C79.695 103.125 79.746 103.23 79.728 103.353Z" fill="#263238"/>
<path d="M78.33 103.2C78.315 103.323 78.234 103.416 78.153 103.407C78.072 103.398 78.021 103.293 78.039 103.17C78.057 103.047 78.135 102.951 78.216 102.96C78.297 102.969 78.348 103.086 78.33 103.2Z" fill="#263238"/>
<path d="M78.768 103.317C78.5676 103.68 78.3194 104.014 78.03 104.31C78.1073 104.38 78.1991 104.431 78.2987 104.461C78.3984 104.49 78.5033 104.497 78.606 104.481L78.768 103.317Z" fill="#BA4D3C"/>
<path d="M80.223 102.948C80.2347 102.952 80.2473 102.952 80.259 102.948C80.2752 102.938 80.2871 102.922 80.2921 102.904C80.2971 102.885 80.2949 102.866 80.286 102.849C80.23 102.748 80.1501 102.663 80.0534 102.6C79.9566 102.537 79.8459 102.499 79.731 102.489C79.7213 102.489 79.7116 102.49 79.7025 102.494C79.6934 102.497 79.6852 102.502 79.6781 102.509C79.6711 102.516 79.6656 102.524 79.6618 102.533C79.658 102.542 79.656 102.551 79.656 102.561C79.656 102.58 79.6635 102.599 79.6769 102.613C79.6903 102.627 79.7086 102.635 79.728 102.636C79.8174 102.645 79.9032 102.675 79.978 102.725C80.0528 102.775 80.1143 102.842 80.157 102.921C80.1651 102.93 80.1753 102.938 80.1867 102.942C80.1982 102.947 80.2107 102.949 80.223 102.948Z" fill="#263238"/>
<path d="M77.7961 102.672C77.8078 102.671 77.8191 102.667 77.8295 102.662C77.8398 102.656 77.8488 102.648 77.8561 102.639C77.9029 102.557 77.9687 102.486 78.048 102.434C78.1272 102.382 78.2178 102.349 78.3121 102.339C78.3314 102.338 78.3498 102.33 78.3632 102.316C78.3766 102.302 78.3841 102.283 78.3841 102.264C78.3826 102.245 78.3741 102.227 78.3603 102.214C78.3465 102.2 78.3282 102.193 78.3091 102.192C78.1921 102.202 78.079 102.239 77.9789 102.3C77.8789 102.362 77.7947 102.446 77.7331 102.546C77.7276 102.554 77.7238 102.563 77.7219 102.572C77.72 102.581 77.72 102.591 77.722 102.6C77.7239 102.609 77.7278 102.618 77.7333 102.626C77.7389 102.634 77.7459 102.64 77.7541 102.645C77.7644 102.659 77.7793 102.668 77.7961 102.672Z" fill="#263238"/>
<path d="M81.873 100.329C81.873 100.329 80.649 98.316 78.666 98.877C78.8647 98.9055 79.0562 98.9717 79.23 99.072C79.23 99.072 77.463 99.042 76.998 100.311L77.322 100.092C77.322 100.092 76.944 101.145 77.514 101.784L77.589 101.439C77.589 101.439 78.369 102.282 79.425 101.955L79.041 101.793C79.041 101.793 80.886 101.61 81.315 101.106C81.53 100.869 81.7172 100.608 81.873 100.329Z" fill="#263238"/>
<path d="M78.3301 104.916C78.9385 104.75 79.5612 104.641 80.1901 104.592C80.1371 104.841 80.0004 105.064 79.8027 105.224C79.605 105.384 79.3584 105.471 79.1041 105.471C79.0164 105.489 78.926 105.489 78.8385 105.47C78.751 105.452 78.6683 105.415 78.5956 105.363C78.5228 105.311 78.4617 105.244 78.416 105.167C78.3703 105.09 78.3411 105.005 78.3301 104.916Z" fill="#263238"/>
<path d="M79.3949 105.108C79.1205 105.127 78.859 105.232 78.6479 105.408C78.7889 105.478 78.9479 105.504 79.1039 105.483C79.3775 105.465 79.6381 105.36 79.8479 105.183C79.709 105.11 79.5501 105.084 79.3949 105.108Z" fill="#A02724"/>
<path d="M78.3931 104.898C78.4138 104.946 78.4468 104.989 78.4889 105.02C78.5311 105.052 78.5808 105.072 78.6331 105.078C79.039 105.031 79.4403 104.951 79.8331 104.838C79.8991 104.826 79.9612 104.798 80.0136 104.756C80.066 104.714 80.1071 104.66 80.1331 104.598C79.5461 104.652 78.9643 104.753 78.3931 104.898Z" fill="white"/>
<path d="M107.376 109.938C107.137 109.938 106.899 109.923 106.662 109.893C106.275 109.844 105.893 109.753 105.525 109.623C105.109 109.48 104.712 109.286 104.343 109.047C104.191 108.951 104.045 108.846 103.905 108.732L103.827 108.669L103.725 108.582C103.656 108.525 103.602 108.474 103.548 108.423C102.74 107.667 102.173 106.689 101.919 105.611C101.666 104.534 101.736 103.405 102.122 102.368C102.507 101.331 103.191 100.43 104.087 99.7804C104.983 99.1306 106.051 98.7601 107.157 98.7157C108.263 98.6712 109.358 98.9547 110.303 99.5306C111.248 100.106 112.002 100.949 112.47 101.952C112.938 102.955 113.098 104.074 112.932 105.169C112.765 106.263 112.279 107.283 111.534 108.102H111.375V108.27C111.276 108.369 111.177 108.462 111.075 108.543C111.052 108.566 111.028 108.588 111.003 108.609C110.763 108.816 110.503 108.999 110.229 109.158H110.022V109.275C109.282 109.673 108.461 109.897 107.622 109.932L107.376 109.938Z" fill="white"/>
<path d="M111.651 108.381C111.527 108.514 111.395 108.64 111.255 108.756L111.189 108.816C110.915 109.051 110.619 109.258 110.304 109.434C109.487 109.905 108.567 110.17 107.625 110.205C107.294 110.233 106.96 110.218 106.632 110.163C106.223 110.112 105.821 110.017 105.432 109.881C104.996 109.732 104.58 109.531 104.193 109.281C104.153 108.994 104.193 108.701 104.307 108.435C104.329 108.38 104.354 108.326 104.382 108.273C104.381 108.264 104.381 108.255 104.382 108.246C104.41 108.189 104.442 108.134 104.478 108.081C104.269 108.002 104.085 107.866 103.949 107.689C103.813 107.511 103.729 107.299 103.707 107.076C103.633 106.549 103.76 106.014 104.061 105.576C104.061 105.576 103.485 105.465 103.344 104.448C103.286 104.184 103.31 103.908 103.414 103.658C103.517 103.408 103.695 103.196 103.923 103.05C103.599 101.85 104.556 101.481 104.556 101.481C104.664 100.305 105.897 100.5 105.897 100.5C105.897 100.5 106.362 99.6 107.736 100.29C107.736 100.29 108.216 99.825 109.236 100.29C109.472 100.405 109.679 100.574 109.84 100.782C110.001 100.99 110.111 101.232 110.163 101.49C112.029 102.204 111.246 103.851 111.246 103.851C112.146 105.261 111.246 106.209 111.246 106.209C112.026 107.364 111.813 108.081 111.651 108.381Z" fill="#263238"/>
<path d="M105.459 109.818L105.432 109.887C104.996 109.738 104.58 109.537 104.193 109.287C104.031 109.186 103.876 109.074 103.728 108.954C103.728 108.954 103.728 108.954 103.713 108.954C103.651 108.909 103.591 108.86 103.536 108.807C103.473 108.756 103.413 108.702 103.353 108.645C103.432 108.503 103.562 108.396 103.716 108.345H103.782C103.911 108.32 104.041 108.304 104.172 108.3H104.298H104.385C104.628 108.306 104.862 108.395 105.048 108.552C105.095 108.591 105.139 108.633 105.18 108.678C105.295 108.807 105.395 108.948 105.48 109.098C105.565 109.332 105.557 109.589 105.459 109.818Z" fill="#D3345D"/>
<g opacity="0.7">
<path d="M105.459 109.818L105.432 109.887C104.996 109.738 104.58 109.537 104.193 109.287C104.031 109.186 103.876 109.074 103.728 108.954C103.728 108.954 103.728 108.954 103.713 108.954C103.651 108.909 103.591 108.86 103.536 108.807C103.473 108.756 103.413 108.702 103.353 108.645C103.432 108.503 103.562 108.396 103.716 108.345H103.782C103.911 108.32 104.041 108.304 104.172 108.3H104.298H104.385C104.628 108.306 104.862 108.395 105.048 108.552C105.095 108.591 105.139 108.633 105.18 108.678C105.295 108.807 105.395 108.948 105.48 109.098C105.565 109.332 105.557 109.589 105.459 109.818Z" fill="white"/>
</g>
<path opacity="0.2" d="M103.728 108.948C103.728 108.948 103.728 108.948 103.713 108.948V108.906L103.728 108.948Z" fill="black"/>
<path d="M111.255 108.759L111.189 108.819C110.915 109.054 110.618 109.261 110.304 109.437C109.487 109.908 108.567 110.173 107.625 110.208C107.293 110.236 106.96 110.221 106.632 110.166C106.223 110.115 105.821 110.02 105.432 109.884C104.996 109.735 104.58 109.534 104.193 109.284C104.031 109.183 103.876 109.071 103.728 108.951C103.728 108.951 103.728 108.951 103.713 108.951C103.65 108.906 103.591 108.857 103.536 108.804C103.534 108.795 103.534 108.786 103.536 108.777C103.537 108.767 103.537 108.757 103.536 108.747V108.696C103.557 108.584 103.597 108.477 103.653 108.378L103.674 108.354H103.74H103.842L104.142 108.321H104.259H104.358H104.463H104.583H104.688H104.811C104.862 108.321 104.91 108.321 104.961 108.321H105.069H105.201C105.273 108.321 105.348 108.321 105.423 108.321L105.63 108.306C105.828 108.306 106.032 108.285 106.23 108.282H106.272C107.017 108.281 107.762 108.329 108.501 108.426C108.663 108.441 108.831 108.465 108.999 108.483L109.221 108.516L109.398 108.54L109.656 108.582L109.854 108.615L109.965 108.639C110.121 108.666 110.265 108.696 110.412 108.726L110.595 108.768H110.631L110.781 108.801L111.255 108.759Z" fill="#D3345D"/>
<g opacity="0.7">
<path d="M111.255 108.759L111.189 108.819C110.915 109.054 110.619 109.261 110.304 109.437C109.487 109.908 108.568 110.173 107.625 110.208C107.294 110.236 106.96 110.221 106.632 110.166C106.223 110.115 105.821 110.02 105.432 109.884C104.996 109.735 104.58 109.534 104.193 109.284C104.031 109.183 103.876 109.071 103.728 108.951C103.728 108.951 103.728 108.951 103.713 108.951C103.651 108.906 103.591 108.857 103.536 108.804C103.538 108.794 103.538 108.784 103.536 108.774C103.537 108.764 103.537 108.754 103.536 108.744V108.693C103.557 108.581 103.597 108.474 103.653 108.375L103.674 108.351H103.74H103.842C103.917 108.351 104.016 108.33 104.142 108.318H104.259H104.361H104.463H104.583H104.688H104.811C104.862 108.318 104.91 108.318 104.961 108.318H105.069H105.168H105.204H105.426H105.63C105.828 108.318 106.032 108.297 106.23 108.294H106.272C107.017 108.293 107.762 108.341 108.501 108.438C108.663 108.453 108.831 108.477 108.999 108.495L109.221 108.528L109.398 108.552L109.656 108.594L109.854 108.627L109.965 108.651C110.121 108.678 110.265 108.708 110.412 108.738L110.595 108.78H110.631L110.781 108.813L111.255 108.759Z" fill="white"/>
</g>
<path d="M108.627 105.3C108.39 106.176 108.096 107.796 108.675 108.435C108.675 108.435 108.375 109.335 106.71 109.203C104.889 109.068 105.906 108.234 105.906 108.234C106.917 108.069 106.944 107.334 106.824 106.626L108.627 105.3Z" fill="#EBB376"/>
<path opacity="0.2" d="M107.892 105.852L106.824 106.638C106.855 106.802 106.871 106.969 106.872 107.136C107.256 107.109 107.808 106.728 107.877 106.335C107.913 106.176 107.918 106.013 107.892 105.852Z" fill="black"/>
<path d="M108.9 103.149C108.858 104.649 108.87 105.276 108.141 106.065C107.046 107.265 105.222 106.872 104.82 105.396C104.454 104.067 104.589 101.85 106.02 101.196C106.338 101.051 106.688 100.99 107.036 101.019C107.385 101.049 107.72 101.167 108.009 101.363C108.298 101.56 108.532 101.827 108.688 102.14C108.844 102.452 108.917 102.8 108.9 103.149Z" fill="#EBB376"/>
<path d="M105.03 101.679C104.685 102.444 109.86 103.977 109.092 102.498C108.324 101.019 105.927 99.684 105.03 101.679Z" fill="#263238"/>
<path d="M107.733 102.798C107.76 103.515 108.846 104.151 108.846 104.151C108.846 104.151 109.842 103.044 109.008 102.732C108.174 102.42 107.733 102.798 107.733 102.798Z" fill="#263238"/>
<path d="M106.446 103.641C106.446 103.764 106.386 103.863 106.308 103.866C106.23 103.869 106.161 103.773 106.158 103.65C106.155 103.527 106.215 103.428 106.293 103.428C106.371 103.428 106.44 103.521 106.446 103.641Z" fill="#263238"/>
<path d="M105.072 103.686C105.072 103.806 105.015 103.908 104.937 103.911C104.859 103.914 104.79 103.815 104.787 103.695C104.784 103.575 104.844 103.473 104.922 103.47C105 103.467 105.069 103.563 105.072 103.686Z" fill="#263238"/>
<path d="M104.958 103.476L104.658 103.401C104.658 103.401 104.82 103.623 104.958 103.476Z" fill="#263238"/>
<path d="M105.6 103.872C105.501 104.152 105.363 104.418 105.192 104.661C105.255 104.703 105.327 104.731 105.402 104.742C105.477 104.753 105.554 104.748 105.627 104.727L105.6 103.872Z" fill="#D58745"/>
<path d="M109.35 104.505C109.305 104.641 109.233 104.766 109.138 104.873C109.044 104.981 108.929 105.069 108.801 105.132C108.459 105.3 108.216 105.006 108.255 104.646C108.294 104.286 108.513 103.842 108.885 103.827C108.967 103.825 109.048 103.843 109.121 103.88C109.194 103.917 109.256 103.972 109.302 104.039C109.349 104.107 109.377 104.185 109.386 104.266C109.394 104.347 109.382 104.43 109.35 104.505Z" fill="#EBB376"/>
<path d="M106.986 103.344C106.971 103.347 106.956 103.345 106.942 103.339C106.929 103.332 106.918 103.321 106.911 103.308C106.842 103.214 106.754 103.136 106.654 103.077C106.553 103.018 106.442 102.98 106.326 102.966C106.307 102.964 106.29 102.954 106.279 102.94C106.267 102.925 106.261 102.907 106.263 102.888C106.266 102.869 106.276 102.852 106.291 102.841C106.306 102.829 106.325 102.823 106.344 102.825C106.482 102.842 106.615 102.887 106.734 102.958C106.854 103.03 106.957 103.125 107.037 103.239C107.046 103.256 107.047 103.276 107.042 103.295C107.036 103.313 107.024 103.329 107.007 103.338L106.986 103.344Z" fill="#263238"/>
<path d="M104.64 103.065C104.628 103.068 104.615 103.067 104.604 103.063C104.592 103.058 104.582 103.051 104.574 103.041C104.568 103.035 104.562 103.027 104.559 103.018C104.555 103.01 104.553 103.001 104.553 102.992C104.553 102.982 104.555 102.973 104.559 102.965C104.562 102.956 104.568 102.948 104.574 102.942C104.657 102.865 104.757 102.809 104.866 102.779C104.976 102.749 105.091 102.746 105.201 102.771C105.219 102.776 105.235 102.788 105.244 102.804C105.254 102.82 105.257 102.84 105.252 102.858C105.247 102.876 105.234 102.891 105.218 102.899C105.202 102.908 105.183 102.911 105.165 102.906C105.077 102.889 104.985 102.893 104.899 102.918C104.812 102.943 104.733 102.988 104.667 103.05C104.659 103.057 104.65 103.062 104.64 103.065Z" fill="#263238"/>
<path d="M106.329 103.431L106.029 103.356C106.029 103.356 106.2 103.581 106.329 103.431Z" fill="#263238"/>
<path d="M105.921 105.177C106.059 105.337 106.186 105.506 106.299 105.684C106.334 105.671 106.368 105.656 106.401 105.639C106.866 105.435 107.001 105.186 107.034 104.973C107.048 104.809 107.001 104.646 106.902 104.514C106.673 104.771 106.392 104.975 106.077 105.114L105.921 105.177Z" fill="#263238"/>
<path d="M106.077 105.105L106.194 105.252C106.629 105.057 106.911 104.862 106.989 104.67C106.967 104.614 106.938 104.562 106.902 104.514C106.672 104.768 106.391 104.969 106.077 105.105Z" fill="white"/>
<path d="M106.401 105.639C106.866 105.435 107.001 105.186 107.034 104.973C106.861 105.056 106.702 105.167 106.566 105.303C106.478 105.395 106.42 105.513 106.401 105.639Z" fill="#DE5753"/>
<path d="M110.832 108.651C110.348 109.11 109.796 109.491 109.194 109.779L109.011 109.86C108.569 110.049 108.1 110.167 107.622 110.211C107.291 110.239 106.957 110.224 106.629 110.169L106.539 110.154C106.166 110.088 105.803 109.975 105.459 109.818C105.228 109.714 105.015 109.575 104.826 109.407C104.778 109.362 104.733 109.317 104.691 109.269C104.479 109.038 104.345 108.746 104.307 108.435C104.303 108.379 104.303 108.323 104.307 108.267H104.409H104.511H104.631H104.736H104.859C104.91 108.267 104.958 108.267 105.009 108.267H105.117H105.216H105.252H105.474H105.678C105.876 108.267 106.08 108.246 106.278 108.243H106.32C107.065 108.242 107.81 108.29 108.549 108.387C108.711 108.402 108.879 108.426 109.047 108.444L109.269 108.477L109.446 108.501L109.704 108.543L109.902 108.576L110.013 108.6C110.169 108.627 110.313 108.657 110.46 108.687L110.643 108.729H110.679L110.832 108.651Z" fill="#EBB376"/>
<path d="M109.2 109.779L109.02 109.86C109.056 109.353 109.142 108.85 109.278 108.36L109.455 108.384C109.329 108.841 109.243 109.307 109.2 109.779Z" fill="#263238"/>
<path d="M105.474 108.159C105.212 108.55 104.995 108.968 104.826 109.407C104.778 109.362 104.733 109.317 104.691 109.269C104.844 108.886 105.031 108.519 105.252 108.171L105.474 108.159Z" fill="#263238"/>
<path d="M111.189 108.819C110.915 109.054 110.619 109.261 110.304 109.437C110.515 109.131 110.829 108.912 111.189 108.819Z" fill="#D3345D"/>
<g opacity="0.7">
<path d="M111.189 108.819C110.915 109.054 110.619 109.261 110.304 109.437C110.515 109.131 110.829 108.912 111.189 108.819Z" fill="white"/>
</g>
<g opacity="0.2">
<path d="M109.2 109.779L109.02 109.86C109.056 109.353 109.142 108.85 109.278 108.36L109.455 108.384C109.329 108.841 109.243 109.307 109.2 109.779Z" fill="white"/>
</g>
<g opacity="0.2">
<path d="M105.474 108.159C105.212 108.55 104.995 108.968 104.826 109.407C104.778 109.362 104.733 109.317 104.691 109.269C104.844 108.886 105.031 108.519 105.252 108.171L105.474 108.159Z" fill="white"/>
</g>
<path opacity="0.5" d="M113.274 104.325C113.277 105.836 112.695 107.289 111.651 108.381C111.527 108.514 111.395 108.64 111.255 108.756L111.189 108.816C110.915 109.051 110.619 109.258 110.304 109.434C109.487 109.905 108.568 110.17 107.625 110.205H107.379C107.129 110.204 106.88 110.188 106.632 110.157C106.223 110.106 105.821 110.011 105.432 109.875C104.996 109.726 104.58 109.525 104.193 109.275C104.032 109.174 103.876 109.062 103.728 108.942C103.728 108.942 103.728 108.942 103.713 108.942C103.651 108.897 103.592 108.848 103.536 108.795C103.473 108.744 103.413 108.69 103.353 108.633C102.641 107.965 102.106 107.13 101.797 106.203C101.487 105.277 101.413 104.288 101.581 103.326C101.748 102.363 102.152 101.458 102.757 100.691C103.361 99.9234 104.147 99.3184 105.043 98.9302C105.939 98.5419 106.918 98.3826 107.891 98.4664C108.864 98.5503 109.801 98.8748 110.618 99.4107C111.435 99.9467 112.105 100.677 112.569 101.537C113.033 102.396 113.277 103.357 113.277 104.334L113.274 104.325Z" fill="white"/>
<path opacity="0.5" d="M99.798 104.331C99.799 105.207 99.6039 106.072 99.227 106.862C98.8501 107.653 98.301 108.349 97.62 108.9C97.497 109.005 97.371 109.098 97.242 109.2C96.9442 109.407 96.6266 109.584 96.294 109.728C95.8789 109.914 95.4427 110.049 94.995 110.13L94.884 110.151C94.5607 110.204 94.2336 110.231 93.906 110.232C93.4873 110.233 93.0698 110.188 92.661 110.097C92.4094 110.044 92.1618 109.974 91.92 109.887C91.6341 109.786 91.3571 109.662 91.092 109.515C91.0344 109.486 90.9783 109.454 90.924 109.419L90.816 109.356L90.732 109.299C90.5727 109.202 90.4204 109.093 90.276 108.975C90.1819 108.905 90.0918 108.83 90.006 108.75L89.94 108.69C89.216 108.029 88.6683 107.198 88.3465 106.272C88.0247 105.346 87.9391 104.355 88.0973 103.387C88.2555 102.42 88.6525 101.507 89.2525 100.732C89.8525 99.9567 90.6364 99.3435 91.5332 98.9477C92.43 98.5519 93.4114 98.3862 94.3885 98.4654C95.3655 98.5447 96.3074 98.8665 97.1287 99.4017C97.95 99.9368 98.6248 100.668 99.0919 101.53C99.5591 102.392 99.8038 103.357 99.804 104.337L99.798 104.331Z" fill="white"/>
<path d="M93.9 109.944C93.5017 109.945 93.1043 109.903 92.715 109.818C92.4755 109.768 92.2399 109.701 92.0101 109.617C91.7373 109.521 91.4725 109.403 91.218 109.266L91.059 109.173C91.0349 109.161 91.0118 109.147 90.99 109.131L90.957 109.113L90.8851 109.065C90.7329 108.973 90.5857 108.873 90.4441 108.765C90.3561 108.699 90.272 108.628 90.1921 108.552L90.111 108.477C89.2709 107.705 88.6858 106.696 88.4337 105.584C88.1816 104.471 88.2745 103.308 88.6999 102.25C89.1253 101.191 89.8631 100.288 90.8151 99.6591C91.767 99.0305 92.8878 98.7069 94.0283 98.7314C95.1687 98.7558 96.2747 99.1272 97.1988 99.796C98.1229 100.465 98.8213 101.399 99.2009 102.475C99.5806 103.551 99.6235 104.716 99.3239 105.817C99.0243 106.918 98.3965 107.901 97.524 108.636L97.44 108.702C97.326 108.798 97.209 108.885 97.083 108.972C96.7996 109.168 96.4982 109.337 96.183 109.476C95.7869 109.653 95.3709 109.78 94.9441 109.857L94.725 109.896C94.4517 109.933 94.1759 109.949 93.9 109.944Z" fill="white"/>
<path d="M90.5311 104.4C90.6149 105.019 90.6149 105.647 90.5311 106.266C90.5311 106.266 94.2841 106.785 95.1961 106.092C96.1081 105.399 96.5101 101.268 94.4791 100.872C92.4481 100.476 90.0511 101.862 90.5311 104.4Z" fill="#263238"/>
<path d="M97.2392 109.2C96.9413 109.407 96.6238 109.584 96.2912 109.728C95.876 109.914 95.4398 110.049 94.9922 110.13L94.8812 110.151C94.5578 110.204 94.2308 110.231 93.9032 110.232C93.4845 110.233 93.0669 110.188 92.6582 110.097C92.4066 110.044 92.159 109.974 91.9172 109.887C91.6312 109.786 91.3542 109.662 91.0892 109.515C91.0315 109.486 90.9755 109.454 90.9212 109.419L90.8132 109.356L90.7292 109.299C90.5699 109.202 90.4175 109.093 90.2732 108.975C90.1791 108.905 90.0889 108.83 90.0032 108.75C90.2132 108.689 90.4265 108.64 90.6422 108.603C90.8312 108.567 91.0052 108.549 91.1522 108.534H91.3712C91.4372 108.534 91.4942 108.534 91.5362 108.534H91.6232C91.6232 108.567 91.6232 108.6 91.6232 108.63C91.5932 108.749 91.6089 108.875 91.6673 108.982C91.7256 109.09 91.8223 109.172 91.9382 109.212C92.3775 109.304 92.8338 109.271 93.2552 109.116C93.3692 109.083 93.4832 109.05 93.5972 109.011C94.064 108.856 94.5217 108.675 94.9682 108.468L95.1842 108.366H95.2952C95.6128 108.365 95.9287 108.413 96.2312 108.51H96.2552C96.6434 108.639 96.9854 108.879 97.2392 109.2Z" fill="#D3345D"/>
<path opacity="0.7" d="M97.2392 109.2C96.9413 109.407 96.6238 109.584 96.2912 109.728C95.876 109.914 95.4398 110.049 94.9922 110.13L94.8812 110.151C94.5578 110.204 94.2308 110.231 93.9032 110.232C93.4845 110.233 93.0669 110.188 92.6582 110.097C92.4066 110.044 92.159 109.974 91.9172 109.887C91.6312 109.786 91.3542 109.662 91.0892 109.515C91.0315 109.486 90.9755 109.454 90.9212 109.419L90.8132 109.356L90.7292 109.299C90.5699 109.202 90.4175 109.093 90.2732 108.975C90.1791 108.905 90.0889 108.83 90.0032 108.75C90.2132 108.689 90.4265 108.64 90.6422 108.603C90.8312 108.567 91.0052 108.549 91.1522 108.534H91.3712C91.4372 108.534 91.4942 108.534 91.5362 108.534H91.6232C91.6232 108.567 91.6232 108.6 91.6232 108.63C91.5932 108.749 91.6089 108.875 91.6673 108.982C91.7256 109.09 91.8223 109.172 91.9382 109.212C92.3775 109.304 92.8338 109.271 93.2552 109.116C93.3692 109.083 93.4832 109.05 93.5972 109.011C94.064 108.856 94.5217 108.675 94.9682 108.468L95.1842 108.366H95.2952C95.6128 108.365 95.9287 108.413 96.2312 108.51H96.2552C96.6434 108.639 96.9854 108.879 97.2392 109.2Z" fill="white"/>
<path d="M93.4621 109.095H93.2491C93.0756 109.443 92.875 109.777 92.6491 110.094C92.3975 110.041 92.1499 109.971 91.9081 109.884C91.8654 109.691 91.8737 109.491 91.9321 109.302C90.7321 109.2 91.2271 108.816 91.6081 108.609C91.7611 108.528 91.8931 108.474 91.8931 108.474C92.1824 108.42 92.4495 108.282 92.6611 108.078C92.8754 107.829 92.9832 107.506 92.9611 107.178C92.9611 107.133 92.9611 107.088 92.9611 107.043C92.954 106.918 92.9379 106.794 92.9131 106.671C92.9145 106.657 92.9145 106.643 92.9131 106.629L93.1141 106.467L94.1011 105.675L94.8871 105.045L94.9201 105.018C94.9185 105.036 94.9185 105.054 94.9201 105.072C94.8601 105.288 94.7971 105.546 94.7491 105.819C94.7311 105.9 94.7161 105.984 94.7041 106.068C94.6877 106.153 94.6757 106.239 94.6681 106.326C94.6681 106.383 94.6501 106.443 94.6441 106.497C94.5792 106.97 94.5945 107.451 94.6891 107.919C94.7351 108.117 94.8277 108.301 94.9591 108.456L94.9801 108.48C94.9801 108.48 95.8141 109.131 93.4621 109.095Z" fill="#EEC1BB"/>
<path opacity="0.2" d="M94.116 105.657L92.916 106.611C92.9502 106.792 92.9682 106.976 92.97 107.16C93.396 107.097 94.011 106.635 94.089 106.194C94.1298 106.018 94.139 105.836 94.116 105.657Z" fill="black"/>
<path d="M95.7811 103.011C95.4811 104.61 95.3881 105.291 94.4761 106.059C93.1021 107.214 91.2151 106.602 91.0321 104.973C90.8701 103.503 91.3891 101.133 93.0391 100.605C93.3893 100.484 93.7652 100.458 94.1287 100.53C94.4922 100.601 94.8303 100.767 95.1087 101.012C95.3872 101.256 95.596 101.57 95.7141 101.921C95.8322 102.272 95.8553 102.648 95.7811 103.011Z" fill="#EEC1BB"/>
<path d="M94.4071 101.853C95.2891 102.993 93.4741 104.304 95.2891 104.229C97.1041 104.154 96.3661 101.589 95.2891 101.007C94.2121 100.425 94.4071 101.853 94.4071 101.853Z" fill="#263238"/>
<path d="M93.246 103.275C93.228 103.413 93.141 103.515 93.054 103.509C92.967 103.503 92.913 103.389 92.934 103.254C92.955 103.119 93.039 103.014 93.126 103.02C93.213 103.026 93.267 103.14 93.246 103.275Z" fill="#263238"/>
<path d="M91.611 103.179C91.593 103.314 91.506 103.419 91.419 103.413C91.332 103.407 91.278 103.293 91.299 103.158C91.32 103.023 91.404 102.918 91.491 102.924C91.578 102.93 91.632 103.044 91.611 103.179Z" fill="#263238"/>
<path d="M91.5271 102.933L91.2271 102.816C91.2271 102.816 91.3501 103.083 91.5271 102.933Z" fill="#263238"/>
<path d="M92.0341 103.434C91.8701 103.735 91.6685 104.015 91.4341 104.265C91.4966 104.32 91.5706 104.359 91.6506 104.381C91.7306 104.403 91.8146 104.406 91.8961 104.391L92.0341 103.434Z" fill="#D4827D"/>
<path d="M92.5891 104.946C92.5143 104.954 92.4389 104.954 92.3641 104.946C92.3591 104.946 92.3542 104.944 92.3497 104.942C92.3453 104.94 92.3414 104.936 92.3383 104.932C92.3352 104.928 92.3329 104.924 92.3317 104.919C92.3304 104.914 92.3302 104.909 92.3311 104.904C92.3326 104.893 92.3381 104.884 92.3464 104.877C92.3548 104.87 92.3654 104.867 92.3761 104.868C92.5456 104.881 92.7159 104.856 92.8742 104.794C93.0326 104.732 93.1751 104.635 93.2911 104.511C93.2947 104.507 93.2991 104.504 93.3041 104.502C93.309 104.5 93.3142 104.499 93.3196 104.499C93.3249 104.499 93.3302 104.5 93.3351 104.502C93.34 104.504 93.3444 104.507 93.3481 104.511C93.3551 104.518 93.3589 104.528 93.3589 104.538C93.3589 104.548 93.3551 104.558 93.3481 104.565C93.15 104.78 92.8801 104.916 92.5891 104.946Z" fill="#263238"/>
<path d="M93.7022 102.549C93.692 102.549 93.682 102.547 93.6727 102.543C93.6634 102.538 93.6551 102.532 93.6482 102.525C93.5855 102.451 93.505 102.394 93.4143 102.359C93.3235 102.324 93.2254 102.313 93.1292 102.327C93.1193 102.329 93.1092 102.328 93.0994 102.326C93.0897 102.324 93.0805 102.32 93.0724 102.314C93.0643 102.308 93.0574 102.301 93.0522 102.292C93.047 102.283 93.0436 102.274 93.0422 102.264C93.0395 102.242 93.0451 102.22 93.0579 102.202C93.0706 102.185 93.0897 102.172 93.1112 102.168C93.2325 102.151 93.3562 102.165 93.4709 102.208C93.5857 102.251 93.6878 102.321 93.7682 102.414C93.7823 102.429 93.7902 102.449 93.7902 102.47C93.7902 102.49 93.7823 102.51 93.7682 102.525C93.7594 102.533 93.7491 102.54 93.7377 102.544C93.7263 102.548 93.7142 102.55 93.7022 102.549Z" fill="#263238"/>
<path d="M91.2452 102.402C91.2354 102.404 91.2253 102.403 91.2159 102.4C91.2065 102.397 91.198 102.391 91.1912 102.384C91.1838 102.377 91.178 102.368 91.174 102.359C91.17 102.349 91.168 102.339 91.168 102.329C91.168 102.318 91.17 102.308 91.174 102.298C91.178 102.289 91.1838 102.28 91.1912 102.273C91.2738 102.175 91.3779 102.096 91.4954 102.044C91.6129 101.992 91.7408 101.968 91.8692 101.973C91.8894 101.977 91.9074 101.988 91.9192 102.005C91.931 102.022 91.9357 102.043 91.9322 102.063C91.9273 102.084 91.9152 102.102 91.8982 102.114C91.8812 102.127 91.8603 102.133 91.8392 102.132C91.7375 102.129 91.6366 102.15 91.5441 102.192C91.4516 102.234 91.3699 102.297 91.3052 102.375C91.2977 102.384 91.2885 102.39 91.2781 102.395C91.2678 102.4 91.2565 102.402 91.2452 102.402Z" fill="#263238"/>
<path d="M93.1621 103.029L92.8621 102.912C92.8621 102.912 93.0001 103.179 93.1621 103.029Z" fill="#263238"/>
<path d="M93.786 100.965C93.786 100.965 94.101 102.852 95.355 103.167C96.609 103.482 95.589 101.229 95.589 101.229C95.589 101.229 95.325 100.206 93.633 100.206C93.1339 100.231 92.6466 100.366 92.2061 100.602C91.7657 100.838 91.3832 101.169 91.0864 101.571C90.7895 101.973 90.5857 102.435 90.4896 102.926C90.3936 103.416 90.4077 103.922 90.531 104.406C90.4852 103.898 90.5829 103.388 90.813 102.933C91.2 102.273 91.572 102.834 93.786 100.965Z" fill="#263238"/>
<path d="M94.9261 100.5C96.7261 101.217 97.3651 102.39 97.2151 103.692C97.0651 104.994 95.4571 106.371 95.1961 106.419L94.3921 106.533C94.3921 106.533 95.6281 104.814 95.3911 104.232C95.1541 103.65 94.9141 103.59 94.9141 103.59L94.9261 100.5Z" fill="#263238"/>
<path d="M95.9371 104.553C95.8715 104.695 95.777 104.821 95.6598 104.925C95.5425 105.028 95.4051 105.106 95.2561 105.153C94.8841 105.252 94.7221 104.823 94.8481 104.397C94.9741 103.971 95.2861 103.497 95.6521 103.593C96.0181 103.689 96.1261 104.178 95.9371 104.553Z" fill="#EEC1BB"/>
<path d="M96.9 108.639C97.047 108.681 97.371 108.804 97.626 108.903C97.503 109.008 97.377 109.101 97.248 109.203C96.9501 109.41 96.6326 109.587 96.3 109.731C95.8848 109.917 95.4486 110.052 95.001 110.133C95.028 110.037 95.058 109.947 95.088 109.857C95.0902 109.838 95.0942 109.819 95.1 109.8L95.136 109.695V109.671C95.16 109.599 95.187 109.53 95.214 109.461C95.259 109.341 95.307 109.227 95.358 109.122C95.3721 109.087 95.3881 109.053 95.406 109.02C95.406 108.987 95.442 108.954 95.457 108.921C95.4578 108.915 95.4578 108.909 95.457 108.903C95.478 108.864 95.502 108.828 95.52 108.792L95.604 108.663C95.6632 108.58 95.7294 108.503 95.802 108.432L95.994 108.468L96.132 108.495C96.1569 108.492 96.182 108.492 96.207 108.495H96.231C96.2509 108.492 96.2711 108.492 96.291 108.495L96.591 108.555L96.657 108.57L96.828 108.609L96.9 108.639Z" fill="#263238"/>
<path opacity="0.2" d="M96.9 108.639C97.047 108.681 97.371 108.804 97.626 108.903C97.503 109.008 97.377 109.101 97.248 109.203C96.9501 109.41 96.6326 109.587 96.3 109.731C95.8848 109.917 95.4486 110.052 95.001 110.133C95.028 110.037 95.058 109.947 95.088 109.857C95.0902 109.838 95.0942 109.819 95.1 109.8L95.136 109.695V109.671C95.16 109.599 95.187 109.53 95.214 109.461C95.259 109.341 95.307 109.227 95.358 109.122C95.3721 109.087 95.3881 109.053 95.406 109.02C95.406 108.987 95.442 108.954 95.457 108.921C95.4578 108.915 95.4578 108.909 95.457 108.903C95.478 108.864 95.502 108.828 95.52 108.792L95.604 108.663C95.6632 108.58 95.7294 108.503 95.802 108.432L95.994 108.468L96.132 108.495C96.1569 108.492 96.182 108.492 96.207 108.495H96.231C96.2509 108.492 96.2711 108.492 96.291 108.495L96.591 108.555L96.657 108.57L96.828 108.609L96.9 108.639Z" fill="white"/>
<path d="M96.3001 109.719C95.885 109.905 95.4488 110.04 95.0011 110.121L94.8901 110.142C94.9231 110.028 94.9591 109.92 94.9951 109.815C95.11 109.465 95.2693 109.131 95.4691 108.822C95.5685 108.668 95.6898 108.53 95.8291 108.411C96.0224 108.833 96.18 109.271 96.3001 109.719Z" fill="#263238"/>
<path d="M91.167 108.516C91.0763 108.691 90.9962 108.871 90.927 109.056C90.894 109.137 90.861 109.233 90.822 109.335L90.738 109.278C90.5787 109.181 90.4264 109.072 90.282 108.954C90.1879 108.884 90.0978 108.809 90.012 108.729L89.946 108.669C90.2413 108.593 90.5423 108.541 90.846 108.513C90.948 108.519 91.056 108.516 91.167 108.516Z" fill="#263238"/>
<path opacity="0.2" d="M91.167 108.516C91.0763 108.691 90.9962 108.871 90.927 109.056C90.894 109.137 90.861 109.233 90.822 109.335L90.738 109.278C90.5787 109.181 90.4264 109.072 90.282 108.954C90.1879 108.884 90.0978 108.809 90.012 108.729L89.946 108.669C90.2413 108.593 90.5423 108.541 90.846 108.513C90.948 108.519 91.056 108.516 91.167 108.516Z" fill="white"/>
<path d="M91.3769 108.516C91.2639 108.6 91.1783 108.716 91.1309 108.849C91.0457 109.031 90.9755 109.22 90.921 109.413L90.8129 109.35L90.7289 109.293C90.5697 109.196 90.4173 109.087 90.2729 108.969C90.3665 108.819 90.4926 108.692 90.642 108.597C90.705 108.569 90.7702 108.546 90.837 108.528C91.0097 108.459 91.2013 108.455 91.3769 108.516Z" fill="#263238"/>
<path d="M91.932 109.2C91.929 109.237 91.929 109.274 91.932 109.311L91.08 109.521C91.0224 109.492 90.9663 109.46 90.912 109.425L90.804 109.362L90.72 109.305C90.779 109.228 90.8421 109.154 90.909 109.083C90.972 109.011 91.044 108.939 91.122 108.864C91.2491 108.74 91.3866 108.626 91.533 108.525C91.8634 108.282 92.2528 108.13 92.661 108.087H92.691C92.691 108.087 91.938 108.6 91.932 109.2Z" fill="#D3345D"/>
<path d="M95.3281 109.926L93.2671 109.257C93.7839 108.849 94.2629 108.395 94.6981 107.901L95.3791 108.411C95.4001 108.45 95.5981 108.951 95.3281 109.926Z" fill="#D3345D"/>
<path opacity="0.6" d="M91.932 109.2C91.929 109.237 91.929 109.274 91.932 109.311L91.08 109.521C91.0224 109.492 90.9663 109.46 90.912 109.425L90.804 109.362L90.72 109.305C90.779 109.228 90.8421 109.154 90.909 109.083C90.972 109.011 91.044 108.939 91.122 108.864C91.2491 108.74 91.3866 108.626 91.533 108.525C91.8634 108.282 92.2528 108.13 92.661 108.087H92.691C92.691 108.087 91.938 108.6 91.932 109.2Z" fill="white"/>
<path opacity="0.6" d="M95.3281 109.926L93.2671 109.257C93.7839 108.849 94.2629 108.395 94.6981 107.901L95.3791 108.411C95.4001 108.45 95.5981 108.951 95.3281 109.926Z" fill="white"/>
<path d="M84.4562 109.392C84.4311 109.392 84.4063 109.387 84.3835 109.377C84.3607 109.366 84.3404 109.351 84.3242 109.332L83.5892 108.465C83.5593 108.43 83.5445 108.385 83.5478 108.34C83.5512 108.294 83.5725 108.252 83.6072 108.222C83.6418 108.192 83.6868 108.177 83.7324 108.181C83.778 108.184 83.8203 108.205 83.8502 108.24L84.4502 108.954L85.4492 107.775C85.4641 107.758 85.4823 107.743 85.5028 107.733C85.5233 107.723 85.5456 107.717 85.5684 107.715C85.5913 107.713 85.6142 107.716 85.636 107.723C85.6577 107.731 85.6778 107.742 85.6952 107.757C85.7124 107.772 85.7266 107.79 85.7369 107.81C85.7472 107.83 85.7534 107.852 85.755 107.875C85.7567 107.897 85.7539 107.92 85.7467 107.942C85.7395 107.963 85.7281 107.983 85.7132 108L84.6002 109.332C84.5826 109.353 84.5604 109.369 84.5354 109.379C84.5104 109.39 84.4832 109.394 84.4562 109.392Z" fill="white"/>
<path d="M97.9291 109.392C97.904 109.392 97.8792 109.387 97.8564 109.377C97.8336 109.366 97.8133 109.351 97.7971 109.332L97.0621 108.465C97.0322 108.43 97.0174 108.385 97.0207 108.34C97.0241 108.294 97.0455 108.252 97.0801 108.222C97.1147 108.192 97.1597 108.177 97.2053 108.181C97.2509 108.184 97.2932 108.205 97.3231 108.24L97.9231 108.954L98.9221 107.775C98.937 107.758 98.9552 107.743 98.9757 107.733C98.9962 107.723 99.0185 107.717 99.0413 107.715C99.0642 107.713 99.0871 107.716 99.1089 107.723C99.1306 107.731 99.1507 107.742 99.1681 107.757C99.1853 107.772 99.1995 107.79 99.2098 107.81C99.2201 107.83 99.2262 107.852 99.2279 107.875C99.2296 107.897 99.2268 107.92 99.2196 107.942C99.2124 107.963 99.201 107.983 99.1861 108L98.0551 109.332C98.0395 109.35 98.0202 109.365 97.9985 109.375C97.9768 109.386 97.9531 109.391 97.9291 109.392Z" fill="white"/>
<path d="M93.9001 115.125C93.8773 115.125 93.8548 115.12 93.8341 115.11L92.0671 114.171C92.0343 114.154 92.0095 114.124 91.9983 114.089C91.9871 114.053 91.9902 114.015 92.0071 113.982C92.0249 113.95 92.0547 113.926 92.09 113.915C92.1253 113.904 92.1635 113.908 92.1961 113.925L93.9001 114.825L95.6041 113.925C95.6368 113.908 95.6749 113.904 95.7103 113.915C95.7456 113.926 95.7754 113.95 95.7931 113.982C95.81 114.015 95.8132 114.053 95.802 114.089C95.7907 114.124 95.766 114.154 95.7331 114.171L93.9661 115.11C93.9453 115.119 93.9229 115.124 93.9001 115.125Z" fill="white"/>
<path d="M93.9 114C93.8768 114 93.854 113.994 93.834 113.982L92.067 113.046C92.0486 113.039 92.0319 113.028 92.018 113.014C92.0041 113 91.9933 112.983 91.9863 112.964C91.9794 112.946 91.9764 112.926 91.9775 112.906C91.9787 112.887 91.984 112.867 91.9931 112.85C92.0022 112.832 92.0149 112.817 92.0303 112.804C92.0458 112.792 92.0636 112.783 92.0828 112.778C92.1019 112.773 92.1219 112.772 92.1414 112.776C92.1609 112.779 92.1795 112.786 92.196 112.797L93.9 113.697L95.604 112.797C95.6205 112.786 95.6391 112.779 95.6586 112.776C95.6781 112.772 95.6981 112.773 95.7172 112.778C95.7363 112.783 95.7542 112.792 95.7696 112.804C95.7851 112.817 95.7978 112.832 95.8069 112.85C95.816 112.867 95.8213 112.887 95.8224 112.906C95.8236 112.926 95.8206 112.946 95.8136 112.964C95.8066 112.983 95.7959 113 95.782 113.014C95.7681 113.028 95.7514 113.039 95.733 113.046L93.972 114C93.9484 114.006 93.9236 114.006 93.9 114Z" fill="white"/>
<path opacity="0.6" d="M76.275 42.696H76.833V41.952H76.275V42.696Z" fill="white"/>
<path opacity="0.6" d="M75.3661 42.696H75.9241V41.703H75.3661V42.696Z" fill="white"/>
<path opacity="0.6" d="M74.454 42.696H75.012V41.454H74.454V42.696Z" fill="white"/>
<path opacity="0.6" d="M73.545 42.696H74.103V41.205H73.545V42.696Z" fill="white"/>
<path opacity="0.6" d="M111.402 41.679H111.072V42.423H111.402V41.679Z" fill="white"/>
<path opacity="0.6" d="M111.633 42.696H114.27V41.409H111.633V42.696Z" fill="white"/>
<path opacity="0.2" d="M114.081 39.42L71.289 82.2V40.419C71.2793 40.1641 71.3711 39.9157 71.5444 39.7284C71.7176 39.5411 71.9581 39.4302 72.213 39.42H82.95C83.1004 39.4228 83.2465 39.4702 83.3699 39.5562C83.4933 39.6422 83.5884 39.7629 83.643 39.903L84.087 40.998C84.1413 41.1376 84.2359 41.2577 84.3588 41.3432C84.4817 41.4287 84.6273 41.4757 84.777 41.478H103.059C103.208 41.4768 103.353 41.4314 103.476 41.3475C103.599 41.2636 103.694 41.1451 103.749 41.007L104.193 39.906C104.247 39.7653 104.342 39.644 104.465 39.5574C104.589 39.4709 104.735 39.423 104.886 39.42H114.081Z" fill="white"/>
<path opacity="0.2" d="M116.523 47.352V50.865L71.2891 96.096V92.586L116.523 47.352Z" fill="white"/>
<path d="M84.6541 110.226C84.3237 110.226 84.0006 110.128 83.7258 109.944C83.451 109.761 83.2368 109.5 83.1104 109.194C82.9839 108.889 82.9508 108.553 83.0153 108.229C83.0797 107.905 83.2389 107.607 83.4726 107.373C83.7063 107.14 84.004 106.981 84.3282 106.916C84.6523 106.852 84.9883 106.885 85.2936 107.011C85.599 107.138 85.8599 107.352 86.0435 107.627C86.2271 107.901 86.3252 108.225 86.3252 108.555C86.3244 108.998 86.1481 109.423 85.8348 109.736C85.5216 110.049 85.0971 110.225 84.6541 110.226Z" fill="#D3345D"/>
<path d="M84.654 110.364C84.298 110.364 83.95 110.258 83.654 110.061C83.358 109.863 83.1273 109.582 82.991 109.253C82.8548 108.924 82.8191 108.562 82.8886 108.213C82.958 107.864 83.1295 107.543 83.3812 107.291C83.6329 107.04 83.9537 106.868 84.3028 106.799C84.652 106.729 85.0139 106.765 85.3428 106.901C85.6717 107.037 85.9529 107.268 86.1507 107.564C86.3484 107.86 86.454 108.208 86.454 108.564C86.454 109.041 86.2644 109.499 85.9268 109.837C85.5892 110.174 85.1314 110.364 84.654 110.364ZM84.654 107.025C84.3514 107.025 84.0556 107.115 83.804 107.283C83.5524 107.451 83.3563 107.69 83.2405 107.97C83.1247 108.249 83.0944 108.557 83.1534 108.854C83.2124 109.15 83.3582 109.423 83.5721 109.637C83.7861 109.851 84.0587 109.997 84.3555 110.056C84.6523 110.115 84.9599 110.084 85.2395 109.969C85.5191 109.853 85.758 109.657 85.9262 109.405C86.0943 109.153 86.184 108.858 86.184 108.555C86.184 108.354 86.1444 108.155 86.0675 107.97C85.9907 107.784 85.878 107.615 85.7359 107.473C85.5938 107.331 85.4251 107.218 85.2395 107.141C85.0539 107.065 84.8549 107.025 84.654 107.025Z" fill="white"/>
<path d="M98.1271 110.226C97.7966 110.226 97.4735 110.128 97.1987 109.944C96.9239 109.761 96.7097 109.5 96.5833 109.194C96.4568 108.889 96.4237 108.553 96.4882 108.229C96.5526 107.905 96.7118 107.607 96.9455 107.373C97.1792 107.14 97.4769 106.981 97.8011 106.916C98.1252 106.852 98.4612 106.885 98.7665 107.011C99.0719 107.138 99.3328 107.352 99.5164 107.627C99.7001 107.901 99.7981 108.225 99.7981 108.555C99.7973 108.998 99.621 109.423 99.3078 109.736C98.9946 110.049 98.57 110.225 98.1271 110.226Z" fill="#D3345D"/>
<path d="M98.1271 110.364C97.7711 110.364 97.4231 110.258 97.1271 110.061C96.8311 109.863 96.6004 109.582 96.4642 109.253C96.3279 108.924 96.2923 108.562 96.3617 108.213C96.4312 107.864 96.6026 107.543 96.8544 107.291C97.1061 107.04 97.4268 106.868 97.776 106.799C98.1252 106.729 98.4871 106.765 98.816 106.901C99.1449 107.037 99.426 107.268 99.6238 107.564C99.8216 107.86 99.9271 108.208 99.9271 108.564C99.9271 109.041 99.7375 109.499 99.3999 109.837C99.0624 110.174 98.6045 110.364 98.1271 110.364ZM98.1271 107.025C97.8245 107.025 97.5287 107.115 97.2771 107.283C97.0255 107.451 96.8294 107.69 96.7136 107.97C96.5978 108.249 96.5675 108.557 96.6265 108.854C96.6856 109.15 96.8313 109.423 97.0453 109.637C97.2593 109.851 97.5319 109.997 97.8287 110.056C98.1254 110.115 98.4331 110.084 98.7127 109.969C98.9922 109.853 99.2312 109.657 99.3993 109.405C99.5674 109.153 99.6571 108.858 99.6571 108.555C99.6571 108.149 99.496 107.76 99.209 107.473C98.9221 107.186 98.5329 107.025 98.1271 107.025Z" fill="white"/>
<path d="M44.7929 37.527H55.7639C56.1498 37.527 56.5199 37.6803 56.7927 37.9531C57.0656 38.226 57.2189 38.5961 57.2189 38.982V47.7C57.2189 48.0859 57.0656 48.456 56.7927 48.7288C56.5199 49.0017 56.1498 49.155 55.7639 49.155H54.8039L56.7689 53.037L53.1419 49.155H44.7899C44.4045 49.1542 44.0352 49.0005 43.763 48.7278C43.4908 48.455 43.3379 48.0853 43.3379 47.7V38.982C43.3379 38.5961 43.4912 38.226 43.7641 37.9531C44.0369 37.6803 44.407 37.527 44.7929 37.527Z" fill="#D3345D"/>
<path opacity="0.7" d="M44.7929 37.527H55.7639C56.1498 37.527 56.5199 37.6803 56.7927 37.9531C57.0656 38.226 57.2189 38.5961 57.2189 38.982V47.7C57.2189 48.0859 57.0656 48.456 56.7927 48.7288C56.5199 49.0017 56.1498 49.155 55.7639 49.155H54.8039L56.7689 53.037L53.1419 49.155H44.7899C44.4045 49.1542 44.0352 49.0005 43.763 48.7278C43.4908 48.455 43.3379 48.0853 43.3379 47.7V38.982C43.3379 38.5961 43.4912 38.226 43.7641 37.9531C44.0369 37.6803 44.407 37.527 44.7929 37.527Z" fill="white"/>
<path d="M55.6168 36.744H44.9368V47.301H55.6168V36.744Z" fill="white"/>
<path d="M55.6168 36.744H44.9368V39.222H55.6168V36.744Z" fill="#D3345D"/>
<path d="M46.6678 38.328C46.557 38.328 46.4506 38.2842 46.3719 38.206C46.2932 38.1279 46.2486 38.0219 46.2478 37.911V36.375C46.2429 36.3171 46.2501 36.2587 46.2689 36.2037C46.2877 36.1487 46.3177 36.0982 46.3571 36.0554C46.3964 36.0125 46.4442 35.9784 46.4974 35.955C46.5507 35.9316 46.6082 35.9195 46.6663 35.9195C46.7245 35.9195 46.782 35.9316 46.8352 35.955C46.8885 35.9784 46.9363 36.0125 46.9756 36.0554C47.0149 36.0982 47.045 36.1487 47.0638 36.2037C47.0826 36.2587 47.0897 36.3171 47.0848 36.375V37.911C47.0848 38.0216 47.0409 38.1277 46.9627 38.2059C46.8845 38.2841 46.7784 38.328 46.6678 38.328Z" fill="#263238"/>
<path d="M48.471 38.328C48.3604 38.328 48.2543 38.2841 48.1761 38.2059C48.0979 38.1277 48.054 38.0216 48.054 37.911V36.375C48.0491 36.3171 48.0563 36.2587 48.0751 36.2037C48.0939 36.1487 48.1239 36.0982 48.1632 36.0554C48.2026 36.0125 48.2504 35.9784 48.3036 35.955C48.3568 35.9316 48.4143 35.9195 48.4725 35.9195C48.5306 35.9195 48.5881 35.9316 48.6414 35.955C48.6946 35.9784 48.7424 36.0125 48.7818 36.0554C48.8211 36.0982 48.8511 36.1487 48.8699 36.2037C48.8887 36.2587 48.8959 36.3171 48.891 36.375V37.911C48.891 37.966 48.8801 38.0205 48.859 38.0713C48.8378 38.1221 48.8068 38.1682 48.7678 38.2069C48.7288 38.2457 48.6824 38.2763 48.6315 38.2971C48.5806 38.3179 48.526 38.3284 48.471 38.328Z" fill="#263238"/>
<path d="M50.2769 38.328C50.1663 38.328 50.0602 38.2841 49.982 38.2059C49.9038 38.1277 49.8599 38.0216 49.8599 37.911V36.375C49.855 36.3171 49.8622 36.2587 49.881 36.2037C49.8998 36.1487 49.9298 36.0982 49.9691 36.0554C50.0085 36.0125 50.0563 35.9784 50.1095 35.955C50.1627 35.9316 50.2203 35.9195 50.2784 35.9195C50.3365 35.9195 50.3941 35.9316 50.4473 35.955C50.5005 35.9784 50.5483 36.0125 50.5877 36.0554C50.627 36.0982 50.657 36.1487 50.6758 36.2037C50.6946 36.2587 50.7018 36.3171 50.6969 36.375V37.911C50.6961 38.0219 50.6515 38.1279 50.5728 38.206C50.4941 38.2842 50.3878 38.328 50.2769 38.328Z" fill="#263238"/>
<path d="M52.0828 38.328C51.972 38.328 51.8656 38.2842 51.7869 38.206C51.7082 38.1279 51.6636 38.0219 51.6628 37.911V36.375C51.6628 36.2636 51.7071 36.1568 51.7859 36.078C51.8646 35.9992 51.9714 35.955 52.0828 35.955C52.1942 35.955 52.3011 35.9992 52.3798 36.078C52.4586 36.1568 52.5028 36.2636 52.5028 36.375V37.911C52.502 38.0219 52.4575 38.1279 52.3788 38.206C52.3001 38.2842 52.1937 38.328 52.0828 38.328Z" fill="#263238"/>
<path d="M53.889 38.328C53.7781 38.328 53.6717 38.2842 53.5931 38.206C53.5144 38.1279 53.4698 38.0219 53.469 37.911V36.375C53.469 36.2636 53.5132 36.1568 53.592 36.078C53.6708 35.9992 53.7776 35.955 53.889 35.955C54.0004 35.955 54.1072 35.9992 54.186 36.078C54.2647 36.1568 54.309 36.2636 54.309 36.375V37.911C54.3082 38.0219 54.2636 38.1279 54.1849 38.206C54.1062 38.2842 53.9999 38.328 53.889 38.328Z" fill="#263238"/>
<g opacity="0.7">
<path d="M46.6678 38.328C46.557 38.328 46.4506 38.2842 46.3719 38.206C46.2932 38.1279 46.2486 38.0219 46.2478 37.911V36.375C46.2429 36.3171 46.2501 36.2587 46.2689 36.2037C46.2877 36.1487 46.3177 36.0982 46.3571 36.0554C46.3964 36.0125 46.4442 35.9784 46.4974 35.955C46.5507 35.9316 46.6082 35.9195 46.6663 35.9195C46.7245 35.9195 46.782 35.9316 46.8352 35.955C46.8885 35.9784 46.9363 36.0125 46.9756 36.0554C47.0149 36.0982 47.045 36.1487 47.0638 36.2037C47.0826 36.2587 47.0897 36.3171 47.0848 36.375V37.911C47.0848 38.0216 47.0409 38.1277 46.9627 38.2059C46.8845 38.2841 46.7784 38.328 46.6678 38.328Z" fill="white"/>
<path d="M48.4708 38.328C48.3602 38.328 48.2541 38.2841 48.1759 38.2059C48.0977 38.1277 48.0537 38.0216 48.0537 37.911V36.375C48.0488 36.3171 48.056 36.2587 48.0748 36.2037C48.0936 36.1487 48.1236 36.0982 48.163 36.0554C48.2023 36.0125 48.2501 35.9784 48.3034 35.955C48.3566 35.9316 48.4141 35.9195 48.4722 35.9195C48.5304 35.9195 48.5879 35.9316 48.6411 35.955C48.6944 35.9784 48.7422 36.0125 48.7815 36.0554C48.8209 36.0982 48.8509 36.1487 48.8697 36.2037C48.8885 36.2587 48.8957 36.3171 48.8907 36.375V37.911C48.8908 37.966 48.8799 38.0205 48.8587 38.0713C48.8376 38.1221 48.8066 38.1682 48.7676 38.2069C48.7285 38.2457 48.6822 38.2763 48.6312 38.2971C48.5803 38.3179 48.5258 38.3284 48.4708 38.328Z" fill="white"/>
<path d="M50.2769 38.328C50.1663 38.328 50.0602 38.2841 49.982 38.2059C49.9038 38.1277 49.8599 38.0216 49.8599 37.911V36.375C49.855 36.3171 49.8622 36.2587 49.881 36.2037C49.8998 36.1487 49.9298 36.0982 49.9691 36.0554C50.0085 36.0125 50.0563 35.9784 50.1095 35.955C50.1627 35.9316 50.2203 35.9195 50.2784 35.9195C50.3365 35.9195 50.3941 35.9316 50.4473 35.955C50.5005 35.9784 50.5483 36.0125 50.5877 36.0554C50.627 36.0982 50.657 36.1487 50.6758 36.2037C50.6946 36.2587 50.7018 36.3171 50.6969 36.375V37.911C50.6961 38.0219 50.6515 38.1279 50.5728 38.206C50.4941 38.2842 50.3878 38.328 50.2769 38.328Z" fill="white"/>
<path d="M52.0828 38.328C51.972 38.328 51.8656 38.2842 51.7869 38.206C51.7082 38.1279 51.6636 38.0219 51.6628 37.911V36.375C51.6628 36.2636 51.7071 36.1568 51.7859 36.078C51.8646 35.9992 51.9714 35.955 52.0828 35.955C52.1942 35.955 52.3011 35.9992 52.3798 36.078C52.4586 36.1568 52.5028 36.2636 52.5028 36.375V37.911C52.502 38.0219 52.4575 38.1279 52.3788 38.206C52.3001 38.2842 52.1937 38.328 52.0828 38.328Z" fill="white"/>
<path d="M53.8888 38.328C53.7779 38.328 53.6715 38.2842 53.5928 38.206C53.5141 38.1279 53.4695 38.0219 53.4688 37.911V36.375C53.4688 36.2636 53.513 36.1568 53.5918 36.078C53.6705 35.9992 53.7774 35.955 53.8888 35.955C54.0001 35.955 54.107 35.9992 54.1857 36.078C54.2645 36.1568 54.3088 36.2636 54.3088 36.375V37.911C54.308 38.0219 54.2634 38.1279 54.1847 38.206C54.106 38.2842 53.9996 38.328 53.8888 38.328Z" fill="white"/>
</g>
<path d="M50.0998 44.4V45.027H47.1598V44.532L48.7468 43.032C49.1338 42.663 49.2028 42.432 49.2028 42.207C49.2028 41.841 48.9508 41.631 48.4618 41.631C48.2839 41.6214 48.1063 41.6542 47.9436 41.7267C47.7809 41.7992 47.6377 41.9093 47.5258 42.048L47.0068 41.649C47.1902 41.428 47.4227 41.253 47.6857 41.1379C47.9488 41.0228 48.2351 40.9708 48.5218 40.986C49.3888 40.986 49.9468 41.427 49.9468 42.132C49.9468 42.519 49.8388 42.873 49.2868 43.392L48.2218 44.4H50.0998Z" fill="#263238"/>
<path d="M53.4178 44.4V45.027H50.4778V44.532L52.0618 43.032C52.4488 42.663 52.5178 42.432 52.5178 42.207C52.5178 41.841 52.2658 41.631 51.7768 41.631C51.5989 41.6219 51.4215 41.655 51.2588 41.7274C51.0962 41.7999 50.953 41.9097 50.8408 42.048L50.3218 41.649C50.5056 41.4278 50.7386 41.2527 51.0022 41.1376C51.2658 41.0225 51.5526 40.9705 51.8398 40.986C52.7068 40.986 53.2648 41.427 53.2648 42.132C53.2648 42.519 53.1568 42.873 52.6018 43.392L51.5368 44.4H53.4178Z" fill="#263238"/>
<path d="M60.7139 62.298C60.5039 62.709 60.3149 63.057 60.1139 63.426C59.9129 63.795 59.6969 64.146 59.4809 64.5C59.0429 65.208 58.5749 65.899 58.0769 66.573C57.5748 67.261 57.0319 67.9182 56.4509 68.541C55.8482 69.1944 55.1875 69.7918 54.4769 70.326L54.4409 70.35C54.2648 70.4798 54.0618 70.5685 53.8468 70.6095C53.6319 70.6505 53.4105 70.6428 53.1989 70.587C52.5853 70.4139 52.0377 70.0607 51.6269 69.573C51.3186 69.2108 51.0631 68.8068 50.8679 68.373C50.5523 67.646 50.3217 66.885 50.1809 66.105C50.0471 65.3852 49.9579 64.6578 49.9139 63.927C49.8929 63.567 49.8809 63.21 49.8779 62.853V62.043C49.8779 61.95 49.8779 61.863 50.0999 61.743C50.5691 61.5031 51.1126 61.4526 51.6179 61.602L51.9929 61.713C52.2059 61.776 52.2299 61.86 52.2329 61.938L52.2599 62.178L52.3199 62.664C52.3649 62.985 52.4159 63.306 52.4759 63.627C52.5756 64.2532 52.7068 64.874 52.8689 65.487C53.0054 66.0475 53.2068 66.5901 53.4689 67.104C53.5588 67.2876 53.6773 67.4557 53.8199 67.602C53.9279 67.707 53.9699 67.698 53.9399 67.68L52.6649 67.944C53.743 66.9998 54.6859 65.9116 55.4669 64.71C55.8869 64.11 56.2829 63.456 56.6669 62.802C56.8589 62.478 57.0419 62.148 57.2189 61.818C57.3959 61.488 57.5759 61.14 57.7169 60.84V60.822C57.9079 60.4202 58.2506 60.1107 58.6698 59.9616C59.0889 59.8125 59.5501 59.8361 59.9519 60.027C60.3537 60.218 60.6632 60.5607 60.8123 60.9799C60.9614 61.399 60.9379 61.8602 60.7469 62.262C60.7345 62.2726 60.7234 62.2847 60.7139 62.298Z" fill="#263238"/>
<path d="M59.8318 120.9L61.8658 119.478C61.8972 119.451 61.9371 119.437 61.9783 119.437C62.0195 119.437 62.0594 119.451 62.0908 119.478L63.4108 120.735C63.4675 120.796 63.4977 120.877 63.4949 120.96C63.4921 121.043 63.4565 121.122 63.3958 121.179C63.3795 121.192 63.3625 121.204 63.3448 121.215C62.6338 121.695 62.2468 121.914 61.3618 122.532C60.8188 122.91 58.5058 124.29 57.6328 124.389C56.7598 124.488 56.6248 123.663 56.9758 123.516C58.7458 122.766 59.4058 121.878 59.6068 121.194C59.647 121.074 59.7262 120.97 59.8318 120.9Z" fill="#263238"/>
<path opacity="0.2" d="M59.8318 120.9L61.8658 119.478C61.8972 119.451 61.9371 119.437 61.9783 119.437C62.0195 119.437 62.0594 119.451 62.0908 119.478L63.4108 120.735C63.4675 120.796 63.4977 120.877 63.4949 120.96C63.4921 121.043 63.4565 121.122 63.3958 121.179C63.3795 121.192 63.3625 121.204 63.3448 121.215C62.6338 121.695 62.2468 121.914 61.3618 122.532C60.8188 122.91 58.5058 124.29 57.6328 124.389C56.7598 124.488 56.6248 123.663 56.9758 123.516C58.7458 122.766 59.4058 121.878 59.6068 121.194C59.647 121.074 59.7262 120.97 59.8318 120.9Z" fill="black"/>
<path d="M59.436 74.559C59.436 74.559 51.783 91.587 51.369 97.659C50.916 104.313 59.193 121.443 59.193 121.443L62.961 120.447C62.961 120.447 57.114 103.14 57.507 98.04C58.764 90.747 67.518 75.771 67.518 75.771L59.436 74.559Z" fill="#263238"/>
<path opacity="0.2" d="M60.2999 111.873C61.6469 116.532 62.9729 120.447 62.9729 120.447L59.2019 121.44C59.2019 121.44 58.9349 120.888 58.4999 119.94C56.5079 115.62 50.9999 103.116 51.3779 97.656C51.7889 91.587 59.4419 74.556 59.4419 74.556L67.5419 75.756C67.5419 75.756 58.7849 90.729 57.5279 98.022C57.2999 100.713 58.7999 106.743 60.2999 111.873Z" fill="white"/>
<path opacity="0.2" d="M64.389 79.623C62.397 80.523 61.065 85.26 61.152 87.759C62.538 84.78 64.059 81.864 65.265 79.632C65.1328 79.5532 64.9821 79.5108 64.8282 79.5092C64.6743 79.5076 64.5227 79.5469 64.389 79.623Z" fill="black"/>
<path opacity="0.2" d="M62.964 120.447L59.193 121.44C59.193 121.44 58.926 120.888 58.491 119.94C59.535 117.15 60.066 113.697 60.291 111.873C61.638 116.532 62.964 120.447 62.964 120.447Z" fill="black"/>
<path d="M59.331 73.455L70.5 73.842C70.5 73.842 70.572 77.508 69.726 80.235L58.626 76.371L59.331 73.455Z" fill="#263238"/>
<path opacity="0.2" d="M59.331 73.455L70.5 73.842C70.5 73.842 70.572 77.508 69.726 80.235L58.626 76.371L59.331 73.455Z" fill="white"/>
<path d="M61.518 122.364L64.062 122.448C64.1035 122.45 64.143 122.466 64.1744 122.494C64.2059 122.521 64.2275 122.557 64.236 122.598L64.587 124.473C64.5957 124.513 64.596 124.555 64.588 124.595C64.58 124.635 64.5638 124.673 64.5405 124.707C64.5172 124.741 64.4871 124.769 64.4523 124.791C64.4175 124.813 64.3786 124.827 64.338 124.833C64.3151 124.836 64.2919 124.836 64.269 124.833C63.447 124.794 62.85 124.725 61.815 124.689C61.179 124.668 59.259 124.674 58.38 124.644C57.501 124.614 57.414 123.744 57.78 123.675C59.403 123.375 60.633 122.928 61.167 122.475C61.2655 122.395 61.3911 122.355 61.518 122.364Z" fill="#263238"/>
<path d="M63.432 74.313C63.432 74.313 61.503 92.169 61.416 98.313C61.32 105.042 60.939 122.493 60.939 122.493L64.539 123.039C64.539 123.039 66.54 106.509 67.218 99.99C67.986 92.559 70.122 77.451 70.122 77.451L63.432 74.313Z" fill="#263238"/>
<path opacity="0.2" d="M63.432 74.313C63.432 74.313 61.503 92.169 61.416 98.313C61.32 105.042 60.939 122.493 60.939 122.493L64.539 123.039C64.539 123.039 66.54 106.509 67.218 99.99C67.986 92.559 70.122 77.451 70.122 77.451L63.432 74.313Z" fill="white"/>
<path d="M61.1399 75.06L66.3899 75.393L66.4559 74.112L61.2029 73.845L61.1399 75.06Z" fill="#263238"/>
<path d="M66.8548 74.133L66.7888 75.42L70.3798 75.648L70.4458 74.316L66.8548 74.133Z" fill="#263238"/>
<path d="M60.8038 73.824L59.2738 73.743L59.0698 74.931L60.7408 75.036L60.8038 73.824Z" fill="#263238"/>
<path d="M64.3778 73.9263L62.3105 73.8205L62.2343 75.3095L64.3016 75.4153L64.3778 73.9263Z" fill="white"/>
<path d="M58.278 58.347C57.327 58.533 54.54 65.142 54.54 65.142L57.171 68.475L58.323 66.864L58.278 58.347Z" fill="#D3345D"/>
<path opacity="0.4" d="M58.278 58.347L58.302 62.547L58.323 66.855L57.171 68.466L56.517 67.635L54.54 65.133C54.54 65.133 57.324 58.53 58.278 58.347Z" fill="white"/>
<path opacity="0.2" d="M58.3019 62.556L58.3229 66.864L57.1709 68.475L56.5169 67.644C56.3399 65.175 57.6209 63.342 58.3019 62.556Z" fill="black"/>
<path d="M53.9069 60.942C53.9127 60.9675 53.9127 60.994 53.907 61.0196C53.9013 61.0451 53.8901 61.0691 53.874 61.0897C53.8579 61.1104 53.8375 61.1272 53.8141 61.139C53.7908 61.1508 53.7651 61.1573 53.7389 61.158L51.7019 61.296C51.6457 61.298 51.5905 61.2801 51.5461 61.2456C51.5017 61.211 51.4708 61.162 51.4589 61.107L50.7329 57.12C50.7268 57.0927 50.7264 57.0645 50.7317 57.0371C50.737 57.0097 50.7478 56.9836 50.7636 56.9606C50.7793 56.9375 50.7996 56.9179 50.8233 56.903C50.8469 56.8881 50.8733 56.8783 50.9009 56.874L52.9379 56.736C52.9975 56.7397 53.0541 56.7633 53.0987 56.803C53.1433 56.8427 53.1733 56.8962 53.1839 56.955L53.9069 60.942Z" fill="#263238"/>
<path opacity="0.5" d="M52.9559 56.943L53.6999 60.969C53.7074 60.9923 53.7094 61.017 53.7056 61.0412C53.7018 61.0654 53.6923 61.0884 53.678 61.1082C53.6637 61.1281 53.6449 61.1443 53.6232 61.1555C53.6015 61.1668 53.5774 61.1728 53.5529 61.173L51.8279 61.287C51.7109 61.287 51.4949 61.245 51.4739 61.134L50.7389 57.093C50.7179 56.979 50.9099 56.874 51.0389 56.868L52.7639 56.751C52.8134 56.7551 52.8599 56.7766 52.8951 56.8118C52.9303 56.847 52.9518 56.8935 52.9559 56.943Z" fill="white"/>
<path d="M58.2779 58.347C58.2779 58.347 65.4959 57.246 71.0219 57.747C71.0219 57.747 69.6389 68.421 70.3619 73.998L59.5139 73.629C59.5139 73.629 57.0479 64.326 58.2779 58.347Z" fill="#263238"/>
<path d="M66.729 57.687C65.796 58.749 63.204 58.689 63.204 58.689C63.204 58.689 61.563 58.434 61.842 57.9C62.763 57.639 63.168 57.15 63.291 56.568C63.3536 56.2088 63.3444 55.8407 63.264 55.485C63.2268 55.2823 63.1777 55.0819 63.117 54.885L66.006 52.185C65.769 53.793 65.583 56.7 66.729 57.687Z" fill="#EBB376"/>
<path opacity="0.2" d="M65.4449 53.772C65.5349 55.677 64.0409 56.376 63.2909 56.568C63.3535 56.2088 63.3444 55.8407 63.2639 55.485L65.4449 53.772Z" fill="black"/>
<path d="M66.663 57.105L65.28 57.999L67.956 75.648L72.303 77.28L71.022 57.75L66.663 57.105Z" fill="#D3345D"/>
<path opacity="0.4" d="M72.303 77.28L67.956 75.648L65.28 57.999L66.663 57.105L71.025 57.75L71.166 59.427L71.4 62.136L71.673 65.382L71.913 69.93L72.303 77.28Z" fill="white"/>
<path d="M65.28 57.999L66.846 56.451L68.016 57.213L66.885 59.058L65.28 57.999Z" fill="#D3345D"/>
<path opacity="0.6" d="M65.28 57.999L66.846 56.451L68.016 57.213L66.885 59.058L65.28 57.999Z" fill="white"/>
<path d="M61.8419 57.9C61.2419 58.986 60.1529 76.953 60.1529 76.953H57.8819C57.8819 76.953 56.9819 59.694 58.2779 58.353L61.8419 57.9Z" fill="#D3345D"/>
<path opacity="0.4" d="M61.8419 57.9C61.2419 58.986 60.1529 76.953 60.1529 76.953H57.8819C57.8819 76.953 56.9819 59.694 58.2779 58.353L61.8419 57.9Z" fill="white"/>
<path d="M62.268 56.97L60.855 58.011L60.888 59.016L62.106 57.933L62.268 56.97Z" fill="#D3345D"/>
<path opacity="0.6" d="M62.268 56.97L60.855 58.011L60.888 59.016L62.106 57.933L62.268 56.97Z" fill="white"/>
<path opacity="0.2" d="M71.3998 62.136L71.6758 65.382C70.5208 63.768 70.8448 61.134 70.8448 61.134C70.8448 61.134 71.0788 61.545 71.3998 62.136Z" fill="black"/>
<path d="M61.9649 49.065C62.8889 49.548 62.6129 50.565 60.8459 52.347C59.9459 51.414 59.5829 49.443 60.1529 48.87C60.7229 48.297 61.1609 48.645 61.9649 49.065Z" fill="#263238"/>
<path d="M65.838 50.244C65.985 52.344 66.174 53.577 65.262 54.789C63.885 56.613 61.179 55.989 60.405 53.97C59.712 52.152 59.589 49.008 61.527 47.91C61.8551 47.7215 62.2172 47.5996 62.5924 47.5511C62.9677 47.5026 63.3489 47.5286 63.7142 47.6275C64.0794 47.7264 64.4216 47.8963 64.7212 48.1275C65.0207 48.3587 65.2718 48.6467 65.46 48.975C65.6847 49.3621 65.8142 49.7971 65.838 50.244Z" fill="#EBB376"/>
<path d="M62.79 51.228C62.814 51.396 62.742 51.546 62.628 51.561C62.514 51.576 62.412 51.45 62.391 51.279C62.37 51.108 62.439 50.961 62.547 50.943C62.655 50.925 62.757 51.06 62.79 51.228Z" fill="#263238"/>
<path d="M60.855 51.483C60.879 51.654 60.807 51.804 60.696 51.816C60.585 51.828 60.474 51.708 60.453 51.534C60.432 51.36 60.501 51.216 60.612 51.201C60.723 51.186 60.834 51.3 60.855 51.483Z" fill="#263238"/>
<path d="M61.4999 51.48C61.3659 52.0271 61.1569 52.5531 60.8789 53.043C61.0063 53.1106 61.1469 53.1497 61.2909 53.1575C61.435 53.1652 61.579 53.1415 61.7129 53.088L61.4999 51.48Z" fill="#D58745"/>
<path d="M63.2399 50.547C63.2625 50.5461 63.2843 50.5388 63.3029 50.526C63.3213 50.5065 63.3315 50.4808 63.3315 50.454C63.3315 50.4272 63.3213 50.4015 63.3029 50.382C63.1921 50.2665 63.0554 50.1791 62.9042 50.1269C62.7529 50.0748 62.5913 50.0594 62.4329 50.082C62.4203 50.0838 62.4081 50.0882 62.3971 50.0948C62.3861 50.1014 62.3766 50.1101 62.369 50.1204C62.3615 50.1308 62.3561 50.1425 62.3532 50.155C62.3502 50.1675 62.3498 50.1804 62.3519 50.193C62.357 50.2191 62.3721 50.2422 62.394 50.2573C62.4158 50.2724 62.4427 50.2784 62.4689 50.274C62.5945 50.2578 62.7222 50.2719 62.8412 50.3153C62.9602 50.3586 63.0671 50.4298 63.1529 50.523C63.1648 50.5331 63.1788 50.5404 63.1938 50.5445C63.2088 50.5487 63.2246 50.5495 63.2399 50.547Z" fill="#263238"/>
<path d="M59.8889 50.946C59.9079 50.9433 59.9257 50.9354 59.9405 50.9232C59.9553 50.9111 59.9665 50.8951 59.9729 50.877C60.0095 50.7559 60.0742 50.6452 60.1618 50.554C60.2495 50.4627 60.3574 50.3935 60.4769 50.352C60.49 50.3485 60.5022 50.3425 60.5129 50.3343C60.5236 50.326 60.5325 50.3158 60.5392 50.304C60.5459 50.2923 60.5502 50.2794 60.5519 50.266C60.5536 50.2526 60.5525 50.239 60.5489 50.226C60.5412 50.2007 60.5243 50.1793 60.5015 50.1659C60.4787 50.1526 60.4517 50.1483 60.4259 50.154C60.2742 50.2051 60.1368 50.2916 60.0252 50.4064C59.9135 50.5212 59.8308 50.6609 59.7839 50.814C59.7752 50.8387 59.7767 50.8658 59.7879 50.8894C59.7992 50.913 59.8193 50.9312 59.8439 50.94C59.8583 50.9454 59.8737 50.9474 59.8889 50.946Z" fill="#263238"/>
<path d="M64.7638 48.498C63.8278 48.963 64.0858 49.998 65.8168 51.798C66.7408 50.898 67.1398 48.918 66.5788 48.339C66.0178 47.76 65.5798 48.096 64.7638 48.498Z" fill="#263238"/>
<path d="M67.056 51.786C66.9747 52.3118 66.6903 52.7847 66.264 53.103C65.694 53.514 65.166 53.064 65.118 52.398C65.076 51.798 65.325 50.862 65.994 50.712C66.141 50.6815 66.2933 50.6883 66.437 50.7316C66.5807 50.775 66.7113 50.8537 66.8169 50.9604C66.9224 51.0672 66.9996 51.1986 67.0414 51.3428C67.0831 51.487 67.0882 51.6394 67.056 51.786Z" fill="#EBB376"/>
<path d="M66.4348 48.213C66.4348 48.213 66.6928 47.418 65.3008 46.512C63.9088 45.606 61.4818 46.044 59.8408 47.016C58.1998 47.988 59.9458 49.56 60.6898 49.659L60.5038 49.383C61.3029 49.4943 62.1166 49.4308 62.8888 49.197L62.4268 48.996C62.4268 48.996 65.4538 48.723 66.4348 48.213Z" fill="#263238"/>
<path d="M62.0159 53.571C62.1391 53.7926 62.2454 54.0233 62.3339 54.261L62.4659 54.234C63.0659 54.105 63.2909 53.85 63.3659 53.607C63.4019 53.4874 63.4091 53.3609 63.3869 53.238C63.3755 53.1674 63.3543 53.0987 63.3239 53.034C62.9932 53.2753 62.6147 53.4431 62.2139 53.526L62.0159 53.571Z" fill="#263238"/>
<path d="M62.217 53.526L62.316 53.724C62.874 53.604 63.252 53.445 63.39 53.238C63.3787 53.1674 63.3575 53.0987 63.327 53.034C62.9964 53.2753 62.6179 53.4431 62.217 53.526Z" fill="white"/>
<path d="M62.4658 54.234C63.0658 54.105 63.2908 53.85 63.3658 53.607C63.1419 53.6603 62.9288 53.7516 62.7358 53.877C62.6113 53.9655 62.517 54.0901 62.4658 54.234Z" fill="#A24E3F"/>
<path d="M72.7709 60.681C73.1969 61.392 73.5659 62.061 73.9349 62.766C74.3039 63.471 74.6399 64.182 74.9609 64.92C75.2942 65.6689 75.5817 66.4373 75.8219 67.221C75.9433 67.6397 76.0435 68.0642 76.1219 68.493C76.2164 68.9801 76.2577 69.476 76.2449 69.972V70.017C76.242 70.103 76.2299 70.1885 76.2089 70.272C76.0797 70.7588 75.9039 71.2319 75.6839 71.685C75.4799 72.108 75.2609 72.501 75.0329 72.885C74.5818 73.6189 74.0942 74.3298 73.5719 75.015C73.0589 75.687 72.5189 76.329 71.9669 76.953C71.6849 77.253 71.4029 77.568 71.1149 77.871L70.6799 78.321L70.4579 78.546C70.3889 78.627 70.3049 78.687 70.0739 78.627C69.7908 78.5547 69.5274 78.4203 69.3027 78.2335C69.078 78.0467 68.8977 77.8122 68.7749 77.547L68.6819 77.343C68.5859 77.133 68.6399 77.043 68.7059 76.974L68.8889 76.743L69.2549 76.275C69.4949 75.961 69.7319 75.643 69.9659 75.321C70.4399 74.691 70.8959 74.046 71.3339 73.401C71.7668 72.7718 72.1673 72.1209 72.5339 71.451C72.8654 70.8713 73.1177 70.2497 73.2839 69.603L73.2479 69.903C73.1976 69.3165 73.0622 68.7405 72.8459 68.193C72.6179 67.557 72.3329 66.909 72.0239 66.261C71.7149 65.613 71.3699 64.974 71.0159 64.335C70.6619 63.696 70.2839 63.051 69.9119 62.466V62.448C69.6732 62.0725 69.5935 61.6175 69.6903 61.1831C69.7871 60.7488 70.0524 60.3707 70.4279 60.132C70.8035 59.8933 71.2585 59.8136 71.6928 59.9103C72.1271 60.0071 72.5052 60.2725 72.7439 60.648L72.7709 60.681Z" fill="#263238"/>
<path opacity="0.2" d="M71.913 69.93C69.861 67.956 68.793 63.993 68.793 63.993C68.967 62.493 69.93 60.645 71.166 59.427L71.4 62.127L71.673 65.373L71.913 69.93Z" fill="black"/>
<path d="M71.0249 57.75C72.4139 58.158 75.3599 64.737 75.3599 64.737L71.2349 67.755L68.7929 63.993C68.7929 63.993 68.1179 61.2 68.7929 59.493C68.9584 59.0189 69.2569 58.6024 69.6527 58.2934C70.0485 57.9843 70.5248 57.7957 71.0249 57.75Z" fill="#D3345D"/>
<path opacity="0.4" d="M71.0249 57.75C72.4139 58.158 75.3599 64.737 75.3599 64.737L71.2349 67.755L68.7929 63.993C68.7929 63.993 68.1179 61.2 68.7929 59.493C68.9584 59.0189 69.2569 58.6024 69.6527 58.2934C70.0485 57.9843 70.5248 57.7957 71.0249 57.75Z" fill="white"/>
<path d="M50.046 62.001L49.917 59.664L52.317 60.651C52.317 60.651 52.317 62.751 51.228 62.697L50.046 62.001Z" fill="#EBB376"/>
<path d="M51.012 57.618L52.788 59.169L52.32 60.654L49.917 59.664L51.012 57.618Z" fill="#EBB376"/>
<path d="M68.493 76.2C68.493 76.2 70.293 77.433 70.8 79.248L68.493 82.314C68.493 82.314 66.624 78.42 68.493 76.2Z" fill="#263238"/>
<path opacity="0.2" d="M68.493 76.2C68.493 76.2 70.293 77.433 70.8 79.248L68.493 82.314C68.493 82.314 66.624 78.42 68.493 76.2Z" fill="white"/>
</svg>
