<svg width="100" height="100" viewBox="0 0 150 150" fill="none" xmlns="http://www.w3.org/2000/svg">
<path d="M150 114.72H0V114.795H150V114.72Z" fill="#EBEBEB"/>
<path d="M134.97 117.576H107.7V117.651H134.97V117.576Z" fill="#EBEBEB"/>
<path d="M99.3659 116.763H91.8989V116.838H99.3659V116.763Z" fill="#EBEBEB"/>
<path d="M116.433 120.363H104.856V120.438H116.433V120.363Z" fill="#EBEBEB"/>
<path d="M22.53 119.859H15.738V119.934H22.53V119.859Z" fill="#EBEBEB"/>
<path d="M33.267 119.859H25.2V119.934H33.267V119.859Z" fill="#EBEBEB"/>
<path d="M67.5449 118.593H53.4929V118.668H67.5449V118.593Z" fill="#EBEBEB"/>
<path d="M71.0999 101.34H13.1729C12.7191 101.339 12.2842 101.158 11.9636 100.837C11.643 100.516 11.4629 100.081 11.4629 99.627V18.198C11.4668 17.7468 11.6486 17.3154 11.9688 16.9975C12.289 16.6795 12.7217 16.5008 13.1729 16.5H71.0999C71.5542 16.5 71.9899 16.6805 72.3112 17.0017C72.6324 17.323 72.8129 17.7587 72.8129 18.213V99.627C72.8129 100.081 72.6324 100.517 72.3112 100.838C71.9899 101.16 71.5542 101.34 71.0999 101.34ZM13.1729 16.56C12.739 16.5608 12.3231 16.7337 12.0166 17.0408C11.7101 17.3479 11.5379 17.7641 11.5379 18.198V99.627C11.5379 100.061 11.7101 100.477 12.0166 100.784C12.3231 101.091 12.739 101.264 13.1729 101.265H71.0999C71.5341 101.264 71.9502 101.091 72.2573 100.784C72.5643 100.477 72.7371 100.061 72.7379 99.627V18.198C72.7371 17.7638 72.5643 17.3476 72.2573 17.0406C71.9502 16.7336 71.5341 16.5608 71.0999 16.56H13.1729Z" fill="#EBEBEB"/>
<path d="M135.993 101.34H78.0631C77.609 101.339 77.1738 101.158 76.8527 100.837C76.5316 100.516 76.3509 100.081 76.3501 99.627V18.198C76.3548 17.7465 76.5373 17.3151 76.858 16.9973C77.1786 16.6794 77.6116 16.5008 78.0631 16.5H135.993C136.444 16.5016 136.876 16.6807 137.195 16.9985C137.515 17.3164 137.696 17.7473 137.7 18.198V99.627C137.7 100.08 137.52 100.515 137.2 100.836C136.881 101.157 136.446 101.338 135.993 101.34ZM78.0631 16.56C77.6289 16.5608 77.2127 16.7336 76.9057 17.0406C76.5987 17.3476 76.4259 17.7638 76.4251 18.198V99.627C76.4259 100.061 76.5987 100.477 76.9057 100.784C77.2127 101.091 77.6289 101.264 78.0631 101.265H135.993C136.427 101.264 136.843 101.091 137.15 100.784C137.457 100.477 137.63 100.061 137.631 99.627V18.198C137.63 17.7638 137.457 17.3476 137.15 17.0406C136.843 16.7336 136.427 16.5608 135.993 16.56H78.0631Z" fill="#EBEBEB"/>
<path d="M15.735 114.717H51.603L51.603 35.394H15.735L15.735 114.717Z" fill="#F0F0F0"/>
<path d="M15.738 114.717H49.905L49.905 35.394H15.738L15.738 114.717Z" fill="#F5F5F5"/>
<path d="M48.105 112.92L48.105 37.197H17.538L17.538 112.92H48.105Z" fill="#F0F0F0"/>
<path d="M27.4141 72.9H21.1831C20.9709 72.8992 20.7676 72.8146 20.6176 72.6645C20.4675 72.5145 20.3829 72.3112 20.3821 72.099C20.3829 71.8868 20.4675 71.6835 20.6176 71.5335C20.7676 71.3834 20.9709 71.2988 21.1831 71.298H27.4141C27.6263 71.2988 27.8296 71.3834 27.9796 71.5335C28.1296 71.6835 28.2143 71.8868 28.2151 72.099C28.2143 72.3112 28.1296 72.5145 27.9796 72.6645C27.8296 72.8146 27.6263 72.8992 27.4141 72.9Z" fill="white"/>
<path d="M18.0061 112.92L18.0061 37.197H17.5381L17.5381 112.92H18.0061Z" fill="#F0F0F0"/>
<path d="M68.409 113.214H73.749V90.054H68.409V113.214Z" fill="#F0F0F0"/>
<path d="M46.3889 114.684H72.7229V113.217H46.3889V114.684Z" fill="#F0F0F0"/>
<path d="M68.409 90.057H45.363V113.217H68.409V90.057Z" fill="#F5F5F5"/>
<path d="M66.306 92.907H47.46V100.503H66.306V92.907Z" fill="#F0F0F0"/>
<path d="M66.306 102.768H47.46V110.364H66.306V102.768Z" fill="#F0F0F0"/>
<path d="M54.768 93.546H59.001C59.1384 93.5452 59.27 93.4903 59.3671 93.3931C59.4643 93.296 59.5192 93.1644 59.52 93.027C59.52 92.8891 59.4654 92.7568 59.3682 92.659C59.2709 92.5611 59.1389 92.5058 59.001 92.505H54.768C54.6301 92.5058 54.4981 92.5611 54.4008 92.659C54.3036 92.7568 54.249 92.8891 54.249 93.027C54.2498 93.1644 54.3047 93.296 54.4019 93.3931C54.4991 93.4903 54.6306 93.5452 54.768 93.546Z" fill="#F5F5F5"/>
<path d="M54.768 103.41H59.001C59.1369 103.409 59.2671 103.356 59.364 103.26C59.4609 103.165 59.5169 103.036 59.52 102.9C59.5192 102.763 59.4643 102.631 59.3671 102.534C59.27 102.437 59.1384 102.382 59.001 102.381H54.768C54.6306 102.382 54.4991 102.437 54.4019 102.534C54.3047 102.631 54.2498 102.763 54.249 102.9C54.2521 103.036 54.3081 103.165 54.405 103.26C54.5019 103.356 54.6322 103.409 54.768 103.41Z" fill="#F5F5F5"/>
<path d="M58.6411 89.601C58.5363 89.6002 58.4361 89.5582 58.362 89.4841C58.2879 89.4101 58.2459 89.3098 58.2451 89.205V77.172C58.2451 77.067 58.2868 76.9662 58.3611 76.892C58.4354 76.8177 58.5361 76.776 58.6411 76.776C58.7459 76.7768 58.8462 76.8188 58.9203 76.8929C58.9944 76.9669 59.0363 77.0672 59.0371 77.172V89.205C59.0363 89.3098 58.9944 89.4101 58.9203 89.4841C58.8462 89.5582 58.7459 89.6002 58.6411 89.601Z" fill="#F5F5F5"/>
<path d="M62.346 89.133H54.936V90.066H62.346V89.133Z" fill="#F0F0F0"/>
<path d="M60.6931 82.401C60.6411 82.401 60.5912 82.3806 60.5542 82.3441C60.5171 82.3076 60.4959 82.258 60.4951 82.206V76.2C60.4959 76.1477 60.517 76.0978 60.554 76.0609C60.5909 76.0239 60.6408 76.0028 60.6931 76.002C60.7454 76.0028 60.7953 76.0239 60.8323 76.0609C60.8692 76.0978 60.8903 76.1477 60.8911 76.2V82.2C60.8915 82.2263 60.8867 82.2523 60.8769 82.2767C60.8671 82.3011 60.8526 82.3233 60.8342 82.342C60.8158 82.3607 60.7938 82.3755 60.7696 82.3857C60.7454 82.3958 60.7194 82.401 60.6931 82.401Z" fill="#F0F0F0"/>
<path d="M52.8779 78.27C52.8779 78.27 53.0249 72.6 58.6409 72.6C64.2569 72.6 64.4009 78.264 64.4009 78.264L52.8779 78.27Z" fill="#F0F0F0"/>
<path d="M101.493 86.28C101.652 86.28 101.814 86.28 101.976 86.295C103.635 86.4149 105.195 87.1303 106.369 88.3095C107.543 89.4886 108.251 91.0521 108.363 92.712C108.41 93.4661 108.335 94.2229 108.141 94.953C107.389 97.8816 107.026 100.897 107.061 103.92V112.722C107.061 112.874 107.032 113.025 106.973 113.166C106.915 113.307 106.83 113.435 106.722 113.543C106.614 113.65 106.485 113.736 106.344 113.794C106.203 113.851 106.052 113.881 105.9 113.88H77.9609V86.28H101.493Z" fill="#F0F0F0"/>
<path d="M71.0759 93.165C71.0789 92.1863 71.2905 91.2196 71.6968 90.3292C72.103 89.4388 72.6944 88.6453 73.4316 88.0017C74.1688 87.358 75.0348 86.879 75.9719 86.5966C76.9089 86.3141 77.8954 86.2348 78.8655 86.3639C79.8356 86.4929 80.767 86.8274 81.5976 87.345C82.4282 87.8626 83.1388 88.5514 83.6821 89.3654C84.2254 90.1794 84.5888 91.0999 84.7481 92.0655C84.9074 93.0311 84.8589 94.0196 84.6059 94.965C83.8563 97.894 83.4942 100.909 83.5289 103.932V112.734C83.5289 112.886 83.499 113.036 83.4407 113.177C83.3825 113.317 83.2971 113.444 83.1896 113.552C83.082 113.659 82.9543 113.744 82.8139 113.802C82.6734 113.86 82.5229 113.889 82.3709 113.889H73.5479C73.3963 113.889 73.2461 113.859 73.1059 113.801C72.9658 113.743 72.8385 113.658 72.7312 113.551C72.624 113.443 72.5389 113.316 72.4808 113.176C72.4228 113.036 72.3929 112.886 72.3929 112.734V103.404C72.4184 100.569 72.0591 97.7428 71.3249 95.004C71.1595 94.405 71.0757 93.7864 71.0759 93.165Z" fill="#F5F5F5"/>
<path d="M87.447 113.88H112.53V97.122H87.447V113.88Z" fill="#F0F0F0"/>
<path d="M133.26 100.914H99.687V75.213C99.687 73.8318 100.236 72.5071 101.212 71.5304C102.189 70.5537 103.514 70.005 104.895 70.005H128.052C129.433 70.005 130.758 70.5537 131.735 71.5304C132.711 72.5071 133.26 73.8318 133.26 75.213V100.914Z" fill="#E0E0E0"/>
<path d="M126.699 100.914H93.126V74.961C93.126 73.6458 93.6484 72.3845 94.5784 71.4545C95.5084 70.5245 96.7698 70.002 98.085 70.002H121.728C123.043 70.002 124.305 70.5245 125.235 71.4545C126.165 72.3845 126.687 73.6458 126.687 74.961V100.914H126.699Z" fill="#F5F5F5"/>
<path d="M110.892 102.417H87.771C87.3731 102.417 86.9916 102.259 86.7103 101.978C86.429 101.696 86.271 101.315 86.271 100.917V97.116C86.271 96.7182 86.429 96.3366 86.7103 96.0553C86.9916 95.774 87.3731 95.616 87.771 95.616H110.892C111.012 95.616 111.127 95.6637 111.212 95.7487C111.297 95.8336 111.345 95.9488 111.345 96.069V101.967C111.344 102.087 111.296 102.201 111.211 102.285C111.126 102.37 111.012 102.417 110.892 102.417Z" fill="#E0E0E0"/>
<path d="M135.735 86.28C135.894 86.28 136.053 86.28 136.218 86.295C137.877 86.4156 139.436 87.1313 140.609 88.3104C141.782 89.4895 142.49 91.0526 142.602 92.712C142.652 93.4661 142.577 94.2234 142.38 94.953C141.628 97.8826 141.264 100.899 141.3 103.923V112.725C141.3 112.877 141.27 113.027 141.212 113.168C141.154 113.308 141.068 113.435 140.961 113.543C140.853 113.65 140.725 113.735 140.585 113.793C140.444 113.851 140.294 113.88 140.142 113.88H112.2V86.28H135.735Z" fill="#F0F0F0"/>
<path d="M105.318 93.165C105.306 91.3708 105.995 89.6427 107.239 88.3492C108.482 87.0557 110.181 86.2989 111.975 86.2403C113.768 86.1816 115.513 86.8256 116.839 88.0351C118.164 89.2445 118.965 90.9238 119.07 92.715C119.117 93.4691 119.042 94.2259 118.848 94.956C118.096 97.8846 117.733 100.9 117.768 103.923V112.725C117.768 113.031 117.646 113.325 117.43 113.542C117.213 113.758 116.919 113.88 116.613 113.88H107.787C107.635 113.88 107.485 113.85 107.345 113.792C107.205 113.734 107.078 113.649 106.97 113.542C106.863 113.434 106.778 113.307 106.72 113.167C106.662 113.027 106.632 112.877 106.632 112.725V103.404C106.657 100.569 106.299 97.7432 105.567 95.004C105.402 94.405 105.318 93.7864 105.318 93.165Z" fill="#F5F5F5"/>
<path d="M78.45 114.72H135.243C135.353 114.72 135.462 114.698 135.564 114.656C135.666 114.614 135.758 114.552 135.836 114.474C135.914 114.396 135.975 114.303 136.017 114.201C136.059 114.099 136.08 113.99 136.08 113.88H77.613C77.6126 113.99 77.634 114.099 77.6759 114.201C77.7178 114.303 77.7794 114.396 77.8571 114.474C77.9349 114.552 78.0273 114.614 78.129 114.656C78.2308 114.698 78.3399 114.72 78.45 114.72Z" fill="#E0E0E0"/>
<path d="M112.086 50.361H130.353V30.438L112.086 30.438V50.361Z" fill="#E0E0E0"/>
<path d="M110.997 50.361H129.738V30.438L110.997 30.438V50.361Z" fill="#F5F5F5"/>
<path d="M128.166 48.792V32.007H112.563V48.792H128.166Z" fill="white"/>
<path d="M120.366 36.156L124.632 43.548H116.1L120.366 36.156Z" fill="#F5F5F5"/>
<path d="M86.46 61.992H104.727V42.069H86.46V61.992Z" fill="#E0E0E0"/>
<path d="M85.3711 61.992H104.112V42.069H85.3711V61.992Z" fill="#F5F5F5"/>
<path d="M102.54 60.423V43.638H86.937V60.423H102.54Z" fill="white"/>
<path d="M92.832 55.023L90.981 51.816C90.7885 51.4812 90.6873 51.1018 90.6877 50.7156C90.6882 50.3294 90.7901 49.9501 90.9834 49.6158C91.1767 49.2815 91.4546 49.0039 91.789 48.8108C92.1235 48.6178 92.5029 48.5161 92.889 48.516H96.6C96.9861 48.5165 97.3653 48.6184 97.6996 48.8114C98.034 49.0045 98.3118 49.2819 98.5053 49.616C98.6988 49.9501 98.8011 50.3291 98.8021 50.7152C98.8031 51.1013 98.7028 51.4809 98.511 51.816L96.66 55.023C96.4671 55.3603 96.1885 55.6406 95.8524 55.8355C95.5163 56.0305 95.1346 56.1332 94.746 56.1332C94.3575 56.1332 93.9758 56.0305 93.6397 55.8355C93.3036 55.6406 93.025 55.3603 92.832 55.023Z" fill="#F5F5F5"/>
<path d="M75 128.268C107.125 128.268 133.167 126.748 133.167 124.872C133.167 122.996 107.125 121.476 75 121.476C42.8753 121.476 16.833 122.996 16.833 124.872C16.833 126.748 42.8753 128.268 75 128.268Z" fill="#F5F5F5"/>
<path d="M94.9499 29.79H25.7939L30.3449 123.972H99.5009L94.9499 29.79Z" fill="#FAD632"/>
<path opacity="0.2" d="M94.9499 29.79H25.7939L30.3449 123.972H99.5009L94.9499 29.79Z" fill="black"/>
<path d="M95.5889 29.79H26.4329L30.9869 123.972H100.143L95.5889 29.79Z" fill="#FAD632"/>
<path opacity="0.2" d="M91.938 32.958H29.595L33.951 119.715L88.161 119.643L97.17 111.657L91.938 32.958Z" fill="black"/>
<path d="M92.415 32.955C93.0798 58.9369 95.178 84.8623 98.7 110.613C93.76 114.013 88.845 117.413 83.955 120.813H37.329C32.9281 91.7161 30.3451 62.3732 29.595 32.955H92.415Z" fill="white"/>
<path d="M98.6998 110.613C93.7598 114.013 88.8448 117.413 83.9548 120.813C85.0228 116.313 86.1358 111.813 87.2938 107.313L98.6998 110.613Z" fill="#EBEBEB"/>
<path d="M46.5 40.893C46.618 44.069 46.756 47.247 46.914 50.427H37.383C37.223 47.247 37.085 44.069 36.969 40.893H46.5ZM47.472 39.888H35.928C36.062 43.734 36.229 47.582 36.429 51.432H47.976C47.776 47.584 47.609 43.736 47.475 39.888H47.472Z" fill="#FAD632"/>
<path d="M85.4461 44.472H52.8001C52.7701 43.755 52.7431 43.035 52.7161 42.318H85.3591C85.3861 43.035 85.4161 43.755 85.4461 44.472Z" fill="#E0E0E0"/>
<path d="M78.5489 49.002H53.0009C52.9679 48.282 52.9319 47.565 52.9019 46.848H78.4469C78.4809 47.566 78.5149 48.284 78.5489 49.002Z" fill="#E0E0E0"/>
<path d="M47.436 59.565C47.636 62.745 47.859 65.925 48.105 69.105H38.571C38.325 65.925 38.102 62.745 37.902 59.565H47.436ZM48.378 58.56H36.834C37.07 62.41 37.339 66.26 37.641 70.11H49.2C48.9 66.262 48.63 62.412 48.39 58.56H48.378Z" fill="#FAD632"/>
<path d="M65.82 63.147H53.82C53.772 62.427 53.721 61.71 53.676 60.99H65.676C65.721 61.71 65.769 62.427 65.82 63.147Z" fill="#E0E0E0"/>
<path d="M77.1809 63.147H68.3579C68.3099 62.427 68.2589 61.71 68.2139 60.99H77.0369C77.0819 61.71 77.1299 62.427 77.1809 63.147Z" fill="#E0E0E0"/>
<path d="M82.719 67.68H54.15C54.096 66.96 54.045 66.243 53.991 65.523H82.56C82.614 66.243 82.665 66.96 82.719 67.68Z" fill="#E0E0E0"/>
<path d="M48.867 78.246C49.153 81.426 49.461 84.606 49.791 87.786H40.257C39.927 84.606 39.619 81.426 39.333 78.246H48.867ZM49.785 77.241H38.238C38.578 81.093 38.95 84.944 39.354 88.794H50.901C50.501 84.942 50.129 81.091 49.785 77.241Z" fill="#FAD632"/>
<path d="M88.2301 84.207H55.5811L55.7971 86.361H88.4461L88.2301 84.207Z" fill="#E0E0E0"/>
<path d="M80.6999 79.674H55.1519C55.2179 80.391 55.2839 81.111 55.3529 81.828H80.8979C80.8319 81.111 80.7629 80.4 80.6999 79.674Z" fill="#E0E0E0"/>
<path d="M50.7959 96.927C51.1679 100.107 51.5609 103.286 51.9749 106.464H42.4409C42.0269 103.288 41.6339 100.109 41.2619 96.927H50.7959ZM51.6959 95.922H40.1399C40.5799 99.774 41.0549 103.623 41.5649 107.469H53.0999C52.5939 103.623 52.1189 99.774 51.6749 95.922H51.6959Z" fill="#FAD632"/>
<path d="M90.0269 100.5H57.3779C57.2909 99.78 57.2039 99.063 57.1199 98.343H89.7659C89.8529 99.072 89.9369 99.789 90.0269 100.5Z" fill="#E0E0E0"/>
<path d="M72.8069 105.039H57.9449C57.8519 104.322 57.7619 103.602 57.6719 102.885H72.5339C72.6239 103.602 72.7139 104.322 72.8069 105.039Z" fill="#E0E0E0"/>
<path d="M81.681 105.039H75.264C75.171 104.322 75.081 103.602 74.991 102.885H81.408C81.498 103.602 81.6 104.322 81.681 105.039Z" fill="#E0E0E0"/>
<path d="M42.3 49.065L41.877 48.393C40.953 46.923 39.069 45.612 38.418 45.228L38.904 44.367C40.1812 45.1426 41.3223 46.1226 42.282 47.268C43.734 45.291 45.882 43.248 48.822 41.052L49.443 41.862C46.305 44.211 44.109 46.362 42.723 48.432L42.3 49.065Z" fill="#FAD632"/>
<path d="M43.44 67.743L42.999 67.071C42.039 65.601 40.119 64.287 39.459 63.903L39.918 63.042C41.2195 63.8179 42.3875 64.7984 43.377 65.946C44.775 63.966 46.866 61.923 49.749 59.724C49.962 59.994 50.178 60.264 50.391 60.537C47.316 62.889 45.177 65.037 43.848 67.11C43.71 67.32 43.575 67.533 43.44 67.743Z" fill="#FAD632"/>
<path d="M45.096 86.472L44.637 85.8C43.635 84.33 41.679 83.016 41.01 82.635C41.154 82.335 41.31 82.059 41.448 81.774C42.7699 82.5511 43.9622 83.5299 44.982 84.675C46.329 82.695 48.366 80.655 51.186 78.453L51.852 79.266C48.852 81.618 46.752 83.766 45.483 85.839L45.096 86.472Z" fill="#FAD632"/>
<path d="M75.3389 115.638C73.5689 115.638 72.5489 114.984 71.6489 114.408C70.7489 113.832 69.9749 113.334 68.4809 113.334C66.9869 113.334 66.3209 113.856 65.6159 114.408C64.9109 114.96 64.0469 115.638 62.2769 115.638C60.5069 115.638 59.4869 114.984 58.5899 114.408C57.6929 113.832 56.9189 113.334 55.4219 113.334C53.9249 113.334 53.2619 113.856 52.5569 114.408C51.8519 114.96 50.9879 115.638 49.2209 115.638C47.4539 115.638 46.4309 114.984 45.5309 114.408C44.6309 113.832 43.8599 113.334 42.3629 113.334C42.3239 113.034 42.2819 112.758 42.2429 112.47C44.0129 112.47 45.0299 113.124 45.9299 113.7C46.8299 114.276 47.6009 114.774 49.0949 114.774C50.5889 114.774 51.2549 114.252 51.9599 113.7C52.6649 113.148 53.5319 112.47 55.3019 112.47C57.0719 112.47 58.0859 113.124 58.9859 113.7C59.8859 114.276 60.6599 114.774 62.1539 114.774C63.6479 114.774 64.3139 114.252 65.0189 113.7C65.7239 113.148 66.5909 112.47 68.3609 112.47C70.1309 112.47 71.1479 113.124 72.0479 113.7C72.9479 114.276 73.7189 114.774 75.2159 114.774C75.2549 115.062 75.2999 115.35 75.3389 115.638Z" fill="#EBEBEB"/>
<path d="M77.877 32.121C76.863 29.421 74.52 27.648 72 27.648H66.864C66.4817 27.6447 66.1087 27.5292 65.7914 27.3159C65.4741 27.1025 65.2264 26.8008 65.079 26.448C64.7159 25.5857 64.1088 24.8484 63.3322 24.3266C62.5557 23.8048 61.6435 23.5213 60.708 23.511C59.803 23.5018 58.9187 23.7817 58.1837 24.31C57.4488 24.8382 56.9017 25.5872 56.622 26.448C56.508 26.8002 56.2843 27.1066 55.9837 27.3226C55.683 27.5385 55.3211 27.6525 54.951 27.648H49.818C47.295 27.648 45.123 29.43 44.373 32.121L44.073 33.192H78.273L77.877 32.121Z" fill="#263238"/>
<path d="M78.06 34.248H44.4C44.1161 34.2447 43.844 34.1339 43.6386 33.9379C43.4332 33.742 43.3096 33.4754 43.293 33.192C43.2856 33.0558 43.3062 32.9196 43.3534 32.7917C43.4007 32.6638 43.4737 32.5469 43.5678 32.4482C43.662 32.3496 43.7753 32.2713 43.9009 32.2181C44.0265 32.1649 44.1616 32.138 44.298 32.139H77.958C78.2414 32.1423 78.513 32.2526 78.7184 32.448C78.9237 32.6433 79.0476 32.9091 79.065 33.192C79.0728 33.3284 79.0525 33.465 79.0054 33.5933C78.9583 33.7215 78.8855 33.8388 78.7913 33.9377C78.6971 34.0367 78.5836 34.1153 78.4578 34.1687C78.332 34.2221 78.1966 34.2491 78.06 34.248Z" fill="#FAD632"/>
<path opacity="0.2" d="M78.06 34.248H44.4C44.1161 34.2447 43.844 34.1339 43.6386 33.9379C43.4332 33.742 43.3096 33.4754 43.293 33.192C43.2856 33.0558 43.3062 32.9196 43.3534 32.7917C43.4007 32.6638 43.4737 32.5469 43.5678 32.4482C43.662 32.3496 43.7753 32.2713 43.9009 32.2181C44.0265 32.1649 44.1616 32.138 44.298 32.139H77.958C78.2414 32.1423 78.513 32.2526 78.7184 32.448C78.9237 32.6433 79.0476 32.9091 79.065 33.192C79.0728 33.3284 79.0525 33.465 79.0054 33.5933C78.9583 33.7215 78.8855 33.8388 78.7913 33.9377C78.6971 34.0367 78.5836 34.1153 78.4578 34.1687C78.332 34.2221 78.1966 34.2491 78.06 34.248Z" fill="black"/>
<path d="M108.276 123.069H106.077L105.858 117.978H108.057L108.276 123.069Z" fill="#FFC3BD"/>
<path d="M121.473 123.069H119.274L118.17 117.978H120.366L121.473 123.069Z" fill="#FFC3BD"/>
<path d="M119.118 122.814H121.587C121.63 122.814 121.673 122.829 121.707 122.856C121.741 122.883 121.764 122.921 121.773 122.964L122.208 124.92C122.218 124.967 122.217 125.017 122.205 125.064C122.194 125.111 122.172 125.155 122.141 125.192C122.11 125.229 122.071 125.259 122.027 125.28C121.983 125.3 121.935 125.311 121.887 125.31C121.026 125.295 120.606 125.244 119.52 125.244C118.851 125.244 117.474 125.313 116.553 125.313C115.632 125.313 115.509 124.413 115.887 124.32C117.582 123.948 118.218 123.438 118.761 122.949C118.86 122.862 118.986 122.814 119.118 122.814Z" fill="#263238"/>
<path d="M106.092 122.814H108.492C108.535 122.814 108.578 122.829 108.612 122.856C108.646 122.883 108.669 122.921 108.678 122.964L109.113 124.92C109.124 124.966 109.124 125.013 109.114 125.059C109.104 125.106 109.084 125.149 109.055 125.186C109.027 125.223 108.99 125.254 108.948 125.275C108.906 125.297 108.86 125.309 108.813 125.31C107.946 125.295 106.695 125.244 105.606 125.244C104.334 125.244 103.236 125.313 101.742 125.313C100.842 125.313 100.59 124.413 100.968 124.32C102.687 123.942 104.091 123.903 105.576 122.985C105.73 122.883 105.908 122.824 106.092 122.814Z" fill="#263238"/>
<path d="M110.4 42.876C110.1 44.484 109.926 46.476 111.051 47.55C111.051 47.55 110.406 49.182 107.418 49.182C104.688 49.182 106.056 47.55 106.056 47.55C107.856 47.121 107.754 44.904 107.442 43.65L110.4 42.876Z" fill="#FFC3BD"/>
<path d="M105.198 47.775C105.258 47.376 105.96 46.911 106.758 46.737C107.556 46.563 110.622 46.176 111.558 46.563C112.494 46.95 111.396 48.096 111.396 48.096L105.198 47.775Z" fill="#FAD632"/>
<path opacity="0.4" d="M105.198 47.775C105.258 47.376 105.96 46.911 106.758 46.737C107.556 46.563 110.622 46.176 111.558 46.563C112.494 46.95 111.396 48.096 111.396 48.096L105.198 47.775Z" fill="white"/>
<path opacity="0.2" d="M105.858 117.981L105.972 120.603H108.171L108.057 117.981H105.858Z" fill="black"/>
<path opacity="0.2" d="M120.369 117.981H118.17L118.74 120.603H120.939L120.369 117.981Z" fill="black"/>
<path d="M115.605 49.53L112.956 51.3C112.956 51.3 116.76 58.065 116.442 59.148C116.007 60.624 115.401 63.849 114.576 65.487C114.684 65.841 115.233 66.648 115.539 66.786C117.639 65.19 119.76 60.186 119.682 58.785C119.499 55.608 115.605 49.53 115.605 49.53Z" fill="#FFC3BD"/>
<path d="M114.576 65.493L112.476 65.331L113.577 67.644C113.577 67.644 115.41 67.725 115.716 66.324L114.576 65.493Z" fill="#B55B52"/>
<path d="M124.956 76.773L124.779 77.106L123.591 79.353L81.417 57.054L82.779 54.474L124.956 76.773Z" fill="#FAD632"/>
<path d="M127.683 71.622L126.813 73.266L126.321 74.196L84.1438 51.897L85.5058 49.317L127.683 71.622Z" fill="#FAD632"/>
<path d="M84.1579 51.8894L82.793 54.4662L124.953 76.798L126.318 74.2212L84.1579 51.8894Z" fill="#FAD632"/>
<path opacity="0.2" d="M84.1579 51.8894L82.793 54.4662L124.953 76.798L126.318 74.2212L84.1579 51.8894Z" fill="black"/>
<path d="M79.5988 49.659L78.3718 51.981L81.4168 57.054L85.5058 49.32L79.5988 49.659Z" fill="#FAD632"/>
<path opacity="0.8" d="M79.5988 49.659L78.3718 51.981L81.4168 57.054L85.5058 49.32L79.5988 49.659Z" fill="white"/>
<path d="M77.0669 49.806L78.3719 51.981L79.5989 49.659L77.0669 49.806Z" fill="#FAD632"/>
<path d="M110.787 66.384L111.885 68.43L113.586 67.644L112.485 65.331L110.787 66.384Z" fill="#B55B52"/>
<path d="M114.975 48.048C117.054 48.348 119.436 55.548 119.436 55.548L115.068 58.014C115.068 58.014 113.145 54.6 112.2 52.05C111.204 49.383 112.746 47.724 114.975 48.048Z" fill="#263238"/>
<path opacity="0.2" d="M113.766 50.517C112.821 49.653 113.4 53.352 113.85 55.719C114.081 56.181 114.3 56.601 114.486 56.952C115.539 55.092 115.068 51.708 113.766 50.517Z" fill="black"/>
<path d="M102.663 48.162C102.663 48.162 100.068 54.798 102.531 67.158H114.3C114.381 65.358 113.247 56.55 114.987 48.048C113.687 47.797 112.372 47.6307 111.051 47.55C109.387 47.4539 107.72 47.4539 106.056 47.55C104.911 47.6645 103.776 47.8691 102.663 48.162Z" fill="#263238"/>
<path d="M104.472 51.246L101.508 50.073C101.508 50.073 98.0939 57.042 97.0079 57.393C95.5469 57.873 92.5469 59.193 90.7289 59.451C90.5009 59.751 90.1469 60.651 90.2039 60.981C92.7089 61.8 98.0399 60.714 99.1439 59.856C101.676 57.9 104.472 51.246 104.472 51.246Z" fill="#FFC3BD"/>
<path opacity="0.2" d="M104.805 50.454C104.316 49.326 103.38 48.855 102.405 49.02C102.027 50.403 101.388 53.442 101.505 58.02L102.204 58.356C102.204 58.356 105.642 52.383 104.805 50.454Z" fill="black"/>
<path d="M105.273 49.665C106.011 51.633 102.273 57.423 102.273 57.423L97.875 55.023C98.5357 53.2221 99.3876 51.4973 100.416 49.878C101.961 47.571 104.46 47.508 105.273 49.665Z" fill="#263238"/>
<path d="M90.8369 59.445L88.2209 60L89.5469 62.421C90.2781 62.0572 90.9425 61.5724 91.5119 60.987L90.8369 59.445Z" fill="#FFC3BD"/>
<path d="M86.9849 60.549L88.0289 61.995L89.5469 62.433L88.2209 60.012L86.9849 60.549Z" fill="#FFC3BD"/>
<path d="M105.414 40.563C105.414 40.74 105.303 40.863 105.186 40.863C105.069 40.863 104.985 40.707 104.997 40.53C105.009 40.353 105.108 40.23 105.225 40.23C105.342 40.23 105.426 40.386 105.414 40.563Z" fill="#263238"/>
<path d="M105.57 40.578C105.328 41.1066 105.014 41.5992 104.637 42.042C104.753 42.1357 104.888 42.2028 105.032 42.2386C105.177 42.2744 105.328 42.2779 105.474 42.249L105.57 40.578Z" fill="#ED847E"/>
<path d="M105.189 39.951C105.173 39.9476 105.158 39.9415 105.144 39.933C105.132 39.9257 105.122 39.9161 105.114 39.9048C105.107 39.8936 105.101 39.8808 105.098 39.8674C105.096 39.8539 105.095 39.8401 105.098 39.8266C105.101 39.8131 105.106 39.8003 105.114 39.789C105.201 39.6485 105.32 39.5307 105.461 39.4451C105.603 39.3596 105.762 39.3088 105.927 39.297C105.954 39.2984 105.98 39.31 106 39.3294C106.019 39.3487 106.031 39.3746 106.032 39.402C106.032 39.4298 106.021 39.4566 106.001 39.4762C105.982 39.4959 105.955 39.507 105.927 39.507C105.799 39.5189 105.676 39.5607 105.567 39.6289C105.458 39.6972 105.367 39.79 105.3 39.9C105.289 39.919 105.273 39.9342 105.253 39.9433C105.233 39.9524 105.211 39.9551 105.189 39.951Z" fill="#263238"/>
<path d="M111.378 40.41C111.12 42.576 111.078 43.854 109.917 44.91C108.168 46.494 105.543 45.345 105.147 43.143C104.793 41.163 105.276 37.956 107.454 37.212C107.933 37.0462 108.447 37.0056 108.946 37.094C109.445 37.1825 109.914 37.3971 110.307 37.7175C110.7 38.0379 111.005 38.4534 111.192 38.9246C111.38 39.3958 111.443 39.9071 111.378 40.41Z" fill="#FFC3BD"/>
<path d="M107.013 40.833C106.254 40.983 105.042 39.297 106.032 37.866C105.531 37.617 103.896 38.601 103.281 37.683C102.666 36.765 104.373 36.276 104.046 35.499C105.204 35.736 103.296 37.182 104.397 37.041C105.498 36.9 106.767 34.866 107.997 35.7C110.172 37.161 113.136 34.725 111.927 37.776C113.409 37.476 114.423 39.228 113.01 40.443C110.193 42.858 111.927 43.176 110.142 43.299C109.248 43.365 107.169 42.3 107.013 40.833Z" fill="#263238"/>
<path d="M108.138 41.4C108.034 41.6165 107.888 41.8101 107.708 41.9693C107.528 42.1285 107.318 42.2501 107.091 42.327C106.491 42.534 106.146 41.997 106.287 41.406C106.413 40.872 106.887 40.122 107.508 40.176C107.644 40.1893 107.775 40.2366 107.888 40.3135C108.001 40.3904 108.094 40.4945 108.156 40.6163C108.219 40.7381 108.25 40.8736 108.247 41.0105C108.244 41.1474 108.206 41.2813 108.138 41.4Z" fill="#FFC3BD"/>
<path d="M106.701 67.158C106.701 67.158 109.197 83.958 110.565 90.258C112.065 97.158 117.714 120.105 117.714 120.105H121.74C121.74 120.105 118.017 97.707 117.159 90.882C116.232 83.478 114.288 67.167 114.288 67.167L106.701 67.158Z" fill="#FAD632"/>
<path opacity="0.2" d="M106.701 67.158C106.701 67.158 109.197 83.958 110.565 90.258C112.065 97.158 117.714 120.105 117.714 120.105H121.74C121.74 120.105 118.017 97.707 117.159 90.882C116.232 83.478 114.288 67.167 114.288 67.167L106.701 67.158Z" fill="white"/>
<path opacity="0.2" d="M109.665 73.032C109.479 72.768 109.311 72.678 109.155 72.732H109.122C109.086 72.7475 109.053 72.7677 109.023 72.792C108.991 72.8179 108.962 72.8471 108.936 72.879L108.888 72.939L108.825 73.038C108.773 73.1253 108.728 73.2166 108.69 73.311C108.666 73.368 108.642 73.428 108.621 73.488C108.6 73.548 108.567 73.641 108.543 73.725C108.519 73.809 108.474 73.953 108.441 74.076C108.441 74.109 108.426 74.139 108.417 74.172C108.408 74.205 108.384 74.31 108.369 74.379C108.354 74.448 108.342 74.499 108.33 74.559C108.303 74.676 108.279 74.799 108.255 74.925C108.231 75.051 108.204 75.198 108.18 75.339C108.18 75.387 108.165 75.435 108.156 75.486C108.126 75.666 108.099 75.849 108.072 76.038C108.738 80.22 109.53 85.014 110.172 88.359C110.202 88.251 110.235 88.137 110.262 88.014C110.393 87.4559 110.493 86.8911 110.562 86.322C111.129 82.011 110.868 74.751 109.665 73.032Z" fill="black"/>
<path d="M102.531 67.158C102.531 67.158 102.231 83.592 102.468 90.297C102.717 97.269 105.153 120.096 105.153 120.096H108.876C108.876 120.096 109.011 97.674 109.176 90.828C109.356 83.364 110.256 67.158 110.256 67.158H102.531Z" fill="#FAD632"/>
<path opacity="0.2" d="M102.531 67.158C102.531 67.158 102.231 83.592 102.468 90.297C102.717 97.269 105.153 120.096 105.153 120.096H108.876C108.876 120.096 109.011 97.674 109.176 90.828C109.356 83.364 110.256 67.158 110.256 67.158H102.531Z" fill="white"/>
<path d="M109.122 118.956C109.137 118.956 109.122 120.171 109.122 120.171H104.829L104.649 118.806L109.122 118.956Z" fill="#263238"/>
<path d="M121.74 119.046C121.758 119.046 121.941 120.171 121.941 120.171H117.516L117.126 118.881L121.74 119.046Z" fill="#263238"/>
<path d="M118.392 123.198C118.242 123.21 118.093 123.171 117.969 123.087C117.929 123.054 117.897 123.012 117.879 122.963C117.86 122.915 117.854 122.862 117.861 122.811C117.861 122.781 117.87 122.752 117.885 122.726C117.9 122.7 117.922 122.679 117.948 122.664C118.191 122.541 118.902 122.964 118.983 123.024C118.991 123.03 118.998 123.038 119.001 123.048C119.005 123.058 119.006 123.068 119.004 123.078C119.002 123.088 118.998 123.098 118.991 123.105C118.984 123.112 118.975 123.118 118.965 123.12C118.777 123.167 118.585 123.193 118.392 123.198ZM118.065 122.745C118.042 122.74 118.019 122.74 117.996 122.745C117.986 122.751 117.977 122.76 117.971 122.77C117.965 122.781 117.962 122.793 117.963 122.805C117.958 122.84 117.963 122.876 117.975 122.909C117.988 122.942 118.008 122.971 118.035 122.994C118.28 123.108 118.559 123.123 118.815 123.036C118.586 122.892 118.331 122.793 118.065 122.745Z" fill="#FAD632"/>
<path d="M118.953 123.123C118.945 123.126 118.937 123.126 118.929 123.123C118.701 123 118.263 122.523 118.308 122.274C118.316 122.236 118.336 122.202 118.366 122.177C118.396 122.152 118.434 122.139 118.473 122.139C118.512 122.133 118.553 122.136 118.591 122.147C118.63 122.159 118.665 122.178 118.695 122.205C118.95 122.412 118.995 123.048 118.995 123.075C118.995 123.084 118.992 123.093 118.988 123.102C118.984 123.11 118.978 123.117 118.971 123.123C118.965 123.124 118.959 123.124 118.953 123.123ZM118.509 122.223H118.5C118.431 122.223 118.425 122.262 118.422 122.277C118.395 122.421 118.674 122.784 118.902 122.955C118.886 122.705 118.795 122.465 118.641 122.268C118.622 122.251 118.599 122.239 118.575 122.233C118.55 122.226 118.525 122.225 118.5 122.229L118.509 122.223Z" fill="#FAD632"/>
<path d="M105.177 123.198C104.989 123.215 104.8 123.168 104.643 123.063C104.608 123.031 104.582 122.992 104.565 122.948C104.548 122.905 104.542 122.858 104.547 122.811C104.547 122.783 104.555 122.755 104.57 122.73C104.585 122.706 104.606 122.686 104.631 122.673C104.898 122.523 105.783 122.973 105.882 123.024C105.892 123.029 105.9 123.036 105.905 123.046C105.91 123.056 105.911 123.067 105.909 123.078C105.908 123.089 105.903 123.099 105.895 123.106C105.888 123.114 105.878 123.119 105.867 123.12C105.64 123.168 105.409 123.195 105.177 123.198ZM104.778 122.745C104.745 122.744 104.712 122.75 104.682 122.763C104.672 122.769 104.664 122.777 104.658 122.787C104.652 122.797 104.649 122.808 104.649 122.82C104.645 122.851 104.648 122.882 104.659 122.911C104.67 122.939 104.688 122.965 104.712 122.985C104.847 123.105 105.21 123.126 105.696 123.045C105.409 122.894 105.099 122.793 104.778 122.745Z" fill="#FAD632"/>
<path d="M105.858 123.123H105.837C105.57 123.003 105.045 122.523 105.087 122.28C105.087 122.223 105.138 122.148 105.279 122.136C105.332 122.128 105.387 122.132 105.438 122.147C105.49 122.162 105.538 122.188 105.579 122.223C105.858 122.454 105.915 123.045 105.918 123.072C105.919 123.081 105.918 123.09 105.914 123.098C105.91 123.106 105.904 123.112 105.897 123.117C105.885 123.124 105.871 123.126 105.858 123.123ZM105.321 122.223H105.3C105.207 122.223 105.201 122.268 105.198 122.283C105.174 122.43 105.531 122.805 105.798 122.967C105.772 122.715 105.667 122.478 105.498 122.289C105.447 122.251 105.385 122.23 105.321 122.229V122.223Z" fill="#FAD632"/>
</svg>
