<svg width="100" height="100" viewBox="0 0 150 150" fill="none" xmlns="http://www.w3.org/2000/svg">
<path d="M150 114.72H0V114.795H150V114.72Z" fill="#EBEBEB"/>
<path d="M94.701 116.763H87.063V116.838H94.701V116.763Z" fill="#EBEBEB"/>
<path d="M136.632 118.386H118.533V118.461H136.632V118.386Z" fill="#EBEBEB"/>
<path d="M85.437 116.799H66.738V116.874H85.437V116.799Z" fill="#EBEBEB"/>
<path d="M54.6119 119.043H50.7V119.118H54.6119V119.043Z" fill="#EBEBEB"/>
<path d="M76.2271 119.043H58.4131V119.118H76.2271V119.043Z" fill="#EBEBEB"/>
<path d="M27.273 117.777H15.738V117.852H27.273V117.777Z" fill="#EBEBEB"/>
<path d="M71.0999 101.34H13.1729C12.7191 101.339 12.2842 101.158 11.9636 100.837C11.643 100.516 11.4629 100.081 11.4629 99.627V18.198C11.4668 17.7468 11.6486 17.3154 11.9688 16.9975C12.289 16.6795 12.7217 16.5008 13.1729 16.5H71.0999C71.5542 16.5 71.9899 16.6805 72.3112 17.0017C72.6324 17.323 72.8129 17.7587 72.8129 18.213V99.627C72.8129 100.081 72.6324 100.517 72.3112 100.838C71.9899 101.16 71.5542 101.34 71.0999 101.34ZM13.1729 16.56C12.739 16.5608 12.3231 16.7337 12.0166 17.0408C11.7101 17.3479 11.5379 17.7641 11.5379 18.198V99.627C11.5379 100.061 11.7101 100.477 12.0166 100.784C12.3231 101.091 12.739 101.264 13.1729 101.265H71.0999C71.5341 101.264 71.9502 101.091 72.2573 100.784C72.5643 100.477 72.7371 100.061 72.7379 99.627V18.198C72.7371 17.7638 72.5643 17.3476 72.2573 17.0406C71.9502 16.7336 71.5341 16.5608 71.0999 16.56H13.1729Z" fill="#EBEBEB"/>
<path d="M135.993 101.34H78.0631C77.609 101.339 77.1738 101.158 76.8527 100.837C76.5316 100.516 76.3509 100.081 76.3501 99.627V18.198C76.3548 17.7465 76.5373 17.3151 76.858 16.9973C77.1786 16.6794 77.6116 16.5008 78.0631 16.5H135.993C136.444 16.5016 136.876 16.6807 137.195 16.9985C137.515 17.3164 137.696 17.7473 137.7 18.198V99.627C137.7 100.08 137.52 100.515 137.2 100.836C136.881 101.157 136.446 101.338 135.993 101.34ZM78.0631 16.56C77.6289 16.5608 77.2127 16.7336 76.9057 17.0406C76.5987 17.3476 76.4259 17.7638 76.4251 18.198V99.627C76.4259 100.061 76.5987 100.477 76.9057 100.784C77.2127 101.091 77.6289 101.264 78.0631 101.265H135.993C136.427 101.264 136.843 101.091 137.15 100.784C137.457 100.477 137.63 100.061 137.631 99.627V18.198C137.63 17.7638 137.457 17.3476 137.15 17.0406C136.843 16.7336 136.427 16.5608 135.993 16.56H78.0631Z" fill="#EBEBEB"/>
<path d="M36.186 76.971C36.186 76.971 36.054 80.871 30.9 80.871C25.746 80.871 25.614 76.971 25.614 76.971H36.186Z" fill="#F0F0F0"/>
<path d="M48.6809 76.971C48.6809 76.971 48.5459 80.871 43.3949 80.871C38.2439 80.871 38.1089 76.971 38.1089 76.971H48.6809Z" fill="#F0F0F0"/>
<path d="M33.2311 83.445H21.4021V112.062H33.2311V83.445Z" fill="#F0F0F0"/>
<path d="M61.9261 112.062H23.6731V114.72H61.9261V112.062Z" fill="#F0F0F0"/>
<path d="M33.231 112.065H64.197V83.448H33.231V112.065Z" fill="#F5F5F5"/>
<path d="M37.8841 95.733H59.5471V86.928H37.8841V95.733Z" fill="#F0F0F0"/>
<path d="M37.8841 107.046H59.5471V98.241H37.8841V107.046Z" fill="#F0F0F0"/>
<path d="M65.772 80.88H33.231V83.445H65.772V80.88Z" fill="#F0F0F0"/>
<path d="M19.749 83.448H33.231V80.883H19.749V83.448Z" fill="#E6E6E6"/>
<path d="M117.63 22.788H57.345V66.066H117.63V22.788Z" fill="#FAFAFA"/>
<path d="M60.7739 66.066L76.1099 22.788H87.6179L72.2819 66.066H60.7739Z" fill="white"/>
<path d="M91.719 66.066L107.052 22.788H111.249L95.916 66.066H91.719Z" fill="white"/>
<path d="M120.504 21.3H54.4709C54.3998 21.3 54.3316 21.328 54.2811 21.378C54.2305 21.428 54.2017 21.4959 54.2009 21.567C54.2009 21.6025 54.2079 21.6376 54.2215 21.6703C54.2351 21.7031 54.2549 21.7329 54.28 21.7579C54.3051 21.783 54.3348 21.8029 54.3676 21.8164C54.4004 21.83 54.4355 21.837 54.4709 21.837H120.504C120.539 21.837 120.575 21.83 120.607 21.8164C120.64 21.8029 120.67 21.783 120.695 21.7579C120.72 21.7329 120.74 21.7031 120.753 21.6703C120.767 21.6376 120.774 21.6025 120.774 21.567C120.773 21.4959 120.744 21.428 120.694 21.378C120.643 21.328 120.575 21.3 120.504 21.3Z" fill="#E0E0E0"/>
<path d="M87.1319 66.159H87.8459V22.695H87.1319V66.159Z" fill="#F0F0F0"/>
<path d="M87.843 66.159H88.2V22.695H87.843V66.159Z" fill="#E0E0E0"/>
<path d="M56.928 44.073V44.787L118.047 44.787V44.073L56.928 44.073Z" fill="#F0F0F0"/>
<path d="M118.047 65.769V22.371H56.928V65.769V66.483H118.047V65.769ZM57.642 65.769V23.1H117.342V65.769H57.642Z" fill="#F0F0F0"/>
<path d="M118.047 66.483H118.404V22.371H118.047V66.483Z" fill="#E0E0E0"/>
<path opacity="0.5" d="M109.185 20.646V71.469H122.088L119.721 20.646H109.185Z" fill="#EBEBEB"/>
<path opacity="0.5" d="M66.1469 20.646V71.469H53.2439L55.6109 20.646H66.1469Z" fill="#EBEBEB"/>
<path d="M137.715 78.201H74.3669V88.644H137.715V78.201Z" fill="#EBEBEB"/>
<path d="M136.95 78.822H113.646V88.023H136.95V78.822Z" fill="#F5F5F5"/>
<path d="M112.818 78.822H89.5139V88.023H112.818V78.822Z" fill="#F5F5F5"/>
<path d="M87.222 114.72H85.824L88.815 88.644H90.213L87.222 114.72Z" fill="#F5F5F5"/>
<path d="M74.901 114.72H73.5L76.491 88.644H77.892L74.901 114.72Z" fill="#F5F5F5"/>
<path d="M124.857 114.72H126.258L123.267 88.644H121.866L124.857 114.72Z" fill="#F5F5F5"/>
<path d="M137.178 114.72H138.579L135.588 88.644H134.187L137.178 114.72Z" fill="#F5F5F5"/>
<path d="M104.931 66.699H100.032L97.9919 78.201H102.891L104.931 66.699Z" fill="#E0E0E0"/>
<path d="M115.827 56.7H88.428L89.262 73.368H116.661L115.827 56.7Z" fill="#E6E6E6"/>
<path d="M115.197 57.096H89.0969L89.8919 72.972H115.992L115.197 57.096Z" fill="#FAFAFA"/>
<path d="M122.742 76.809H123.273C123.392 76.809 123.489 76.7123 123.489 76.593V76.581C123.489 76.4617 123.392 76.365 123.273 76.365H122.742C122.623 76.365 122.526 76.4617 122.526 76.581V76.593C122.526 76.7123 122.623 76.809 122.742 76.809Z" fill="#E0E0E0"/>
<path d="M133.167 57.522L127.227 63.462C126.439 62.6743 125.997 61.606 125.997 60.492C125.997 59.378 126.439 58.3097 127.227 57.522C128.015 56.7343 129.083 56.2918 130.197 56.2918C131.311 56.2918 132.379 56.7343 133.167 57.522Z" fill="#E6E6E6"/>
<path d="M124.917 58.2L127.233 60.516L130.233 57.516L127.917 55.203C127.72 55.0056 127.487 54.849 127.229 54.7421C126.972 54.6353 126.696 54.5803 126.417 54.5803C126.138 54.5803 125.862 54.6353 125.605 54.7421C125.348 54.849 125.114 55.0056 124.917 55.203C124.72 55.3997 124.564 55.6333 124.457 55.8904C124.351 56.1475 124.296 56.4231 124.296 56.7015C124.296 56.9798 124.351 57.2554 124.457 57.5126C124.564 57.7697 124.72 58.0033 124.917 58.2Z" fill="#E6E6E6"/>
<path d="M114.679 64.6962L115.034 65.0504L124.919 55.1651L124.565 54.8108L114.679 64.6962Z" fill="#E6E6E6"/>
<path d="M121.728 77.0745L122.159 76.8189L115.028 64.7945L114.597 65.05L121.728 77.0745Z" fill="#E6E6E6"/>
<path d="M124.917 56.079C125.394 56.079 125.781 55.6922 125.781 55.215C125.781 54.7378 125.394 54.351 124.917 54.351C124.44 54.351 124.053 54.7378 124.053 55.215C124.053 55.6922 124.44 56.079 124.917 56.079Z" fill="#E6E6E6"/>
<path d="M114.846 65.436C115.151 65.436 115.398 65.1889 115.398 64.884C115.398 64.5791 115.151 64.332 114.846 64.332C114.541 64.332 114.294 64.5791 114.294 64.884C114.294 65.1889 114.541 65.436 114.846 65.436Z" fill="#E6E6E6"/>
<path d="M119.775 76.584H123.846L124.167 78.201H119.457L119.775 76.584Z" fill="#E6E6E6"/>
<path d="M75 128.268C107.125 128.268 133.167 126.748 133.167 124.872C133.167 122.996 107.125 121.476 75 121.476C42.8753 121.476 16.833 122.996 16.833 124.872C16.833 126.748 42.8753 128.268 75 128.268Z" fill="#F5F5F5"/>
<path d="M102.993 75.537H31.4281C30.4677 75.5297 29.5475 75.1507 28.8606 74.4794C28.1737 73.8082 27.7736 72.897 27.7441 71.937L26.8051 31.401C26.7931 30.932 26.8752 30.4654 27.0466 30.0287C27.2179 29.592 27.4751 29.1941 27.8029 28.8585C28.1307 28.5229 28.5224 28.2564 28.9549 28.0748C29.3874 27.8931 29.852 27.8 30.3211 27.801H101.886C102.846 27.8083 103.767 28.1874 104.454 28.8586C105.14 29.5298 105.541 30.441 105.57 31.401L106.5 71.937C106.512 72.4052 106.43 72.8711 106.259 73.3072C106.089 73.7433 105.832 74.1408 105.505 74.4763C105.179 74.8117 104.788 75.0784 104.357 75.2606C103.925 75.4428 103.461 75.5368 102.993 75.537Z" fill="#459C72"/>
<path d="M102.993 75.687H31.4281C30.4295 75.6797 29.4727 75.2855 28.7588 74.5872C28.0449 73.889 27.6295 72.9412 27.6001 71.943L26.6551 31.404C26.6422 30.915 26.7276 30.4284 26.9062 29.9729C27.0848 29.5175 27.3529 29.1026 27.6948 28.7526C28.0366 28.4027 28.4452 28.1249 28.8963 27.9357C29.3474 27.7464 29.8319 27.6496 30.3211 27.651H101.886C102.886 27.6568 103.845 28.0508 104.56 28.7498C105.275 29.4488 105.691 30.3983 105.72 31.398L106.659 71.934C106.672 72.423 106.587 72.9097 106.408 73.3651C106.229 73.8205 105.961 74.2355 105.619 74.5854C105.278 74.9354 104.869 75.2132 104.418 75.4024C103.967 75.5916 103.482 75.6884 102.993 75.687ZM30.3211 27.951C29.8718 27.9496 29.4268 28.0385 29.0125 28.2122C28.5982 28.386 28.2229 28.6412 27.9091 28.9626C27.5952 29.2841 27.349 29.6653 27.1851 30.0836C27.0213 30.5019 26.943 30.9489 26.9551 31.398L27.9001 71.934C27.9265 72.8554 28.3098 73.7306 28.9692 74.3748C29.6285 75.019 30.5123 75.382 31.4341 75.387H102.993C103.442 75.388 103.887 75.2989 104.3 75.1252C104.714 74.9515 105.089 74.6966 105.403 74.3755C105.717 74.0545 105.963 73.6738 106.127 73.256C106.291 72.8382 106.37 72.3918 106.359 71.943L105.42 31.404C105.394 30.4826 105.01 29.6074 104.351 28.9632C103.692 28.319 102.808 27.9561 101.886 27.951H30.3211Z" fill="#459C72"/>
<path d="M103.593 75.537H32.028C31.0676 75.5297 30.1474 75.1507 29.4605 74.4794C28.7736 73.8082 28.3734 72.897 28.344 71.937L27.405 31.401C27.3929 30.932 27.475 30.4654 27.6464 30.0287C27.8178 29.592 28.075 29.1941 28.4027 28.8585C28.7305 28.5229 29.1222 28.2564 29.5548 28.0748C29.9873 27.8931 30.4518 27.8 30.921 27.801H102.486C103.446 27.8083 104.367 28.1874 105.053 28.8586C105.74 29.5298 106.141 30.441 106.17 31.401L107.1 71.937C107.112 72.4052 107.03 72.8711 106.859 73.3072C106.689 73.7433 106.432 74.1408 106.105 74.4763C105.778 74.8117 105.388 75.0784 104.956 75.2606C104.525 75.4428 104.061 75.5368 103.593 75.537Z" fill="#F5F5F5"/>
<path d="M103.593 75.687H32.0282C31.0296 75.6797 30.0728 75.2855 29.3589 74.5872C28.645 73.889 28.2296 72.9412 28.2002 71.943L27.2552 31.404C27.2423 30.915 27.3277 30.4284 27.5063 29.9729C27.6849 29.5175 27.953 29.1026 28.2949 28.7526C28.6367 28.4027 29.0453 28.1249 29.4964 27.9357C29.9475 27.7464 30.432 27.6496 30.9212 27.651H102.486C103.486 27.6568 104.445 28.0508 105.16 28.7498C105.876 29.4488 106.291 30.3983 106.32 31.398L107.259 71.934C107.272 72.423 107.187 72.9097 107.008 73.3651C106.829 73.8205 106.561 74.2355 106.219 74.5854C105.878 74.9354 105.469 75.2132 105.018 75.4024C104.567 75.5916 104.082 75.6884 103.593 75.687ZM30.9212 27.951C30.4719 27.9496 30.0269 28.0385 29.6126 28.2122C29.1983 28.386 28.823 28.6412 28.5092 28.9626C28.1953 29.2841 27.9491 29.6653 27.7852 30.0836C27.6213 30.5019 27.5431 30.9489 27.5552 31.398L28.5002 71.934C28.5266 72.8554 28.9099 73.7306 29.5692 74.3748C30.2286 75.019 31.1124 75.382 32.0342 75.387H103.593C104.042 75.388 104.487 75.2989 104.901 75.1252C105.314 74.9515 105.689 74.6966 106.003 74.3755C106.317 74.0545 106.563 73.6738 106.727 73.256C106.892 72.8382 106.97 72.3918 106.959 71.943L106.02 31.404C105.994 30.4826 105.61 29.6074 104.951 28.9632C104.292 28.319 103.408 27.9561 102.486 27.951H30.9212Z" fill="#459C72"/>
<path d="M41.4691 39.144L36.6301 34.644C38.9191 32.172 42.9871 32.172 45.6301 34.644C46.4751 35.4289 47.1139 36.4098 47.4901 37.5L41.4691 39.144Z" fill="#E0E0E0"/>
<path opacity="0.2" d="M40.4612 39.243L34.1612 39.798C34.0107 38.8857 34.064 37.9514 34.3172 37.062C34.5678 36.1958 35.0166 35.3997 35.6282 34.737L40.4612 39.243Z" fill="#459C72"/>
<path d="M41.4691 39.6L37.9771 43.374C37.5064 42.935 37.1102 42.4223 36.8041 41.856C36.5034 41.2944 36.3005 40.6857 36.2041 40.056L41.4691 39.6Z" fill="white"/>
<path opacity="0.6" d="M41.8081 40.113L47.8411 38.463C48.2163 39.5017 48.3029 40.6228 48.0916 41.7068C47.8803 42.7908 47.379 43.7973 46.6411 44.619C44.3521 47.091 40.2841 47.091 37.6411 44.619L41.8081 40.113Z" fill="#459C72"/>
<path opacity="0.2" d="M58.0441 39.144L53.2051 34.644C55.4941 32.172 59.5621 32.172 62.2051 34.644C63.0509 35.4288 63.6907 36.4096 64.0681 37.5L58.0441 39.144Z" fill="#459C72"/>
<path d="M57.0332 39.243L50.7332 39.798C50.5821 38.8855 50.6365 37.9509 50.8922 37.062C51.1404 36.1954 51.5884 35.3991 52.2002 34.737L57.0332 39.243Z" fill="#E0E0E0"/>
<path opacity="0.6" d="M58.0441 39.6L54.5491 43.374C54.0784 42.935 53.6822 42.4223 53.3761 41.856C53.0754 41.2944 52.8725 40.6857 52.7761 40.056L58.0441 39.6Z" fill="#459C72"/>
<path d="M58.3801 40.113L64.4131 38.463C64.7893 39.5016 64.8764 40.6229 64.6651 41.7071C64.4537 42.7913 63.9519 43.7978 63.2131 44.619C60.9241 47.091 56.8561 47.091 54.2131 44.619L58.3801 40.113Z" fill="white"/>
<g opacity="0.3">
<path d="M32.0791 69.711H32.0641C32.0248 69.7058 31.989 69.6858 31.964 69.6552C31.9389 69.6245 31.9264 69.5855 31.9291 69.546C32.2711 66.012 34.4611 62.625 37.7881 60.489C40.6711 58.638 44.3341 57.702 48.4051 57.789C49.4491 57.81 50.5051 57.897 51.5341 57.984C53.0952 58.1492 54.6662 58.2034 56.2351 58.146C57.9901 58.041 61.2121 57.504 63.0601 55.074C63.6822 54.1741 64.1863 53.1982 64.5601 52.17C65.0581 50.97 65.5711 49.707 66.4921 48.741C67.7161 47.454 69.5971 46.722 72.0871 46.563C73.3717 46.5044 74.6587 46.5164 75.9421 46.599C77.0491 46.65 78.1951 46.704 79.3201 46.659C81.3061 46.581 84.0511 46.104 85.8421 44.259C86.6641 43.419 87.2341 42.345 87.7861 41.307C88.0861 40.767 88.3711 40.206 88.7041 39.678C89.8436 37.8813 91.4264 36.4081 93.3001 35.4C93.3172 35.3906 93.336 35.3846 93.3554 35.3826C93.3748 35.3805 93.3944 35.3823 93.4131 35.3879C93.4319 35.3934 93.4493 35.4027 93.4644 35.4151C93.4794 35.4275 93.4919 35.4428 93.5011 35.46C93.5195 35.4952 93.5235 35.5361 93.5123 35.5741C93.5011 35.6122 93.4756 35.6444 93.4411 35.664C91.6042 36.6529 90.0541 38.0997 88.9411 39.864C88.6141 40.383 88.3171 40.938 88.0411 41.475C87.4801 42.531 86.9011 43.623 86.0461 44.496C84.5731 45.996 82.2481 46.863 79.3201 46.977C78.1861 47.022 77.0341 46.977 75.9211 46.917C74.6476 46.836 73.3708 46.824 72.0961 46.881C69.6961 47.034 67.8691 47.736 66.6961 48.981C65.8141 49.905 65.3131 51.132 64.8241 52.317C64.4434 53.37 63.9281 54.3693 63.2911 55.29C61.3681 57.813 58.0501 58.371 56.2411 58.479C54.6591 58.537 53.0751 58.4819 51.5011 58.314C50.4811 58.23 49.4251 58.143 48.3901 58.122C44.3911 58.038 40.7731 58.959 37.9411 60.777C34.6921 62.877 32.5411 66.177 32.2201 69.612C32.2089 69.6405 32.1895 69.6651 32.1645 69.6828C32.1394 69.7004 32.1097 69.7102 32.0791 69.711Z" fill="#459C72"/>
<path d="M93.9271 36.882H93.9001C93.862 36.8715 93.8297 36.8464 93.81 36.8121C93.7903 36.7778 93.785 36.7372 93.7951 36.699L94.1221 35.424C94.1586 35.2787 94.2057 35.1364 94.2631 34.998C94.266 34.993 94.2675 34.9873 94.2675 34.9815C94.2675 34.9757 94.266 34.97 94.2631 34.965C93.3151 34.9897 92.3717 35.1063 91.4461 35.313C91.427 35.3174 91.4072 35.3179 91.3879 35.3146C91.3685 35.3112 91.3501 35.304 91.3336 35.2933C91.3171 35.2827 91.3029 35.2689 91.2918 35.2527C91.2807 35.2365 91.273 35.2182 91.2691 35.199C91.2647 35.1799 91.2642 35.1601 91.2676 35.1408C91.271 35.1214 91.2782 35.103 91.2888 35.0865C91.2994 35.07 91.3132 35.0558 91.3294 35.0447C91.3456 35.0336 91.3639 35.0259 91.3831 35.022C92.3197 34.8121 93.2738 34.6895 94.2331 34.656C94.2869 34.6545 94.3403 34.6663 94.3884 34.6904C94.4366 34.7145 94.478 34.7501 94.5091 34.794C94.5414 34.8403 94.5613 34.8941 94.5671 34.9502C94.5729 35.0064 94.5643 35.0631 94.5421 35.115C94.4915 35.24 94.4494 35.3683 94.4161 35.499L94.0861 36.774C94.077 36.8081 94.0559 36.8378 94.0267 36.8576C93.9975 36.8774 93.9622 36.8861 93.9271 36.882Z" fill="#459C72"/>
</g>
<path d="M106.332 33.567C106.332 33.567 102.132 31.725 100.899 36.918C99.9 41.1 97.8 42.666 97.8 42.666C97.8 42.666 105.225 45.534 109.365 42.171L106.332 33.567Z" fill="#263238"/>
<path d="M101.451 51.051C101.298 51.465 101.151 51.819 100.989 52.191C100.827 52.563 100.659 52.92 100.488 53.28C100.143 54 99.7531 54.696 99.3571 55.38C98.5542 56.7764 97.6232 58.0951 96.5761 59.319L96.3751 59.547C96.3031 59.628 96.2671 59.679 96.1171 59.832C95.8384 60.1125 95.4939 60.3187 95.1151 60.432C94.7687 60.5294 94.4052 60.5498 94.0501 60.492C93.767 60.4474 93.4907 60.3667 93.2281 60.252C92.8007 60.0608 92.3979 59.8191 92.0281 59.532C91.691 59.273 91.3685 58.9956 91.0621 58.701C89.9262 57.5685 88.9255 56.3081 88.0801 54.945L89.1451 54.141C90.1598 55.2179 91.2507 56.2204 92.4091 57.141C92.9077 57.5484 93.4663 57.8763 94.0651 58.113C94.3051 58.194 94.4701 58.158 94.4281 58.146C94.3861 58.134 94.3891 58.146 94.3981 58.146C94.4071 58.146 94.4641 58.059 94.5121 57.993L94.6771 57.777C95.5545 56.6033 96.3465 55.3681 97.0471 54.081C97.4011 53.433 97.7311 52.77 98.0521 52.104C98.2111 51.771 98.3671 51.438 98.5171 51.102C98.6671 50.766 98.8171 50.415 98.9371 50.112L101.451 51.051Z" fill="#FFC3BD"/>
<path d="M100.596 47.442C99.474 47.4 97.5 51.48 97.5 51.48L100.419 55.017C100.419 55.017 103.821 50.748 103.356 49.368C102.858 47.931 102.228 47.499 100.596 47.442Z" fill="#263238"/>
<path opacity="0.2" d="M100.41 48.426L98.8921 53.181L100.26 54.834L100.41 48.426Z" fill="black"/>
<path d="M88.9051 55.434L85.8 54.648L87.9 52.989C87.9 52.989 89.46 53.646 89.559 54.738L88.9051 55.434Z" fill="#FFC3BD"/>
<path d="M84.345 53.316L85.956 52.116L87.888 52.989L85.785 54.648L84.345 53.316Z" fill="#FFC3BD"/>
<path d="M108.519 120.669H105.885L106.014 114.567H108.648L108.519 120.669Z" fill="#FFC3BD"/>
<path d="M105.63 120.363H108.6C108.651 120.362 108.7 120.38 108.739 120.414C108.777 120.447 108.803 120.493 108.81 120.543L109.146 122.886C109.152 122.945 109.146 123.005 109.128 123.062C109.109 123.118 109.079 123.17 109.039 123.215C108.999 123.259 108.95 123.294 108.896 123.318C108.842 123.342 108.783 123.354 108.723 123.354C107.691 123.336 107.193 123.276 105.891 123.276C105.09 123.276 102.792 123.36 101.691 123.36C100.59 123.36 100.527 122.265 100.986 122.16C103.05 121.716 104.508 121.104 105.204 120.519C105.324 120.42 105.474 120.365 105.63 120.363Z" fill="#263238"/>
<g opacity="0.2">
<path d="M106.014 114.567L105.948 117.714H108.582L108.651 114.567H106.014Z" fill="black"/>
</g>
<path d="M99.5371 48.747C99.4801 50.415 99.768 54.306 101.52 63.363L112.218 63.045C111.918 58.698 111.825 56.013 113.64 47.016C112.133 46.7518 110.609 46.5964 109.08 46.551C107.459 46.484 105.834 46.5331 104.22 46.698C102.984 46.848 101.649 47.103 100.773 47.298C100.435 47.3677 100.13 47.548 99.9064 47.8104C99.6826 48.0729 99.5526 48.4024 99.5371 48.747Z" fill="#263238"/>
<path d="M108.435 41.1C108.174 42.672 107.955 45.546 109.08 46.554C108.234 47.8853 106.903 48.8345 105.369 49.2C102.903 47.949 104.22 46.698 104.22 46.698C105.951 46.23 105.867 44.937 105.528 43.731L108.435 41.1Z" fill="#FFC3BD"/>
<path d="M105.369 49.2L105.687 48.576L107.4 48.963L105.369 49.2Z" fill="#E0E0E0"/>
<path d="M105.687 48.576C106.239 48.324 108.783 46.668 108.882 46.149C109.083 46.368 110.16 46.434 110.16 46.434C110.16 46.434 109.515 49.395 108.267 51.561C107.415 49.629 106.605 49.176 105.687 48.576Z" fill="white"/>
<path d="M105.369 49.2L105.225 48.576L104.175 48.651L105.369 49.2Z" fill="#E0E0E0"/>
<path d="M105.225 48.576C104.376 48.012 104.583 46.833 104.667 46.317C104.466 46.533 103.389 46.599 103.389 46.599C103.389 46.599 101.865 49.395 103.116 51.561C103.707 50.007 104.307 49.176 105.225 48.576Z" fill="white"/>
<path opacity="0.2" d="M107.25 42.171L105.531 43.731C105.613 44.0116 105.671 44.2986 105.705 44.589C106.368 44.472 107.262 43.713 107.31 43.014C107.341 42.7317 107.321 42.446 107.25 42.171Z" fill="black"/>
<path d="M109.29 37.5C109.257 40.116 109.29 41.223 108.048 42.624C106.164 44.724 102.948 44.124 102.21 41.55C101.538 39.237 101.703 35.349 104.205 34.185C104.755 33.926 105.363 33.812 105.97 33.8538C106.576 33.8957 107.162 34.0921 107.672 34.4243C108.181 34.7564 108.598 35.2134 108.881 35.7518C109.164 36.2901 109.305 36.8919 109.29 37.5Z" fill="#FFC3BD"/>
<path d="M109.077 38.757L105.792 38.595C105.782 38.5946 105.773 38.5923 105.764 38.5882C105.755 38.584 105.747 38.5782 105.74 38.5709C105.733 38.5637 105.728 38.5552 105.725 38.5459C105.721 38.5367 105.72 38.5269 105.72 38.517C105.72 38.5069 105.723 38.497 105.727 38.4878C105.731 38.4786 105.738 38.4704 105.745 38.4637C105.753 38.457 105.762 38.4519 105.771 38.4486C105.781 38.4454 105.791 38.4442 105.801 38.445L109.086 38.607C109.096 38.6078 109.106 38.6105 109.114 38.615C109.123 38.6194 109.131 38.6256 109.137 38.6332C109.144 38.6407 109.149 38.6494 109.152 38.6588C109.155 38.6682 109.156 38.6782 109.155 38.688C109.155 38.6977 109.152 38.7073 109.148 38.7161C109.144 38.7249 109.138 38.7327 109.131 38.7392C109.124 38.7456 109.115 38.7505 109.106 38.7536C109.096 38.7567 109.087 38.7578 109.077 38.757Z" fill="white"/>
<path d="M101.52 63.363C101.52 63.363 102.873 82.938 103.62 90.939C104.403 99.264 105.42 117.105 105.42 117.105H108.981C108.981 117.105 109.725 98.961 109.443 90.75C109.143 81.801 109.332 63.132 109.332 63.132L101.52 63.363Z" fill="#263238"/>
<path d="M109.311 117.231H105.132L104.823 115.899L109.506 115.734L109.311 117.231Z" fill="#459C72"/>
<path opacity="0.2" d="M109.305 70.122C108.873 69.642 108.405 69.891 107.871 71.259C106.092 75.927 107.988 83.376 109.371 87.666C109.278 82.326 109.281 75.3 109.305 70.122Z" fill="black"/>
<path d="M105 38.628C105 38.841 104.904 39.018 104.766 39.024C104.628 39.03 104.508 38.865 104.496 38.652C104.484 38.439 104.589 38.262 104.73 38.256C104.871 38.25 105 38.415 105 38.628Z" fill="#263238"/>
<path d="M102.6 38.7C102.6 38.913 102.504 39.09 102.366 39.096C102.228 39.102 102.108 38.937 102.096 38.724C102.084 38.511 102.189 38.334 102.33 38.328C102.471 38.322 102.6 38.472 102.6 38.7Z" fill="#263238"/>
<path d="M102.387 38.322L101.871 38.199C101.871 38.199 102.153 38.586 102.387 38.322Z" fill="#263238"/>
<path d="M103.524 38.859C103.359 39.3526 103.127 39.821 102.834 40.251C102.946 40.3242 103.072 40.3716 103.205 40.3897C103.337 40.4079 103.472 40.3964 103.599 40.356L103.524 38.859Z" fill="#ED847E"/>
<path d="M104.796 41.13C104.697 41.1507 104.597 41.1637 104.496 41.169C104.488 41.1694 104.479 41.1682 104.472 41.1654C104.464 41.1626 104.457 41.1583 104.45 41.1527C104.444 41.1471 104.439 41.1404 104.436 41.1329C104.432 41.1254 104.43 41.1173 104.43 41.109C104.431 41.093 104.437 41.0778 104.448 41.0662C104.459 41.0546 104.474 41.0474 104.49 41.046C104.754 41.0394 105.014 40.9701 105.246 40.8439C105.479 40.7177 105.678 40.5382 105.828 40.32C105.832 40.3129 105.838 40.3067 105.845 40.3018C105.851 40.2969 105.859 40.2933 105.867 40.2914C105.875 40.2894 105.884 40.2891 105.892 40.2904C105.9 40.2917 105.908 40.2946 105.915 40.299C105.922 40.303 105.928 40.3084 105.933 40.3149C105.938 40.3213 105.941 40.3287 105.943 40.3365C105.945 40.3444 105.946 40.3525 105.944 40.3605C105.943 40.3685 105.94 40.3762 105.936 40.383C105.806 40.5778 105.638 40.7444 105.442 40.8728C105.246 41.0011 105.026 41.0886 104.796 41.13Z" fill="#263238"/>
<path d="M110.1 39.858C110.024 40.0964 109.901 40.3174 109.74 40.5084C109.578 40.6993 109.38 40.8566 109.158 40.971C108.558 41.271 108.132 40.77 108.189 40.137C108.24 39.57 108.612 38.724 109.266 38.685C109.409 38.679 109.551 38.7087 109.679 38.7716C109.808 38.8345 109.919 38.9285 110.001 39.0451C110.084 39.1616 110.137 39.297 110.154 39.439C110.171 39.581 110.153 39.725 110.1 39.858Z" fill="#FFC3BD"/>
<path d="M105.939 37.896C105.913 37.9018 105.887 37.899 105.863 37.8882C105.839 37.8774 105.819 37.859 105.807 37.836C105.522 37.335 104.781 37.257 104.775 37.254C104.759 37.2524 104.743 37.2477 104.729 37.24C104.714 37.2324 104.702 37.222 104.691 37.2095C104.681 37.197 104.673 37.1825 104.669 37.167C104.664 37.1515 104.662 37.1352 104.664 37.119C104.665 37.1028 104.67 37.0872 104.678 37.0728C104.686 37.0585 104.696 37.0458 104.708 37.0355C104.721 37.0252 104.735 37.0175 104.751 37.0128C104.766 37.008 104.783 37.0064 104.799 37.008C104.835 37.008 105.675 37.098 106.023 37.713C106.031 37.7271 106.037 37.7428 106.039 37.7591C106.042 37.7754 106.041 37.7921 106.037 37.808C106.032 37.824 106.025 37.8389 106.015 37.852C106.005 37.865 105.992 37.8759 105.978 37.884L105.939 37.896Z" fill="#263238"/>
<path d="M101.826 37.476C101.805 37.481 101.783 37.4801 101.762 37.4732C101.741 37.4663 101.723 37.4538 101.709 37.437C101.697 37.4255 101.688 37.4118 101.681 37.3966C101.675 37.3814 101.671 37.365 101.671 37.3485C101.671 37.332 101.675 37.3156 101.681 37.3004C101.688 37.2852 101.697 37.2715 101.709 37.26C101.853 37.1239 102.026 37.024 102.216 36.9687C102.406 36.9133 102.607 36.9042 102.801 36.942C102.833 36.9505 102.861 36.9713 102.877 37C102.894 37.0286 102.899 37.0628 102.891 37.095C102.882 37.1267 102.861 37.1538 102.832 37.1705C102.804 37.1872 102.77 37.1924 102.738 37.185C102.584 37.1559 102.425 37.1644 102.275 37.2099C102.126 37.2553 101.989 37.3363 101.877 37.446C101.863 37.4599 101.845 37.4702 101.826 37.476Z" fill="#263238"/>
<path d="M114.96 50.04C115.311 51.441 115.677 52.869 116.052 54.273C116.427 55.677 116.838 57.078 117.291 58.434C117.744 59.79 118.305 61.134 118.824 62.514C119.343 63.894 119.871 65.286 120.348 66.693L119.148 67.26C118.368 65.988 117.648 64.695 116.937 63.381C116.587 62.725 116.245 62.061 115.911 61.389C115.572 60.726 115.251 60.012 114.966 59.289C114.393 57.867 113.916 56.436 113.49 54.996C113.064 53.556 112.674 52.116 112.344 50.634L114.96 50.04Z" fill="#FFC3BD"/>
<path d="M113.64 47.016C114.72 47.316 116.118 50.961 116.118 50.961L112.047 54.057C112.047 54.057 110.439 51.024 110.847 49.623C111.276 48.168 112.404 46.68 113.64 47.016Z" fill="#263238"/>
<path d="M104.64 120.825C104.415 120.845 104.19 120.788 104.001 120.663C103.96 120.626 103.928 120.579 103.908 120.527C103.888 120.475 103.881 120.418 103.887 120.363C103.89 120.329 103.901 120.295 103.92 120.267C103.939 120.238 103.965 120.214 103.995 120.198C104.316 120.021 105.366 120.558 105.495 120.618C105.506 120.624 105.516 120.634 105.522 120.646C105.528 120.658 105.53 120.671 105.528 120.684C105.527 120.697 105.521 120.709 105.512 120.719C105.502 120.728 105.49 120.734 105.477 120.735C105.202 120.792 104.921 120.822 104.64 120.825ZM104.169 120.279C104.13 120.277 104.091 120.284 104.055 120.3C104.042 120.307 104.032 120.316 104.024 120.329C104.017 120.341 104.013 120.355 104.013 120.369C104.007 120.406 104.011 120.444 104.023 120.479C104.036 120.514 104.057 120.545 104.085 120.57C104.244 120.714 104.685 120.738 105.261 120.642C104.921 120.459 104.551 120.336 104.169 120.279Z" fill="#459C72"/>
<path d="M105.456 120.732H105.432C105.117 120.588 104.496 120.021 104.532 119.724C104.532 119.652 104.595 119.565 104.766 119.547C104.828 119.54 104.892 119.546 104.951 119.564C105.011 119.583 105.067 119.614 105.114 119.655C105.444 119.931 105.504 120.639 105.507 120.669C105.508 120.68 105.506 120.691 105.501 120.701C105.496 120.711 105.489 120.72 105.48 120.726C105.472 120.73 105.464 120.732 105.456 120.732ZM104.829 119.664H104.793C104.679 119.664 104.67 119.721 104.667 119.736C104.64 119.916 105.06 120.363 105.381 120.558C105.356 120.259 105.239 119.975 105.045 119.745C104.986 119.692 104.909 119.663 104.829 119.664Z" fill="#459C72"/>
<path d="M123.981 120.669H121.347L119.751 114.567H122.388L123.981 120.669Z" fill="#FFC3BD"/>
<path d="M124.005 120.363H121.044C121.02 120.361 120.996 120.364 120.974 120.373C120.952 120.381 120.932 120.395 120.915 120.412C120.899 120.429 120.887 120.45 120.879 120.473C120.872 120.495 120.87 120.519 120.873 120.543L121.053 122.886C121.072 123.013 121.136 123.129 121.231 123.214C121.327 123.3 121.45 123.349 121.578 123.354C122.607 123.336 123.078 123.276 124.392 123.276C125.193 123.276 125.991 123.36 127.092 123.36C128.193 123.36 128.016 122.265 127.533 122.16C125.37 121.716 125.298 121.104 124.473 120.519C124.336 120.421 124.173 120.367 124.005 120.363Z" fill="#263238"/>
<g opacity="0.2">
<path d="M119.754 114.567L120.573 117.714H123.21L122.388 114.567H119.754Z" fill="black"/>
</g>
<path d="M112.218 63.045C115.263 67.125 117.117 82.107 118.464 90.117C119.865 98.448 123.309 117.117 123.309 117.117H119.748C119.748 117.117 114.903 98.127 112.365 90.087C109.56 81.21 105.369 63.057 105.369 63.057L112.218 63.045Z" fill="#263238"/>
<path d="M123.564 117.231H119.382L119.076 115.899L123.759 115.734L123.564 117.231Z" fill="#459C72"/>
<path d="M124.356 120.438C124.568 120.359 124.747 120.21 124.863 120.015C124.885 119.963 124.893 119.906 124.888 119.849C124.883 119.793 124.864 119.738 124.833 119.691C124.816 119.661 124.793 119.637 124.764 119.619C124.735 119.601 124.702 119.591 124.668 119.589C124.299 119.568 123.582 120.504 123.501 120.612C123.494 120.623 123.49 120.635 123.49 120.648C123.49 120.661 123.494 120.673 123.501 120.684C123.508 120.695 123.518 120.703 123.53 120.707C123.542 120.712 123.555 120.712 123.567 120.708C123.838 120.643 124.102 120.553 124.356 120.438ZM124.545 119.742C124.58 119.724 124.619 119.713 124.659 119.712C124.673 119.713 124.687 119.717 124.699 119.725C124.71 119.733 124.719 119.744 124.725 119.757C124.746 119.787 124.759 119.822 124.764 119.859C124.768 119.896 124.763 119.933 124.749 119.967C124.665 120.165 124.284 120.375 123.717 120.54C123.946 120.229 124.226 119.959 124.545 119.742Z" fill="#459C72"/>
<path d="M123.579 120.705C123.587 120.702 123.594 120.697 123.6 120.69C123.822 120.426 124.137 119.646 123.966 119.397C123.924 119.337 123.84 119.28 123.666 119.34C123.607 119.361 123.553 119.393 123.507 119.435C123.461 119.478 123.424 119.529 123.399 119.586C123.219 119.976 123.471 120.642 123.48 120.672C123.484 120.682 123.49 120.691 123.499 120.698C123.507 120.705 123.517 120.709 123.528 120.711C123.536 120.714 123.545 120.715 123.554 120.714C123.563 120.713 123.571 120.71 123.579 120.705ZM123.684 119.472L123.72 119.457C123.828 119.418 123.855 119.457 123.861 119.457C123.966 119.604 123.777 120.189 123.561 120.504C123.454 120.223 123.437 119.916 123.513 119.625C123.549 119.555 123.61 119.5 123.684 119.472Z" fill="#459C72"/>
<path d="M104.787 38.265L104.271 38.142C104.271 38.142 104.553 38.529 104.787 38.265Z" fill="#263238"/>
<path d="M112.359 62.4L112.659 63.351C112.698 63.423 112.611 63.501 112.488 63.507L101.478 63.834C101.382 63.834 101.301 63.792 101.292 63.732L101.169 62.775C101.169 62.709 101.241 62.652 101.346 62.649L112.179 62.325C112.213 62.3212 112.247 62.3261 112.279 62.3392C112.31 62.3523 112.338 62.3733 112.359 62.4Z" fill="#459C72"/>
<path d="M110.94 63.669H111.24C111.297 63.669 111.339 63.636 111.336 63.6L111.162 62.358C111.162 62.322 111.105 62.295 111.048 62.295H110.748C110.691 62.295 110.649 62.328 110.652 62.364L110.826 63.606C110.832 63.642 110.883 63.669 110.94 63.669Z" fill="#263238"/>
<path d="M102.3 63.924H102.6C102.657 63.924 102.699 63.891 102.696 63.855L102.522 62.616C102.522 62.58 102.465 62.55 102.408 62.553H102.108C102.051 62.553 102.009 62.586 102.012 62.622L102.186 63.861C102.192 63.9 102.243 63.927 102.3 63.924Z" fill="#263238"/>
<path d="M106.62 63.795H106.92C106.977 63.795 107.019 63.762 107.016 63.723L106.842 62.484C106.842 62.448 106.785 62.421 106.728 62.421H106.428C106.371 62.421 106.329 62.454 106.332 62.49L106.506 63.729C106.5 63.771 106.563 63.798 106.62 63.795Z" fill="#263238"/>
<path d="M120.045 66.219L122.145 68.142L119.487 68.484C119.487 68.484 118.491 67.119 118.965 66.132L120.045 66.219Z" fill="#FFC3BD"/>
<path d="M122.502 70.329L120.261 70.494L119.481 68.484L122.139 68.145L122.502 70.329Z" fill="#FFC3BD"/>
<path d="M106.65 33.84C106.65 33.84 104.439 32.826 102 35.901C104.937 36.774 106.911 36.168 106.911 36.168L106.65 33.84Z" fill="#263238"/>
<path d="M106.332 33.567C106.332 33.567 106.866 41.298 106.332 45.15C109.434 44.166 112.401 41.097 112.401 41.097C112.401 41.097 111.966 32.634 106.332 33.567Z" fill="#263238"/>
<path d="M104.757 40.419C104.061 40.419 103.422 39.558 103.329 38.499C103.29 38.2148 103.307 37.9255 103.382 37.6483C103.456 37.3711 103.585 37.1115 103.761 36.885C103.844 36.7868 103.948 36.7076 104.064 36.6528C104.18 36.5979 104.307 36.5687 104.436 36.567C105.132 36.567 105.774 37.428 105.867 38.487C105.907 38.7715 105.889 39.061 105.814 39.3383C105.739 39.6157 105.609 39.8751 105.432 40.101C105.349 40.1992 105.245 40.2784 105.129 40.3333C105.013 40.3881 104.886 40.4174 104.757 40.419ZM104.436 36.717C104.329 36.7196 104.223 36.7447 104.126 36.7907C104.029 36.8366 103.942 36.9025 103.872 36.984C103.71 37.1954 103.592 37.4369 103.525 37.6945C103.457 37.952 103.442 38.2204 103.479 38.484C103.563 39.465 104.139 40.266 104.757 40.266C104.865 40.2642 104.971 40.2392 105.068 40.1926C105.166 40.146 105.252 40.0789 105.321 39.996C105.484 39.785 105.603 39.5436 105.671 39.286C105.739 39.0284 105.754 38.7598 105.717 38.496C105.63 37.515 105.057 36.717 104.436 36.717Z" fill="white"/>
<path d="M102.144 40.419C101.58 40.419 101.064 39.576 100.971 38.499C100.908 37.776 101.058 37.119 101.361 36.789C101.418 36.7214 101.488 36.6667 101.568 36.6284C101.648 36.5901 101.735 36.5692 101.823 36.567C102.387 36.567 102.9 37.41 102.996 38.487C103.056 39.21 102.906 39.864 102.603 40.197C102.546 40.2643 102.476 40.3188 102.397 40.357C102.318 40.3953 102.232 40.4164 102.144 40.419ZM101.823 36.717C101.755 36.7185 101.689 36.7349 101.628 36.765C101.567 36.795 101.514 36.8381 101.472 36.891C101.199 37.191 101.061 37.815 101.121 38.487C101.202 39.453 101.673 40.269 102.144 40.269C102.211 40.2665 102.277 40.2496 102.337 40.2196C102.397 40.1896 102.45 40.1471 102.492 40.095C102.765 39.795 102.903 39.171 102.846 38.499C102.762 37.533 102.3 36.717 101.823 36.717Z" fill="white"/>
<path d="M103.404 38.568H103.371C103.308 38.5344 103.237 38.5168 103.166 38.5168C103.094 38.5168 103.023 38.5344 102.96 38.568C102.943 38.5781 102.923 38.5812 102.904 38.5768C102.885 38.5723 102.869 38.5605 102.858 38.544C102.852 38.536 102.849 38.5269 102.847 38.5174C102.845 38.5079 102.845 38.498 102.847 38.4885C102.849 38.479 102.853 38.4699 102.858 38.4619C102.864 38.4539 102.871 38.4472 102.879 38.442C102.965 38.3973 103.06 38.374 103.157 38.374C103.253 38.374 103.348 38.3973 103.434 38.442C103.452 38.4505 103.466 38.4654 103.473 38.4838C103.48 38.5022 103.48 38.5226 103.473 38.541C103.464 38.5505 103.454 38.5578 103.442 38.5625C103.43 38.5672 103.417 38.5691 103.404 38.568Z" fill="white"/>
<path d="M115.998 84.252H33.999V87.051H115.998V84.252Z" fill="#459C72"/>
<path opacity="0.8" d="M115.998 84.252H33.999V87.051H115.998V84.252Z" fill="white"/>
<path opacity="0.3" d="M116.001 84.252H92.001V87.051H116.001V84.252Z" fill="#459C72"/>
<path d="M97.851 124.401H96.252L94.125 87.051H97.851V124.401Z" fill="#459C72"/>
<path d="M114.399 124.401H116.001L113.874 87.051H110.148L114.399 124.401Z" fill="#459C72"/>
<path d="M35.601 124.401H33.999L36.126 87.051H39.852L35.601 124.401Z" fill="#459C72"/>
<path d="M52.1489 124.401H53.7479L55.8749 87.051H52.1489V124.401Z" fill="#459C72"/>
<path d="M90.735 70.842H73.239C73.0349 70.8485 72.8391 70.9242 72.6837 71.0567C72.5284 71.1892 72.4226 71.3705 72.384 71.571L70.47 82.53C70.4509 82.6186 70.4522 82.7104 70.4737 82.7985C70.4951 82.8865 70.5363 82.9685 70.594 83.0384C70.6518 83.1083 70.7246 83.1641 70.807 83.2018C70.8895 83.2395 70.9793 83.258 71.07 83.256H88.563C88.7666 83.2497 88.9621 83.1744 89.1174 83.0425C89.2727 82.9106 89.3787 82.7299 89.418 82.53L91.332 71.571C91.3515 71.4825 91.3507 71.3906 91.3296 71.3024C91.3085 71.2142 91.2677 71.1319 91.2102 71.0618C91.1528 70.9916 91.0801 70.9354 90.9978 70.8973C90.9155 70.8593 90.8256 70.8403 90.735 70.842Z" fill="#459C72"/>
<path opacity="0.2" d="M90.735 70.842H73.239C73.0349 70.8485 72.8391 70.9242 72.6837 71.0567C72.5284 71.1892 72.4226 71.3705 72.384 71.571L70.47 82.53C70.4509 82.6186 70.4522 82.7104 70.4737 82.7985C70.4951 82.8865 70.5363 82.9685 70.594 83.0384C70.6518 83.1083 70.7246 83.1641 70.807 83.2018C70.8895 83.2395 70.9793 83.258 71.07 83.256H88.563C88.7666 83.2497 88.9621 83.1744 89.1174 83.0425C89.2727 82.9106 89.3787 82.7299 89.418 82.53L91.332 71.571C91.3515 71.4825 91.3507 71.3906 91.3296 71.3024C91.3085 71.2142 91.2677 71.1319 91.2102 71.0618C91.1528 70.9916 91.0801 70.9354 90.9978 70.8973C90.9155 70.8593 90.8256 70.8403 90.735 70.842Z" fill="white"/>
<path d="M90.3991 70.842H72.9001C72.696 70.8485 72.5002 70.9242 72.3449 71.0567C72.1895 71.1892 72.0838 71.3705 72.0451 71.571L70.1311 82.53C70.112 82.6186 70.1133 82.7104 70.1348 82.7985C70.1563 82.8865 70.1974 82.9685 70.2552 83.0384C70.3129 83.1083 70.3857 83.1641 70.4682 83.2018C70.5506 83.2395 70.6405 83.258 70.7311 83.256H88.2241C88.4314 83.2544 88.6318 83.1813 88.7914 83.049C88.951 82.9167 89.06 82.7334 89.1001 82.53L91.0141 71.571C91.034 71.4809 91.0329 71.3874 91.0109 71.2979C90.9888 71.2083 90.9464 71.125 90.8869 71.0544C90.8274 70.9839 90.7524 70.928 90.6678 70.8912C90.5832 70.8544 90.4912 70.8375 90.3991 70.842Z" fill="#459C72"/>
<path opacity="0.4" d="M90.3991 70.842H72.9001C72.696 70.8485 72.5002 70.9242 72.3449 71.0567C72.1895 71.1892 72.0838 71.3705 72.0451 71.571L70.1311 82.53C70.112 82.6186 70.1133 82.7104 70.1348 82.7985C70.1563 82.8865 70.1974 82.9685 70.2552 83.0384C70.3129 83.1083 70.3857 83.1641 70.4682 83.2018C70.5506 83.2395 70.6405 83.258 70.7311 83.256H88.2241C88.4314 83.2544 88.6318 83.1813 88.7914 83.049C88.951 82.9167 89.06 82.7334 89.1001 82.53L91.0141 71.571C91.034 71.4809 91.0329 71.3874 91.0109 71.2979C90.9888 71.2083 90.9464 71.125 90.8869 71.0544C90.8274 70.9839 90.7524 70.928 90.6678 70.8912C90.5832 70.8544 90.4912 70.8375 90.3991 70.842Z" fill="white"/>
<path d="M70.7401 82.956C70.6941 82.958 70.6483 82.9499 70.6058 82.9323C70.5633 82.9147 70.5251 82.888 70.4941 82.854C70.4651 82.8155 70.4447 82.7712 70.4343 82.7241C70.424 82.677 70.4239 82.6282 70.4341 82.581L72.3481 71.622C72.3746 71.4914 72.4438 71.3733 72.5448 71.2864C72.6459 71.1995 72.773 71.1487 72.9061 71.142H90.3991C90.4452 71.1406 90.4912 71.1493 90.5337 71.1674C90.5761 71.1855 90.6142 71.2127 90.6451 71.247C90.6743 71.2855 90.6947 71.3298 90.7051 71.3769C90.7155 71.4241 90.7155 71.4729 90.7051 71.52L88.8001 82.476C88.7736 82.6066 88.7044 82.7247 88.6033 82.8116C88.5023 82.8986 88.3752 82.9494 88.2421 82.956H70.7401Z" fill="white"/>
<path d="M88.32 83.256H66.318C66.0599 83.2576 65.8128 83.3608 65.6303 83.5433C65.4478 83.7258 65.3446 83.9729 65.343 84.231H89.295C89.2934 83.9729 89.1902 83.7258 89.0077 83.5433C88.8252 83.3608 88.5781 83.2576 88.32 83.256Z" fill="#459C72"/>
<path opacity="0.4" d="M88.32 83.256H66.318C66.0599 83.2576 65.8128 83.3608 65.6303 83.5433C65.4478 83.7258 65.3446 83.9729 65.343 84.231H89.295C89.2934 83.9729 89.1902 83.7258 89.0077 83.5433C88.8252 83.3608 88.5781 83.2576 88.32 83.256Z" fill="white"/>
<path opacity="0.8" d="M88.3201 83.256H83.4181C83.16 83.2576 82.9129 83.3608 82.7304 83.5433C82.5479 83.7258 82.4447 83.9729 82.4431 84.231H89.2951C89.2935 83.9729 89.1903 83.7258 89.0078 83.5433C88.8253 83.3608 88.5782 83.2576 88.3201 83.256Z" fill="#459C72"/>
<path d="M99.8429 79.356H96.6299C96.4328 79.356 96.2729 79.5159 96.2729 79.713V83.895C96.2729 84.0922 96.4328 84.252 96.6299 84.252H99.8429C100.04 84.252 100.2 84.0922 100.2 83.895V79.713C100.2 79.5159 100.04 79.356 99.8429 79.356Z" fill="#459C72"/>
<path d="M96.7889 81.741L96.8459 81.459H96.5759V81.159H96.8999L96.9779 80.763H97.2779L97.1969 81.159H97.4399L97.5209 80.763H97.8359L97.7549 81.159H97.9079V81.459H97.6949L97.6379 81.741H97.9079V82.041H97.5749L97.4969 82.431H97.1999L97.2779 82.044H97.0349L96.9569 82.434H96.6569L96.7349 82.044H96.5819V81.744L96.7889 81.741ZM97.1039 81.741H97.3469L97.4039 81.459H97.1609L97.1039 81.741Z" fill="white"/>
<path d="M99.1199 80.76V82.41H98.6639V81.327C98.5975 81.3796 98.5261 81.4258 98.4509 81.465C98.3663 81.504 98.2791 81.5371 98.1899 81.564V81.195C98.3196 81.1567 98.4415 81.0958 98.5499 81.015C98.6343 80.946 98.702 80.8588 98.7479 80.76H99.1199Z" fill="white"/>
<path d="M100.569 83.715C99.7921 83.715 99.1831 82.875 99.1831 81.804C99.1831 80.733 99.8041 79.89 100.569 79.89C101.334 79.89 101.955 80.748 101.955 81.804C101.955 82.86 101.346 83.715 100.569 83.715ZM100.569 80.331C100.056 80.331 99.6241 81.003 99.6241 81.804C99.6241 82.605 100.056 83.274 100.569 83.274C101.082 83.274 101.514 82.602 101.514 81.804C101.514 81.006 101.079 80.331 100.569 80.331Z" fill="#459C72"/>
<path d="M54.465 70.233L54.186 70.665L53.886 71.139C53.691 71.457 53.502 71.781 53.313 72.108C52.941 72.762 52.581 73.425 52.248 74.097C51.5787 75.4204 51.0178 76.7959 50.571 78.21C50.463 78.558 50.367 78.906 50.271 79.254L50.148 79.779L50.097 80.04L50.07 80.172C50.07 80.214 50.052 80.271 50.052 80.259C50.052 80.247 50.028 80.259 49.998 80.181C49.9658 80.1116 49.9162 80.0516 49.854 80.007C49.803 79.977 49.794 80.007 49.821 80.034C49.8831 80.0904 49.9528 80.1379 50.028 80.175C50.2842 80.3009 50.5554 80.3937 50.835 80.451C51.1746 80.5301 51.5181 80.5912 51.864 80.634C52.578 80.727 53.364 80.772 54.102 80.811H54.177C54.4201 80.8237 54.6512 80.9201 54.8311 81.0839C55.0111 81.2477 55.1287 81.4688 55.1641 81.7096C55.1994 81.9503 55.1503 82.1959 55.0251 82.4046C54.8998 82.6132 54.7062 82.772 54.477 82.854C53.6487 83.1511 52.7923 83.3632 51.921 83.487C50.947 83.6459 49.9517 83.6204 48.987 83.412C48.6754 83.3355 48.3734 83.2238 48.087 83.079C47.725 82.8954 47.3981 82.6497 47.121 82.353C46.7973 82.0012 46.5573 81.5807 46.419 81.123C46.3016 80.7099 46.2599 80.279 46.296 79.851C46.296 79.737 46.296 79.695 46.314 79.638L46.335 79.473L46.374 79.137C46.407 78.918 46.437 78.696 46.473 78.477C46.548 78.039 46.632 77.604 46.737 77.178C47.1477 75.4921 47.7245 73.8511 48.459 72.279C48.822 71.505 49.209 70.743 49.632 70.002C49.842 69.63 50.064 69.264 50.292 68.901C50.406 68.718 50.523 68.538 50.646 68.355C50.769 68.172 50.883 68.007 51.039 67.791C51.3621 67.3565 51.8405 67.0635 52.3744 66.9733C52.9083 66.8831 53.4565 67.0026 53.9044 67.3069C54.3522 67.6112 54.6653 68.0767 54.7782 68.6063C54.891 69.1358 54.795 69.6886 54.51 70.149L54.465 70.233Z" fill="#459C72"/>
<path d="M62.4871 58.125C62.5171 58.329 62.6491 58.476 62.7871 58.458C62.9251 58.44 63.0031 58.257 62.9731 58.056C62.9431 57.855 62.8111 57.705 62.6731 57.723C62.5351 57.741 62.4571 57.924 62.4871 58.125Z" fill="#263238"/>
<path d="M62.6311 58.479C62.9644 59.0616 63.3763 59.5956 63.8551 60.066C63.7317 60.1852 63.5837 60.276 63.4215 60.332C63.2593 60.388 63.0868 60.4078 62.9161 60.39L62.6311 58.479Z" fill="#A02724"/>
<path d="M61.6021 57.111C61.6276 57.1089 61.6512 57.0971 61.6682 57.078C61.7729 56.9692 61.9022 56.8871 62.0452 56.8385C62.1882 56.79 62.3408 56.7764 62.4902 56.799C62.5215 56.8053 62.5541 56.7991 62.581 56.7817C62.6079 56.7644 62.627 56.7372 62.6342 56.706C62.6404 56.675 62.6341 56.6428 62.6167 56.6164C62.5992 56.59 62.5721 56.5715 62.5412 56.565C62.3529 56.5338 62.1599 56.5485 61.9786 56.6081C61.7973 56.6676 61.6332 56.7702 61.5002 56.907C61.478 56.9299 61.4656 56.9606 61.4656 56.9925C61.4656 57.0244 61.478 57.0551 61.5002 57.078C61.5137 57.0907 61.5298 57.1002 61.5475 57.1059C61.5651 57.1116 61.5838 57.1133 61.6021 57.111Z" fill="#263238"/>
<path d="M56.544 60.36C56.631 62.25 56.487 65.664 55.02 66.699C55.02 66.699 55.245 68.634 58.656 69.144C62.403 69.702 60.726 67.548 60.726 67.548C58.752 66.756 59.031 65.244 59.601 63.873L56.544 60.36Z" fill="#B55B52"/>
<path d="M54.432 67.455C54.285 66.6 54.132 65.625 54.777 65.475C55.485 65.31 59.151 65.799 60.309 66.675C61.467 67.551 60.873 69.075 60.873 69.075L54.432 67.455Z" fill="#E0E0E0"/>
<path d="M64.3172 70.641C64.4552 73.665 64.3172 79.662 62.2652 88.74H48.6992C48.6152 86.853 50.5622 78.717 50.3942 69.777C50.3858 69.3289 50.4667 68.8836 50.6322 68.467C50.7976 68.0505 51.0443 67.671 51.3579 67.3508C51.6714 67.0305 52.0456 66.7759 52.4585 66.6016C52.8715 66.4274 53.315 66.3371 53.7632 66.336C54.0302 66.336 54.3122 66.336 54.6032 66.369C56.5223 66.5025 58.4318 66.751 60.3212 67.113C60.8852 67.242 61.4342 67.392 61.9322 67.545C62.6002 67.7526 63.1878 68.1614 63.6147 68.7155C64.0415 69.2697 64.2869 69.9421 64.3172 70.641Z" fill="#459C72"/>
<path opacity="0.2" d="M62.2681 76.083C62.0521 77.619 61.5541 80.283 63.3511 83.229C63.5551 82.008 63.7201 80.865 63.8551 79.797L62.2681 76.083Z" fill="black"/>
<path d="M72.84 79.8L75.123 79.014L74.193 76.614C73.6742 76.6893 73.1855 76.904 72.7792 77.2353C72.3729 77.5666 72.0642 78.002 71.886 78.495L72.84 79.8Z" fill="#B55B52"/>
<path d="M76.3321 78.33L76.5751 76.392L74.1931 76.59L75.1231 78.999L76.3321 78.33Z" fill="#B55B52"/>
<path d="M64.3021 70.362C64.4281 70.803 64.5841 71.316 64.7341 71.796C64.8841 72.276 65.0341 72.768 65.2081 73.251C65.5321 74.217 65.8891 75.168 66.2641 76.098C66.6391 77.028 67.0591 77.931 67.5121 78.774C67.9259 79.5715 68.4291 80.3193 69.0121 81.003L66.8131 80.664C67.2361 80.481 67.6711 80.292 68.1091 80.064C68.5471 79.836 68.9941 79.632 69.4351 79.392L70.7851 78.681C71.2351 78.444 71.6851 78.186 72.1441 77.964L72.1921 77.94C72.4063 77.8326 72.6507 77.8008 72.8853 77.8498C73.1199 77.8988 73.3311 78.0258 73.4844 78.2101C73.6377 78.3943 73.7242 78.6251 73.7298 78.8647C73.7353 79.1043 73.6597 79.3388 73.5151 79.53C73.1794 79.9733 72.8209 80.3989 72.4411 80.805C72.0661 81.21 71.6731 81.594 71.2651 81.972C70.8571 82.35 70.4251 82.707 69.9751 83.049C69.5251 83.391 69.0481 83.721 68.5411 84.027C68.2163 84.2208 67.8371 84.3031 67.4612 84.2614C67.0854 84.2197 66.7334 84.0563 66.4591 83.796L66.3421 83.685C65.453 82.823 64.6813 81.8476 64.0471 80.784C63.4448 79.8059 62.9086 78.7886 62.4421 77.739C61.9711 76.71 61.5661 75.666 61.1971 74.616C61.0141 74.091 60.8371 73.563 60.6781 73.032C60.5191 72.501 60.3781 71.979 60.2251 71.391C60.0814 70.8527 60.1575 70.2795 60.4366 69.7973C60.7156 69.3152 61.1748 68.9636 61.7131 68.82C62.2513 68.6764 62.8246 68.7525 63.3067 69.0315C63.7889 69.3106 64.1404 69.7697 64.2841 70.308L64.3021 70.362Z" fill="#459C72"/>
<path d="M55.674 58.707C56.199 61.167 56.379 62.634 57.825 63.723C60 65.361 62.898 63.765 63.12 61.194C63.318 58.881 62.43 55.245 59.85 54.618C59.2815 54.4774 58.6865 54.4844 58.1215 54.6385C57.5565 54.7925 57.0403 55.0884 56.6219 55.4981C56.2034 55.9079 55.8967 56.4177 55.7308 56.9794C55.5649 57.541 55.5453 58.1357 55.674 58.707Z" fill="#B55B52"/>
<path d="M60.975 58.965C62.151 58.875 62.082 58.332 61.818 57.933C61.554 57.534 61.233 56.1 61.233 56.1C61.233 56.1 62.868 56.532 62.532 54.966C62.196 53.4 59.988 51.417 58.059 52.632C54.216 51.999 52.959 53.55 53.559 54.984C50.508 56.334 52.71 59.067 53.925 59.067C52.842 60.033 54.459 61.425 57.081 62.988C59.001 60.675 61.833 61.296 60.975 58.965Z" fill="#263238"/>
<path d="M58.5991 53.418C58.5592 53.4174 58.5198 53.4089 58.4832 53.393C58.4467 53.377 58.4136 53.3539 58.3861 53.325C57.939 52.8754 57.3818 52.5509 56.7701 52.384C56.1584 52.2172 55.5136 52.2137 54.9001 52.374C54.8229 52.392 54.7418 52.3788 54.6743 52.3372C54.6069 52.2956 54.5586 52.229 54.5401 52.152C54.5221 52.0748 54.5353 51.9937 54.5769 51.9262C54.6185 51.8588 54.6851 51.8105 54.7621 51.792C55.4778 51.6094 56.2287 51.6162 56.9409 51.8119C57.6532 52.0076 58.3022 52.3853 58.8241 52.908C58.88 52.9642 58.9113 53.0402 58.9113 53.1195C58.9113 53.1988 58.88 53.2748 58.8241 53.331C58.7947 53.3603 58.7595 53.3831 58.7207 53.3981C58.682 53.4131 58.6406 53.4199 58.5991 53.418Z" fill="#263238"/>
<path d="M54.6242 61.8C54.5847 61.8002 54.5456 61.7927 54.509 61.7777C54.4725 61.7628 54.4392 61.7408 54.4112 61.713C53.5652 60.861 53.2112 60.195 53.3192 59.613C53.3696 59.3931 53.4738 59.1891 53.6225 59.0195C53.7712 58.8498 53.9598 58.7198 54.1712 58.641C54.2432 58.6068 54.3258 58.6026 54.4009 58.6293C54.4761 58.656 54.5375 58.7115 54.5717 58.7835C54.6059 58.8555 54.6101 58.9382 54.5834 59.0133C54.5567 59.0884 54.5012 59.1498 54.4292 59.184C54.1142 59.334 53.9462 59.508 53.9102 59.715C53.8742 59.922 53.9942 60.441 54.8372 61.287C54.8653 61.3149 54.8876 61.3481 54.9029 61.3846C54.9181 61.4212 54.9259 61.4604 54.9259 61.5C54.9259 61.5396 54.9181 61.5788 54.9029 61.6154C54.8876 61.6519 54.8653 61.6851 54.8372 61.713C54.8091 61.7408 54.7759 61.7628 54.7394 61.7777C54.7028 61.7927 54.6637 61.8002 54.6242 61.8Z" fill="#263238"/>
<path d="M59.529 58.773C59.7303 59.3653 60.1202 59.8753 60.639 60.225C61.326 60.678 61.791 60.165 61.701 59.424C61.62 58.755 61.164 57.714 60.426 57.555C59.688 57.396 59.298 58.056 59.529 58.773Z" fill="#B55B52"/>
<path d="M82.986 122.205C83.31 122.205 83.625 122.16 83.73 122.016C83.7569 121.977 83.7714 121.931 83.7714 121.884C83.7714 121.837 83.7569 121.791 83.73 121.752C83.7096 121.717 83.6824 121.686 83.6499 121.662C83.6174 121.638 83.5804 121.621 83.541 121.611C83.118 121.497 82.233 122.001 82.194 122.025C82.1835 122.031 82.1752 122.04 82.1703 122.05C82.1654 122.061 82.1642 122.073 82.167 122.085C82.1684 122.097 82.1735 122.108 82.1816 122.117C82.1896 122.127 82.2002 122.133 82.212 122.136C82.4677 122.18 82.7265 122.203 82.986 122.205ZM83.388 121.713C83.4265 121.713 83.4648 121.718 83.502 121.728C83.5267 121.733 83.5502 121.743 83.5709 121.757C83.5916 121.772 83.609 121.79 83.622 121.812C83.664 121.887 83.649 121.923 83.622 121.944C83.502 122.109 82.86 122.112 82.389 122.046C82.701 121.87 83.0445 121.757 83.4 121.713H83.388Z" fill="#459C72"/>
<path d="M82.218 122.136H82.242C82.542 122.001 83.157 121.452 83.109 121.164C83.109 121.098 83.052 121.014 82.887 120.996C82.8275 120.99 82.7674 120.996 82.7102 121.013C82.653 121.031 82.5999 121.06 82.554 121.098C82.23 121.365 82.161 122.049 82.158 122.076C82.1576 122.087 82.1599 122.097 82.1646 122.106C82.1693 122.116 82.1763 122.124 82.185 122.13C82.1948 122.136 82.2066 122.138 82.218 122.136ZM82.839 121.107H82.875C82.983 121.107 82.989 121.161 82.992 121.173C83.019 121.347 82.608 121.773 82.293 121.965C82.3218 121.676 82.4391 121.402 82.629 121.182C82.6879 121.133 82.7623 121.106 82.839 121.107Z" fill="#459C72"/>
<path d="M79.3351 122.076H81.8731L81.39 116.202H78.8521L79.3351 122.076Z" fill="#B55B52"/>
<path d="M81.876 121.782H79.107C79.0587 121.78 79.0116 121.798 78.9757 121.83C78.9399 121.863 78.9181 121.908 78.915 121.956L78.75 124.2C78.748 124.258 78.7577 124.316 78.7784 124.371C78.7991 124.425 78.8305 124.475 78.8708 124.517C78.911 124.56 78.9593 124.593 79.0127 124.617C79.0662 124.64 79.1237 124.652 79.182 124.653C80.178 124.635 81.612 124.578 82.869 124.578C84.336 124.578 84.489 124.656 86.211 124.656C87.252 124.656 87.384 123.603 86.934 123.51C84.888 123.075 84.387 123.027 82.515 121.971C82.3216 121.855 82.1016 121.79 81.876 121.782Z" fill="#263238"/>
<path opacity="0.2" d="M81.3871 116.205L81.6391 119.232H79.1011L78.8521 116.205H81.3871Z" fill="black"/>
<path d="M67.2001 122.205C67.414 122.23 67.6291 122.171 67.8001 122.04C67.8318 121.996 67.8489 121.944 67.8489 121.89C67.8489 121.836 67.8318 121.784 67.8001 121.74C67.7803 121.705 67.7532 121.674 67.7206 121.65C67.688 121.627 67.6507 121.61 67.6111 121.602C67.2421 121.515 66.5401 121.995 66.5101 122.016C66.5011 122.023 66.4941 122.032 66.4899 122.043C66.4856 122.053 66.4843 122.065 66.4861 122.076C66.4879 122.087 66.4932 122.098 66.5013 122.106C66.5094 122.114 66.5198 122.119 66.5311 122.121C66.7504 122.174 66.9747 122.202 67.2001 122.205ZM67.5181 121.722C67.543 121.719 67.5682 121.719 67.5931 121.722C67.6164 121.727 67.6383 121.736 67.6575 121.75C67.6766 121.764 67.6925 121.782 67.7041 121.803C67.7581 121.902 67.7251 121.944 67.7041 121.956C67.5961 122.1 67.0771 122.1 66.6991 122.037C66.9393 121.874 67.213 121.766 67.5001 121.722H67.5181Z" fill="#459C72"/>
<path d="M66.546 122.136H66.573C66.837 121.992 67.344 121.437 67.29 121.155C67.281 121.111 67.2571 121.07 67.2221 121.042C67.1872 121.013 67.1433 120.996 67.098 120.996C67.0524 120.99 67.0061 120.994 66.9622 121.008C66.9182 121.021 66.8776 121.044 66.843 121.074C66.543 121.314 66.486 122.046 66.486 122.076C66.4847 122.087 66.4866 122.098 66.4914 122.108C66.4961 122.118 66.5036 122.127 66.513 122.133C66.5235 122.137 66.5349 122.138 66.546 122.136ZM67.056 121.107H67.083C67.161 121.107 67.17 121.152 67.173 121.167C67.203 121.335 66.873 121.767 66.618 121.953C66.6363 121.664 66.7408 121.387 66.918 121.158C66.9566 121.125 67.0054 121.107 67.056 121.107Z" fill="#459C72"/>
<path d="M64.2241 122.076H66.7591L68.0341 116.202H65.4991L64.2241 122.076Z" fill="#B55B52"/>
<path d="M66.9391 121.782H64.0921C64.0416 121.782 63.9925 121.799 63.9531 121.83C63.9137 121.862 63.8865 121.907 63.8761 121.956L63.3751 124.2C63.3629 124.255 63.3632 124.312 63.3762 124.367C63.3891 124.421 63.4143 124.472 63.4498 124.516C63.4853 124.56 63.5302 124.595 63.5812 124.618C63.6322 124.642 63.6879 124.654 63.7441 124.653C64.7401 124.635 65.2231 124.578 66.4771 124.578C67.2481 124.578 68.2351 124.656 69.3001 124.656C70.3651 124.656 70.5001 123.603 70.0681 123.51C68.1151 123.081 67.9681 122.493 67.3531 121.929C67.2378 121.831 67.0905 121.779 66.9391 121.782Z" fill="#263238"/>
<path d="M58.2 88.74C58.2 88.74 72.27 93.009 72.618 98.661C73.257 109.071 68.151 117.942 68.151 117.942H64.347C64.347 117.942 65.793 113.544 66.312 104.115C66.963 92.265 44.556 104.391 48.699 88.74H58.2Z" fill="black"/>
<g opacity="0.2">
<path d="M65.4961 116.205H68.0341L67.3771 119.232H64.8391L65.4961 116.205Z" fill="black"/>
</g>
<path d="M62.265 88.74C62.265 88.74 80.46 89.94 81.18 99.597C82.005 110.697 82.245 117.942 82.245 117.942H78.477C78.477 117.942 76.539 111.135 74.877 101.349C74.376 98.418 68.16 97.914 62.277 97.566C57.207 97.266 53.313 96.966 52.887 91.35L52.953 88.74H62.265Z" fill="#263238"/>
<path d="M83.1661 116.934C83.1871 116.934 82.9231 118.734 82.9231 118.734H77.7001L77.5591 117.141L83.1661 116.934Z" fill="#459C72"/>
<path d="M69.3001 116.934C69.3211 116.934 68.8201 118.734 68.8201 118.734H63.6001L63.6961 117.141L69.3001 116.934Z" fill="#459C72"/>
<path d="M61.4461 96.768L58.8991 79.467C58.8306 78.9987 58.596 78.5706 58.2379 78.261C57.8799 77.9515 57.4224 77.7811 56.9491 77.781H41.9221C41.6389 77.781 41.359 77.842 41.1015 77.9599C40.844 78.0777 40.615 78.2497 40.4299 78.4641C40.2449 78.6785 40.1082 78.9302 40.0292 79.2021C39.9502 79.4741 39.9307 79.7599 39.9721 80.04L42.4321 96.768C42.4321 96.9605 42.47 97.1511 42.5438 97.329C42.6176 97.5068 42.7257 97.6683 42.8619 97.8043C42.9982 97.9403 43.1599 98.048 43.3379 98.1214C43.5159 98.1948 43.7066 98.2324 43.8991 98.232H71.2921C71.2921 98.0395 71.2541 97.8489 71.1804 97.6711C71.1066 97.4932 70.9985 97.3317 70.8622 97.1957C70.726 97.0598 70.5642 96.952 70.3863 96.8786C70.2083 96.8052 70.0176 96.7676 69.8251 96.768H61.4461Z" fill="#459C72"/>
<path opacity="0.5" d="M61.4461 96.768L58.8991 79.467C58.8306 78.9987 58.596 78.5706 58.2379 78.261C57.8799 77.9515 57.4224 77.7811 56.9491 77.781H41.9221C41.6389 77.781 41.359 77.842 41.1015 77.9599C40.844 78.0777 40.615 78.2497 40.4299 78.4641C40.2449 78.6785 40.1082 78.9302 40.0292 79.2021C39.9502 79.4741 39.9307 79.7599 39.9721 80.04L42.4321 96.768C42.4321 96.9605 42.47 97.1511 42.5438 97.329C42.6176 97.5068 42.7257 97.6683 42.8619 97.8043C42.9982 97.9403 43.1599 98.048 43.3379 98.1214C43.5159 98.1948 43.7066 98.2324 43.8991 98.232H71.2921C71.2921 98.0395 71.2541 97.8489 71.1804 97.6711C71.1066 97.4932 70.9985 97.3317 70.8622 97.1957C70.726 97.0598 70.5642 96.952 70.3863 96.8786C70.2083 96.8052 70.0176 96.7676 69.8251 96.768H61.4461Z" fill="white"/>
<path opacity="0.3" d="M56.9491 77.781H41.9221C41.6389 77.781 41.359 77.842 41.1015 77.9599C40.844 78.0777 40.615 78.2497 40.4299 78.4641C40.2449 78.6785 40.1082 78.9302 40.0292 79.2021C39.9502 79.4741 39.9307 79.7599 39.9721 80.04L42.4321 96.768C42.4321 96.9605 42.47 97.1511 42.5438 97.329C42.6176 97.5068 42.7257 97.6683 42.8619 97.8043C42.9982 97.9403 43.1599 98.048 43.3379 98.1214C43.5159 98.1948 43.7066 98.2324 43.8991 98.232H59.8321L56.9491 77.781Z" fill="#459C72"/>
<path d="M42.6241 124.872H41.7751L43.8991 98.232H44.7511L42.6241 124.872Z" fill="#459C72"/>
<path opacity="0.6" d="M42.6241 124.872H41.7751L43.8991 98.232H44.7511L42.6241 124.872Z" fill="white"/>
<path d="M57.069 124.872H56.22L58.347 98.232H59.196L57.069 124.872Z" fill="#459C72"/>
<path opacity="0.6" d="M57.069 124.872H56.22L58.347 98.232H59.196L57.069 124.872Z" fill="white"/>
<path d="M58.3771 124.872H57.5251L55.4011 98.232H56.2501L58.3771 124.872Z" fill="#459C72"/>
<path opacity="0.7" d="M58.3771 124.872H57.5251L55.4011 98.232H56.2501L58.3771 124.872Z" fill="white"/>
<path d="M72.8222 124.872H71.9732L69.8462 98.232H70.6952L72.8222 124.872Z" fill="#459C72"/>
<path opacity="0.7" d="M72.8222 124.872H71.9732L69.8462 98.232H70.6952L72.8222 124.872Z" fill="white"/>
</svg>
