<svg width="25" height="25" viewBox="0 0 30 30" fill="none" xmlns="http://www.w3.org/2000/svg">
<path d="M19.0625 2.5H10.9375C8.70075 2.50331 6.55656 3.39332 4.97494 4.97494C3.39332 6.55656 2.50331 8.70075 2.5 10.9375V19.0625C2.5 21.3003 3.38895 23.4464 4.97129 25.0287C6.55363 26.6111 8.69974 27.5 10.9375 27.5H19.0625C21.3003 27.5 23.4464 26.6111 25.0287 25.0287C26.6111 23.4464 27.5 21.3003 27.5 19.0625V10.9375C27.4967 8.70075 26.6067 6.55656 25.0251 4.97494C23.4434 3.39332 21.2992 2.50331 19.0625 2.5ZM10.05 21.85C9.7113 21.85 9.38021 21.7496 9.09859 21.5614C8.81697 21.3732 8.59747 21.1058 8.46786 20.7928C8.33824 20.4799 8.30433 20.1356 8.37041 19.8034C8.43648 19.4712 8.59958 19.1661 8.83908 18.9266C9.07858 18.6871 9.38372 18.524 9.71591 18.4579C10.0481 18.3918 10.3924 18.4257 10.7053 18.5554C11.0183 18.685 11.2857 18.9045 11.4739 19.1861C11.6621 19.4677 11.7625 19.7988 11.7625 20.1375C11.7642 20.3629 11.721 20.5863 11.6355 20.7948C11.5501 21.0033 11.424 21.1928 11.2646 21.3521C11.1053 21.5115 10.9158 21.6376 10.7073 21.723C10.4988 21.8085 10.2754 21.8517 10.05 21.85ZM10.05 16.7125C9.7113 16.7125 9.38021 16.6121 9.09859 16.4239C8.81697 16.2357 8.59747 15.9683 8.46786 15.6553C8.33824 15.3424 8.30433 14.9981 8.37041 14.6659C8.43648 14.3337 8.59958 14.0286 8.83908 13.7891C9.07858 13.5496 9.38372 13.3865 9.71591 13.3204C10.0481 13.2543 10.3924 13.2882 10.7053 13.4179C11.0183 13.5475 11.2857 13.767 11.4739 14.0486C11.6621 14.3302 11.7625 14.6613 11.7625 15C11.7727 15.2305 11.7358 15.4607 11.6542 15.6766C11.5725 15.8924 11.4478 16.0893 11.2876 16.2554C11.1274 16.4215 10.935 16.5532 10.7222 16.6425C10.5095 16.7318 10.2808 16.7769 10.05 16.775V16.7125ZM10.05 11.575C9.7113 11.575 9.38021 11.4746 9.09859 11.2864C8.81697 11.0982 8.59747 10.8308 8.46786 10.5178C8.33824 10.2049 8.30433 9.8606 8.37041 9.52841C8.43648 9.19622 8.59958 8.89108 8.83908 8.65158C9.07858 8.41208 9.38372 8.24898 9.71591 8.18291C10.0481 8.11683 10.3924 8.15074 10.7053 8.28036C11.0183 8.40997 11.2857 8.62947 11.4739 8.91109C11.6621 9.1927 11.7625 9.5238 11.7625 9.8625C11.7642 10.0879 11.721 10.3113 11.6355 10.5198C11.5501 10.7283 11.424 10.9178 11.2646 11.0771C11.1053 11.2365 10.9158 11.3626 10.7073 11.448C10.4988 11.5335 10.2754 11.5767 10.05 11.575ZM20.2375 21.075H14.5875C14.3389 21.075 14.1004 20.9762 13.9246 20.8004C13.7488 20.6246 13.65 20.3861 13.65 20.1375C13.65 19.8889 13.7488 19.6504 13.9246 19.4746C14.1004 19.2988 14.3389 19.2 14.5875 19.2H20.2375C20.4861 19.2 20.7246 19.2988 20.9004 19.4746C21.0762 19.6504 21.175 19.8889 21.175 20.1375C21.175 20.3861 21.0762 20.6246 20.9004 20.8004C20.7246 20.9762 20.4861 21.075 20.2375 21.075ZM20.2375 15.9375H14.5875C14.3389 15.9375 14.1004 15.8387 13.9246 15.6629C13.7488 15.4871 13.65 15.2486 13.65 15C13.65 14.7514 13.7488 14.5129 13.9246 14.3371C14.1004 14.1613 14.3389 14.0625 14.5875 14.0625H20.2375C20.4861 14.0625 20.7246 14.1613 20.9004 14.3371C21.0762 14.5129 21.175 14.7514 21.175 15C21.175 15.2486 21.0762 15.4871 20.9004 15.6629C20.7246 15.8387 20.4861 15.9375 20.2375 15.9375ZM20.2375 10.8H14.5875C14.3389 10.8 14.1004 10.7012 13.9246 10.5254C13.7488 10.3496 13.65 10.1111 13.65 9.8625C13.65 9.61386 13.7488 9.3754 13.9246 9.19959C14.1004 9.02377 14.3389 8.925 14.5875 8.925H20.2375C20.4861 8.925 20.7246 9.02377 20.9004 9.19959C21.0762 9.3754 21.175 9.61386 21.175 9.8625C21.175 10.1111 21.0762 10.3496 20.9004 10.5254C20.7246 10.7012 20.4861 10.8 20.2375 10.8Z" fill="white"/>
</svg>
